<svg width="76" height="89" viewBox="0 0 76 89" fill="none" xmlns="http://www.w3.org/2000/svg">
<path d="M25.0867 13.7758C24.9591 14.0098 17.5562 19.4557 17.5562 19.4557C17.5562 19.4557 19.1942 31.177 25.8525 35.7932C33.1704 40.8774 43.4877 31.6024 43.4877 31.6024C43.4877 31.6024 51.699 33.5595 56.0812 16.4562C57.081 12.542 51.2948 12.2017 44.3173 12.9249C35.2764 13.8609 25.0867 13.7758 25.0867 13.7758Z" fill="url(#paint0_linear)"/>
<path d="M13.1317 53.7692C16.0248 51.7695 19.237 50.2804 22.6406 49.3444C23.917 49.0041 30.8094 51.0037 35.0852 50.8973C40.9352 50.7697 46.8916 48.0893 51.7205 49.3019C56.5069 50.4932 60.4424 52.0461 62.6973 53.6628C69.4833 58.4917 73.4613 67.4688 75.8864 76.3821C71.2915 81.1047 65.5053 83.1894 65.5053 83.1894L64.4416 126.48L38.8505 139.584L9.64293 124.927L10.6853 82.6363C10.6853 82.6363 1.41036 78.318 0.729633 76.7438C0.048904 75.1483 4.94164 59.3852 13.1317 53.7692Z" fill="url(#paint1_linear)"/>
<path d="M22.6409 49.3442C22.6409 49.3442 25.2362 60.555 37.7871 60.321C50.572 60.087 51.7208 49.3017 51.7208 49.3017L43.3606 47.5147L42.6586 38.1973L30.0863 39.1333L29.8523 47.9827L22.6409 49.3442Z" fill="url(#paint2_linear)"/>
<path d="M26.5286 13.5211C26.5286 13.5211 18.0233 43.7344 36.1161 46.9295C48.8683 49.1785 51.6074 24.8383 48.1334 19.123C42.7542 10.2587 40.7386 11.8664 40.7386 11.8664L26.5286 13.5211Z" fill="url(#paint3_linear)"/>
<path d="M53.4437 9.2875C60.5488 11.2446 54.486 26.6674 43.7646 23.0297C33.0431 19.3708 28.8523 19.4346 27.1718 22.3703C25.5125 25.3059 25.1509 35.7508 21.5132 30.6028C17.5352 24.9443 15.3228 13.5846 20.1943 9.92568C24.5552 6.64967 25.5551 1.58675 30.7882 1.75693C37.7231 1.99093 43.0626 -1.07235 46.1897 1.14002C49.806 3.65021 48.2106 7.84095 53.4437 9.2875Z" fill="url(#paint4_linear)"/>
<path d="M25.7755 26.9003C25.7755 26.9003 22.1122 24.2857 22.4321 28.2809C22.752 32.2761 25.324 36.9821 26.5729 33.8595C27.8218 30.7369 25.7755 26.9003 25.7755 26.9003Z" fill="url(#paint5_linear)"/>
<defs>
<linearGradient id="paint0_linear" x1="69.3805" y1="-26.217" x2="38.975" y2="16.9919" gradientUnits="userSpaceOnUse">
<stop stop-color="#2B3582"/>
<stop offset="1" stop-color="#150E42"/>
</linearGradient>
<linearGradient id="paint1_linear" x1="38.2682" y1="54.2907" x2="38.2682" y2="156.687" gradientUnits="userSpaceOnUse">
<stop stop-color="#EFF4FD"/>
<stop offset="1" stop-color="#6666B3"/>
</linearGradient>
<linearGradient id="paint2_linear" x1="37.4974" y1="76.9542" x2="36.8502" y2="20.6507" gradientUnits="userSpaceOnUse">
<stop stop-color="#F9B776"/>
<stop offset="1" stop-color="#F47960"/>
</linearGradient>
<linearGradient id="paint3_linear" x1="37.0275" y1="45.9545" x2="37.0445" y2="-3.08137" gradientUnits="userSpaceOnUse">
<stop stop-color="#F9B776"/>
<stop offset="1" stop-color="#F47960"/>
</linearGradient>
<linearGradient id="paint4_linear" x1="70.6234" y1="-32.7927" x2="36.4107" y2="15.8266" gradientUnits="userSpaceOnUse">
<stop stop-color="#3F4279"/>
<stop offset="1" stop-color="#444A8A"/>
</linearGradient>
<linearGradient id="paint5_linear" x1="31.902" y1="53.5179" x2="9.60186" y2="-20.0153" gradientUnits="userSpaceOnUse">
<stop stop-color="#F9B776"/>
<stop offset="1" stop-color="#F47960"/>
</linearGradient>
</defs>
</svg>
