<?xml version="1.0" encoding="UTF-8"?>
<svg width="1636px" height="1077px" viewBox="0 0 1636 1077" version="1.1" xmlns="http://www.w3.org/2000/svg" xmlns:xlink="http://www.w3.org/1999/xlink">
    <title>Group 348</title>
    <defs>
        <rect id="path-1" x="2.77845045e-05" y="-1.41842725e-06" width="1636" height="1077"></rect>
    </defs>
    <g id="Page-1" stroke="none" stroke-width="1" fill="none" fill-rule="evenodd">
        <g id="Apple-TV" transform="translate(-282.000000, -5.000000)">
            <g id="Group-348" transform="translate(282.000000, 5.000000)">
                <g id="top_bog" transform="translate(-0.000028, 0.000001)">
                    <mask id="mask-2" fill="white">
                        <use xlink:href="#path-1"></use>
                    </mask>
                    <g id="Mask"></g>
                    <path d="M950.138028,13.2105986 C966.943028,18.5555986 984.720028,25.5671986 1004.01003,33.1793986 C1067.59003,58.2625986 1147.71003,89.8685986 1264.23003,89.8685986 C1383.27003,89.8685986 1499.25003,68.7849986 1592.76003,51.7857986 C1743.27003,24.4240986 1835.58003,7.64379858 1788.77003,106.395999 C1814.72003,268.490999 1655.80003,257.085999 1442.64003,241.787999 C1373.55003,236.828999 1298.75003,231.460999 1222.70003,231.460999 C1073.13003,231.460999 953.843028,222.767999 870.343028,207.552999 C790.895028,218.403999 687.144028,224.460999 562.300028,224.460999 C486.252028,224.460999 411.455028,229.828999 342.358028,234.787999 C129.198028,250.085999 -29.7157722,261.490999 -3.77177222,99.3959986 C-50.5782722,0.643728582 41.7272278,17.4239986 192.239028,44.7856986 C285.749028,61.7849986 401.726028,82.8685986 520.769028,82.8685986 C637.295028,82.8685986 717.409028,51.2625986 780.989028,26.1793986 C847.975028,-0.247641418 896.609028,-19.4343014 950.138028,13.2105986 Z" id="Path" fill="#FBFBFD" mask="url(#mask-2)"></path>
                    <path d="M856.678028,21.0369986 C892.046028,20.1975986 924.867028,33.7561986 964.469028,50.1163986 C1022.04003,73.8991986 1093.94003,103.602999 1208.83003,103.602999 C1331.79003,103.602999 1450.90003,77.2414986 1544.08003,56.6193986 C1680.46003,26.4359986 1761.29003,8.54689858 1717.33003,103.602999 C1743.63003,271.981999 1577.01003,263.202999 1357.62003,251.643999 C1297.52003,248.476999 1233.47003,245.102999 1168.33003,245.102999 C1052.56003,245.102999 943.625028,229.326999 856.678028,209.834999 C769.732028,229.326999 660.800028,245.102999 545.024028,245.102999 C479.890028,245.102999 415.836028,248.476999 355.742028,251.643999 C136.346028,263.202999 -30.2719722,271.981999 -3.97507222,103.602999 C-47.9381722,8.54689858 32.8925278,26.4359986 169.275028,56.6193986 C262.455028,77.2414986 381.566028,103.602999 504.525028,103.602999 C619.415028,103.602999 691.317028,73.8991986 748.887028,50.1163986 C788.490028,33.7561986 821.311028,20.1975986 856.678028,21.0369986 Z" id="Path" fill="#F7F7FC" mask="url(#mask-2)"></path>
                    <rect id="Rectangle" fill="#F7F7FC" fill-rule="nonzero" mask="url(#mask-2)" x="2.77845045e-05" y="130.999999" width="1636" height="943"></rect>
                </g>
            </g>
        </g>
    </g>
</svg>