<svg width="24" height="24" viewBox="0 0 24 24" fill="none" xmlns="http://www.w3.org/2000/svg">
<path d="M0 23.9999H24V7.30298H0V23.9999ZM17.7937 9.7375H20.2766V12.3149H17.7937V9.7375ZM17.7937 14.1194H20.2766V16.6968H17.7937V14.1194ZM17.7937 18.5013H20.2766V21.0787H17.7937V18.5013ZM13.1036 9.7375H15.5865V12.3149H13.1036V9.7375ZM13.1036 14.1194H15.5865V16.6968H13.1036V14.1194ZM13.1036 18.5013H15.5865V21.0787H13.1036V18.5013ZM8.41346 9.7375H10.8963V12.3149H8.41346V9.7375ZM8.41346 14.1194H10.8963V16.6968H8.41346V14.1194ZM8.41346 18.5013H10.8963V21.0787H8.41346V18.5013ZM3.72339 9.7375H6.20623V12.3149H3.72339V9.7375ZM3.72339 14.1194H6.20623V16.6968H3.72339V14.1194ZM6.20623 18.5013V21.0787H3.72339V18.5013H6.20623Z" fill="#6666B3"/>
<path d="M24 1.46069H19.7789V4.38191H18.3719V1.46069H5.62807V4.38191H4.22113V1.46069H0V5.84254H24V1.46069Z" fill="#6666B3"/>
<path d="M5.62912 0H4.22217V1.46054H5.62912V0Z" fill="#6666B3"/>
<path d="M19.78 0H18.373V1.46054H19.78V0Z" fill="#6666B3"/>
</svg>
