<svg width="24" height="24" viewBox="0 0 24 24" fill="none" xmlns="http://www.w3.org/2000/svg">
<path d="M11.9998 2.80078C6.92687 2.80078 2.7998 6.9276 2.7998 12.0004C2.7998 17.0731 6.92682 21.2003 11.9998 21.2003C17.0725 21.2003 21.1997 17.0732 21.1997 12.0004C21.1998 6.92765 17.0725 2.80078 11.9998 2.80078ZM3.75421 12.432C3.51605 12.432 3.32285 12.2387 3.32285 12.0006C3.32285 11.7623 3.51605 11.5692 3.75421 11.5692C3.99243 11.5692 4.18562 11.7623 4.18562 12.0006C4.18562 12.2387 3.99243 12.432 3.75421 12.432ZM11.9997 3.32368C12.238 3.32368 12.4311 3.51677 12.4311 3.75504C12.4311 3.99326 12.238 4.18635 11.9997 4.18635C11.7615 4.18635 11.5684 3.99326 11.5684 3.75504C11.5684 3.51677 11.7615 3.32368 11.9997 3.32368ZM11.9997 20.6774C11.7615 20.6774 11.5684 20.4843 11.5684 20.2461C11.5684 20.0078 11.7616 19.8147 11.9997 19.8147C12.238 19.8147 12.4311 20.0078 12.4311 20.2461C12.4311 20.4843 12.238 20.6774 11.9997 20.6774ZM12.6633 11.6722L13.1165 11.6844L16.7942 11.7824L16.9786 12.0006L16.7942 12.2188L13.1165 12.3168L12.6633 12.3289C12.5418 12.5738 12.2917 12.7437 11.9998 12.7437C11.8728 12.7437 11.7552 12.7089 11.6507 12.6529L10.0953 14.2083L9.79632 13.9094L11.3505 12.3552C11.2926 12.2493 11.2566 12.1297 11.2566 12.0006C11.2566 11.726 11.4073 11.4889 11.6288 11.3602L11.7816 5.6265L11.9998 5.44213L12.218 5.6265L12.3708 11.3601C12.3969 11.3754 12.4219 11.3913 12.4457 11.4094L17.8874 5.96776L18.0369 6.11723L12.5947 11.5593C12.621 11.5946 12.6435 11.6324 12.6633 11.6722ZM20.2453 12.432C20.007 12.432 19.8139 12.2387 19.8139 12.0006C19.8139 11.7623 20.007 11.5692 20.2453 11.5692C20.4834 11.5692 20.6765 11.7623 20.6765 12.0006C20.6765 12.2387 20.4834 12.432 20.2453 12.432Z" fill="#6666B3"/>
<path d="M12 0C5.38314 0 0 5.38329 0 12C0 18.6167 5.38314 24 12 24C18.6167 24 24 18.6167 24 12C24 5.38329 18.6167 0 12 0ZM12 21.95C6.51361 21.95 2.05006 17.4866 2.05006 12C2.05006 6.51381 6.51361 2.05046 12 2.05046C17.4866 2.05046 21.9499 6.51381 21.9499 12C21.9499 17.4866 17.4866 21.95 12 21.95Z" fill="#6666B3"/>
</svg>
