<svg width="126" height="126" viewBox="0 0 126 126" fill="none" xmlns="http://www.w3.org/2000/svg">
<path d="M82.0388 112.853C80.2564 112.272 78.9156 110.762 78.5528 108.907L75.9502 96.1069L53.7566 96.8932L51.0278 110.227C50.6492 112.099 52.1793 113.97 53.9459 114.662L63.2366 118.278C64.9717 118.955 66.8172 119.222 68.6627 119.065L88.2852 117.398C88.853 117.351 89.3262 116.895 89.3893 116.329C89.4524 115.747 89.8625 115.102 89.3105 114.929L82.0388 112.853Z" fill="#97A6B7"/>
<path d="M82.259 112.083C80.4766 111.501 79.1516 110.008 78.773 108.184L76.1861 95.5254L54.5289 96.2959L51.8001 109.473C51.4215 111.313 52.431 113.168 54.1977 113.844L63.4726 117.414C65.1919 118.074 67.0532 118.342 68.8987 118.184L88.4896 116.549C89.0575 116.502 89.5149 116.062 89.5938 115.48C89.6569 114.914 89.3098 114.379 88.7735 114.19L82.259 112.083Z" fill="url(#paint0_linear)"/>
<path d="M8.40739 104.614C5.99402 104.756 4.03809 103.199 4.03809 101.139V26.9828C4.03809 24.9229 6.00979 23.3348 8.40739 23.4448L120.211 31.1655C121.978 31.2442 122.924 29.8132 122.924 31.5744V94.6294C122.924 96.3748 121.489 97.8844 119.722 97.9945L8.40739 104.614Z" fill="url(#paint1_linear)"/>
<path d="M9.40031 104.614C6.98694 104.756 5.03101 103.199 5.03101 101.139V26.9828C5.03101 24.9229 7.00271 23.3348 9.40031 23.4448L120.715 28.2565C122.482 28.3351 123.917 29.8132 123.917 31.5744V94.6294C123.917 96.3748 122.482 97.8844 120.715 97.9945L9.40031 104.614Z" fill="url(#paint2_linear)"/>
<path opacity="0.3" d="M120.716 29.7348L9.40115 25.1747C8.10771 25.1276 7.06665 25.9767 7.06665 27.0617V84.7232V101.014C7.06665 102.114 8.10771 102.948 9.40115 102.869L120.716 96.5008C121.662 96.4537 122.435 95.636 122.435 94.7082V80.2889V31.5117C122.435 30.5682 121.662 29.782 120.716 29.7348Z" fill="#D8DEE8"/>
<path d="M119.896 91.17L10.6158 96.5478C9.46434 96.6106 8.53369 95.8559 8.53369 94.8652V28.0363C8.53369 27.0457 9.46434 26.2752 10.6158 26.3224L119.896 30.3636C120.747 30.395 121.442 31.1183 121.442 31.9674V89.5504C121.442 90.3995 120.747 91.1385 119.896 91.17Z" fill="url(#paint3_linear)"/>
<path opacity="0.6" d="M37.8726 33.3824L12.9187 32.6591V30.2847L37.8726 31.0866V33.3824Z" fill="white"/>
<path opacity="0.36" d="M49.6241 33.0675L43.8667 32.8945V31.2749L49.6241 31.4636V33.0675Z" fill="white"/>
<path opacity="0.36" d="M49.6241 35.3008L43.8667 35.1435V33.5239L49.6241 33.6969V35.3008Z" fill="white"/>
<path d="M78.3636 36.0867L55.9966 35.4734V33.8853L78.3636 34.5457V36.0867Z" fill="white"/>
<path d="M82.0232 38.3353L59.877 37.7849V36.1968L82.0232 36.7943V38.3353Z" fill="white"/>
<path d="M82.0232 40.474L59.877 40.0022V38.4141L82.0232 38.933V40.474Z" fill="white"/>
<path d="M82.0232 42.6127L59.877 42.2039V40.6157L82.0232 41.0717V42.6127Z" fill="white"/>
<path opacity="0.36" d="M49.6241 37.5492L43.8667 37.4077V35.7881L49.6241 35.9296V37.5492Z" fill="white"/>
<path opacity="0.36" d="M49.6241 39.7825L43.8667 39.6567V38.0371L49.6241 38.1629V39.7825Z" fill="white"/>
<path opacity="0.36" d="M49.6241 42.0148L43.8667 41.9048V40.2852L49.6241 40.4109V42.0148Z" fill="white"/>
<path opacity="0.36" d="M49.6241 44.2481L43.8667 44.1538V42.5342L49.6241 42.6443V44.2481Z" fill="white"/>
<path d="M65.0823 44.4837L50.886 44.2636V42.6597L65.0823 42.9113V44.4837Z" fill="white"/>
<path opacity="0.36" d="M49.6241 46.4805L43.8667 46.4018V44.7822L49.6241 44.8766V46.4805Z" fill="white"/>
<path opacity="0.36" d="M49.6241 48.7137L43.8667 48.6665V47.0469L49.6241 47.1098V48.7137Z" fill="white"/>
<path opacity="0.36" d="M49.6241 50.9465L43.8667 50.915V49.2954L49.6241 49.3426V50.9465Z" fill="white"/>
<path d="M71.7229 46.7638L55.9966 46.5594V44.9712L71.7229 45.2071V46.7638Z" fill="white"/>
<path d="M79.8937 49.0127L59.877 48.824V47.2358L79.8937 47.4717V49.0127Z" fill="white"/>
<path d="M79.8937 51.1667L59.877 51.0252V49.437L79.8937 49.6257V51.1667Z" fill="white"/>
<path opacity="0.36" d="M49.6241 53.195L43.8667 53.1636V51.5439L49.6241 51.5754V53.195Z" fill="white"/>
<path opacity="0.36" d="M49.6241 55.4278L43.8667 55.4121V53.7925L49.6241 53.8082V55.4278Z" fill="white"/>
<path opacity="0.36" d="M49.6241 57.6611H43.8667V56.0415L49.6241 56.0572V57.6611Z" fill="white"/>
<path opacity="0.36" d="M49.6241 59.8934L43.8667 59.9249V58.3053L49.6241 58.2896V59.8934Z" fill="white"/>
<path opacity="0.36" d="M49.6241 62.1264L43.8667 62.1735V60.5539L49.6241 60.5225V62.1264Z" fill="white"/>
<path opacity="0.36" d="M49.6241 64.3598L43.8667 64.4227V62.803L49.6241 62.7559V64.3598Z" fill="white"/>
<path opacity="0.36" d="M49.6241 66.5927L43.8667 66.6713V65.0517L49.6241 64.9888V66.5927Z" fill="white"/>
<path opacity="0.36" d="M49.6241 68.8408L43.8667 68.9194V67.2998L49.6241 67.2212V68.8408Z" fill="white"/>
<path opacity="0.36" d="M49.6241 71.0742L43.8667 71.1843V69.5647L49.6241 69.4546V71.0742Z" fill="white"/>
<path opacity="0.36" d="M49.6241 73.3065L43.8667 73.4323V71.8127L49.6241 71.7026V73.3065Z" fill="white"/>
<path opacity="0.36" d="M49.6241 75.5399L43.8667 75.6814V74.0618L49.6241 73.936V75.5399Z" fill="white"/>
<path opacity="0.36" d="M49.6241 77.7724L43.8667 77.9296V76.31L49.6241 76.1685V77.7724Z" fill="white"/>
<path opacity="0.36" d="M49.6241 80.0053L43.8667 80.1782V78.5586L49.6241 78.4014V80.0053Z" fill="white"/>
<path opacity="0.36" d="M49.6241 82.2382L43.8667 82.4426V80.823L49.6241 80.6343V82.2382Z" fill="white"/>
<path opacity="0.36" d="M49.6241 84.4868L43.8667 84.6912V83.0716L49.6241 82.8672V84.4868Z" fill="white"/>
<path opacity="0.36" d="M49.6241 86.7192L43.8667 86.9394V85.3197L49.6241 85.0996V86.7192Z" fill="white"/>
<path opacity="0.36" d="M49.6241 88.9525L43.8667 89.1884V87.5688L49.6241 87.3486V88.9525Z" fill="white"/>
<path opacity="0.36" d="M49.6241 91.1849L43.8667 91.4365V89.8169L49.6241 89.5811V91.1849Z" fill="white"/>
<path d="M66.565 33.5865L50.8386 33.1147V31.4951L66.565 32.014V33.5865Z" fill="white"/>
<path d="M78.3636 79.1407L55.9966 79.8169V78.2287L78.3636 77.584V79.1407Z" fill="white"/>
<path d="M82.0232 81.1689L59.877 81.908V80.3198L82.0232 79.6279V81.1689Z" fill="white"/>
<path d="M82.0232 83.3076L59.877 84.1095V82.5214L82.0232 81.7666V83.3076Z" fill="white"/>
<path d="M91.5663 85.0843L70.0037 85.9177V84.361L91.5663 83.5591V85.0843Z" fill="white"/>
<path d="M91.5663 87.1913L70.0037 88.1033V86.5309L91.5663 85.666V87.1913Z" fill="white"/>
<path d="M91.5663 89.3143L70.0037 90.2735V88.7011L91.5663 87.7891V89.3143Z" fill="white"/>
<path d="M66.565 77.3162L50.8386 77.7408V76.1369L66.565 75.728V77.3162Z" fill="white"/>
<path d="M78.3636 55.4595L55.9966 55.428V53.8398L78.3636 53.9185V55.4595Z" fill="white"/>
<path d="M82.0232 57.6138L59.877 57.6453V56.0571L82.0232 56.0729V57.6138Z" fill="white"/>
<path d="M82.0232 59.7519L59.877 59.8463V58.2581L82.0232 58.2109V59.7519Z" fill="white"/>
<path d="M82.0232 61.8911L59.877 62.0483V60.4602L82.0232 60.3501V61.8911Z" fill="white"/>
<path d="M65.0823 64.2018L50.886 64.3434V62.7395L65.0823 62.6294V64.2018Z" fill="white"/>
<path d="M71.7229 66.3092L55.9966 66.5136V64.9254L71.7229 64.7524V66.3092Z" fill="white"/>
<path d="M79.8937 68.3535L59.877 68.668V67.0798L79.8937 66.8125V68.3535Z" fill="white"/>
<path d="M79.8937 70.4922L59.877 70.8696V69.2814L79.8937 68.9512V70.4922Z" fill="white"/>
<path d="M84.3417 72.5517L64.5615 72.9763V71.4039L84.3417 71.0107V72.5517Z" fill="white"/>
<path d="M84.3417 74.6899L64.5615 75.1774V73.5892L84.3417 73.1489V74.6899Z" fill="white"/>
<path d="M66.565 53.2581L50.8386 53.1952V51.5913L66.565 51.6857V53.2581Z" fill="white"/>
<path d="M37.8727 36.9834L23.5818 36.6218V34.2788L37.8727 34.6719V36.9834Z" fill="white"/>
<path opacity="0.6" d="M19.8906 36.527L22.5879 36.5899V34.247L19.8906 34.1841V36.527Z" fill="white"/>
<path opacity="0.6" d="M37.8727 40.2853L23.5818 39.9865V37.6436L37.8727 37.9738V40.2853Z" fill="white"/>
<path opacity="0.6" d="M19.8906 39.9079L22.5879 39.9708V37.6278L19.8906 37.5649V39.9079Z" fill="white"/>
<path opacity="0.6" d="M37.8727 43.5876L23.5818 43.3517V41.0088L37.8727 41.2918V43.5876Z" fill="white"/>
<path opacity="0.6" d="M19.8906 43.2887L22.5879 43.3359V40.993L19.8906 40.9458V43.2887Z" fill="white"/>
<path d="M37.8726 67.0482L12.9187 67.3784V65.004L37.8726 64.7524V67.0482Z" fill="white"/>
<path opacity="0.6" d="M37.8727 70.6337L23.5818 70.901V68.558L37.8727 68.3379V70.6337Z" fill="white"/>
<path opacity="0.6" d="M19.8906 70.9638L22.5879 70.9167V68.5737L19.8906 68.6052V70.9638Z" fill="white"/>
<path opacity="0.6" d="M37.8727 73.9511L23.5818 74.2656V71.9227L37.8727 71.6396V73.9511Z" fill="white"/>
<path opacity="0.6" d="M19.8906 74.3443L22.5879 74.2814V71.9385L19.8906 71.9856V74.3443Z" fill="white"/>
<path opacity="0.6" d="M37.8727 77.2533L23.5818 77.6307V75.2877L37.8727 74.9575V77.2533Z" fill="white"/>
<path opacity="0.6" d="M19.8906 77.7253L22.5879 77.6624V75.3037L19.8906 75.3666V77.7253Z" fill="white"/>
<path d="M37.8726 46.9213L12.9187 46.6068V44.2324L37.8726 44.6098V46.9213Z" fill="white"/>
<path opacity="0.6" d="M37.8727 50.5062L23.5818 50.3962V48.0532L37.8727 48.2105V50.5062Z" fill="white"/>
<path opacity="0.6" d="M19.8906 50.3649L22.5879 50.3964V48.0534L19.8906 48.022V50.3649Z" fill="white"/>
<path opacity="0.6" d="M37.8727 53.8081L23.5818 53.7609V51.418L37.8727 51.5123V53.8081Z" fill="white"/>
<path opacity="0.6" d="M19.8906 53.7458L22.5879 53.7615V51.4186L19.8906 51.4028V53.7458Z" fill="white"/>
<path opacity="0.6" d="M37.8727 60.4598L23.5818 60.5385V58.1955L37.8727 58.1641V60.4598Z" fill="white"/>
<path opacity="0.6" d="M19.8906 60.5545L22.5879 60.5387V58.1958L19.8906 58.2115V60.5545Z" fill="white"/>
<path opacity="0.6" d="M37.8727 63.7778L23.5818 63.9036V61.5607L37.8727 61.4663V63.7778Z" fill="white"/>
<path opacity="0.6" d="M19.8906 63.9348L22.5879 63.9191V61.5762L19.8906 61.5919V63.9348Z" fill="white"/>
<path opacity="0.6" d="M37.8727 57.1104L23.5818 57.1261V54.7832L37.8727 54.8147V57.1104Z" fill="white"/>
<path opacity="0.6" d="M19.8906 57.1261H22.5879V54.7832H19.8906V57.1261Z" fill="white"/>
<path d="M37.8726 80.556L12.9187 81.3265V78.9521L37.8726 78.2603V80.556Z" fill="white"/>
<path opacity="0.6" d="M37.8727 84.141L23.5818 84.6442V82.3169L37.8727 81.8452V84.141Z" fill="white"/>
<path opacity="0.6" d="M19.8906 84.7854L22.5879 84.6911V82.3481L19.8906 82.4268V84.7854Z" fill="white"/>
<path opacity="0.6" d="M37.8727 87.459L23.5818 88.0093V85.6821L37.8727 85.1475V87.459Z" fill="white"/>
<path opacity="0.6" d="M19.8906 88.1664L22.5879 88.0563V85.7134L19.8906 85.8077V88.1664Z" fill="white"/>
<path opacity="0.6" d="M37.8727 90.7611L23.5818 91.3743V89.0471L37.8727 88.4653V90.7611Z" fill="white"/>
<path opacity="0.6" d="M19.8906 91.5473L22.5879 91.4216V89.0786L19.8906 89.1887V91.5473Z" fill="white"/>
<path opacity="0.6" d="M40.9008 90.6349L40.3491 90.6663V31.165L40.9008 31.1808V90.6349Z" fill="white"/>
<path opacity="0.3" d="M109.106 93.4029C84.8774 93.9061 79.4197 97.3498 72.5424 93.23C63.0782 87.5534 67.3844 77.4426 58.1726 72.1435C46.5789 65.4763 33.2186 77.6785 27.1773 71.7346C21.1518 65.8065 32.5404 51.8747 25.947 36.3232C23.297 30.0806 18.8015 26.0394 15.6941 23.7122L9.41618 23.4448C7.00281 23.3348 5.04688 24.9229 5.04688 26.9828V101.124C5.04688 103.184 7.01858 104.74 9.41618 104.599L120.731 97.9787C122.498 97.8687 123.933 96.3591 123.933 94.6137V93.4973C120.589 93.3872 115.415 93.2771 109.106 93.4029Z" fill="white"/>
<path d="M94.279 123.201C94.279 123.201 90.2725 125.025 90.2094 125.308C90.1463 125.591 92.7805 125.198 93.8688 125.245C94.9415 125.276 95.8406 124.962 95.7302 124.506C95.6355 124.05 95.2569 122.902 95.2569 122.902L94.279 123.201Z" fill="url(#paint4_linear)"/>
<path d="M94.1213 121.723L94.3737 123.515C94.3737 123.515 95.0047 123.735 95.4306 123.468L95.6041 121.502L94.1213 121.723Z" fill="url(#paint5_linear)"/>
<path d="M112.987 121.723L113.46 122.462C113.586 122.666 113.633 122.918 113.57 123.154C113.412 123.767 113.081 124.978 112.939 125.292C112.75 125.717 110.163 125.984 110.163 125.984C110.163 125.984 109.926 125.654 110.463 125.261C110.999 124.868 111.346 124.805 111.535 124.223C111.725 123.641 111.851 122.006 111.851 122.006L112.987 121.723Z" fill="url(#paint6_linear)"/>
<path d="M111.047 119.835C111.22 119.977 112.056 122.493 112.056 122.493C112.056 122.493 112.324 122.839 112.845 122.32C113.35 121.817 113.081 122.1 113.081 122.1L112.987 119.615L111.047 119.835Z" fill="url(#paint7_linear)"/>
<path d="M91.8342 85.6188C91.6292 90.9809 91.645 96.7989 91.9604 103.026C92.3232 110.039 93.0488 116.502 93.9321 122.383C94.2634 122.398 94.6104 122.398 94.9574 122.383C95.194 122.383 95.4306 122.367 95.6672 122.351C96.1247 121.14 96.661 119.536 97.1342 117.618C97.6389 115.605 97.9386 113.797 98.1595 112.083C98.9166 106.013 98.0175 105.479 98.6327 100.982C99.1848 96.9876 99.9577 96.8303 100.873 91.1695C101.866 85.0213 101.109 84.1093 100.746 83.7791C99.2163 82.3481 95.5726 83.323 91.8342 85.6188Z" fill="url(#paint8_linear)"/>
<path opacity="0.3" d="M100.762 83.7637C99.2794 82.4114 95.9038 83.2447 92.3547 85.3204C96.4717 89.7232 96.9133 92.5851 96.4401 94.4563C95.888 96.5634 94.2003 97.1609 94.216 99.4724C94.2318 102.303 96.7871 103.042 96.7398 106.029C96.7083 108.011 95.5883 107.995 95.3202 110.432C95.0205 113.326 96.4874 114.316 96.0142 116.455C95.8092 117.367 95.2255 118.578 93.5693 119.82C93.6955 120.7 93.8217 121.565 93.9479 122.414C94.2791 122.43 94.6261 122.43 94.9732 122.414C95.2098 122.414 95.4464 122.399 95.683 122.383C96.1404 121.172 96.6767 119.568 97.1499 117.65C97.6547 115.637 97.9544 113.829 98.1752 112.115C98.9324 106.045 98.0333 105.511 98.6484 101.013C99.2005 97.0194 99.9734 96.8621 100.888 91.2013C101.882 85.0059 101.125 84.0939 100.762 83.7637Z" fill="url(#paint9_linear)"/>
<path d="M94.3738 85.5249C97.9229 90.6668 101.74 97.0666 105.163 104.724C107.75 110.511 109.627 115.952 111.015 120.811C111.204 120.889 111.646 121.062 112.198 120.983C112.955 120.873 113.413 120.402 113.539 120.26C114.091 116.785 114.012 113.829 113.823 111.706C113.697 110.338 113.476 108.074 112.608 105.29C111.63 102.161 110.952 101.988 109.674 98.6705C108.349 95.2268 108.665 94.3777 107.387 90.0692C106.867 88.3081 105.983 85.6664 104.548 82.5215C101.156 83.5121 97.7651 84.5185 94.3738 85.5249Z" fill="url(#paint10_linear)"/>
<path d="M79.9725 78.2602C80.004 79.5181 82.0704 80.6188 83.7266 80.9491C87.6069 81.7353 92.1182 78.9206 94.2477 75.8072C94.6736 75.1939 95.131 74.4549 95.2414 74.5178C95.4938 74.6436 93.1593 78.4646 92.1498 82.8203C91.6292 85.0374 91.7712 86.091 90.7932 87.5691C90.5724 87.8993 90.3042 88.2609 90.3989 88.654C90.6355 89.6447 92.9227 89.912 94.5 90.085C96.172 90.2737 97.7336 90.2579 99.2637 90.2265C101.724 90.195 101.929 90.0692 102.482 90.3366C104.201 91.17 104.075 93.1827 105.368 93.45C106.456 93.6701 107.545 92.4751 107.892 92.082C109.706 90.1007 109.611 87.6948 109.927 85.2733C110.668 79.6597 113.744 73.4957 116.725 69.596C117.64 68.4167 118.271 67.7877 118.302 66.687C118.413 63.4635 113.286 59.894 109.028 59.4852C107.86 59.3751 105.762 59.4066 103.806 59.5953C103.018 59.6739 102.182 59.784 101.283 59.9412C99.1059 60.3186 97.5917 60.5859 96.0459 61.2935C89.8153 64.1396 91.1718 70.4609 84.4364 74.8322C82.165 76.3732 79.941 76.9551 79.9725 78.2602Z" fill="url(#paint11_linear)"/>
<path d="M105.51 56.1826C105.51 56.1826 105.778 57.6764 106.393 58.73C106.945 59.6892 109.248 60.0351 109.737 60.1924C110.21 60.3653 109.012 61.1987 107.734 61.4975C106.456 61.7962 102.718 62.0007 101.977 61.5918C101.251 61.183 102.45 61.0729 103.333 60.6012C104.216 60.1452 104.5 58.2582 104.232 57.472C103.964 56.6858 105.51 56.1826 105.51 56.1826Z" fill="white"/>
<path d="M103.081 55.7582C102.15 55.0977 101.898 53.3052 102.418 52.912C102.56 52.802 102.702 52.8491 104.8 53.6825C105.841 54.0914 106.346 54.3272 106.519 54.7833C106.63 55.0663 106.598 55.4437 106.488 55.7424C106.425 55.8997 106.314 56.0884 106.062 56.45C105.841 56.7803 105.857 56.7645 105.778 56.8589C105.605 57.079 105.289 57.4564 104.705 57.8967C104.674 57.7395 104.627 57.535 104.532 57.2992C104.5 57.2205 104.358 56.8746 104.153 56.5916C103.791 56.1041 103.38 55.9626 103.081 55.7582Z" fill="url(#paint12_linear)"/>
<path d="M105.446 57.4565C105.446 57.4565 104.831 58.3528 103.711 58.2427C102.702 58.1327 102.654 55.8683 103.317 55.4123C103.538 55.2551 103.979 55.2079 104.326 55.3337C104.531 55.3966 104.594 55.491 104.926 55.5853C105.241 55.6796 105.32 55.6482 105.415 55.7268C105.525 55.8369 105.604 56.0728 105.383 56.7332C105.588 56.5445 105.825 56.4816 105.983 56.5602C106.014 56.5759 106.077 56.6231 106.109 56.7017C106.251 56.969 105.998 57.2835 105.446 57.4565Z" fill="white"/>
<path opacity="0.3" d="M85.4301 78.0712C88.2535 77.4423 89.3735 77.458 90.7616 76.3415C93.0803 74.4861 93.4273 71.6399 94.7681 71.6871C95.399 71.7028 95.9195 72.3475 96.2823 72.9922C95.9353 73.5269 95.6041 74.0458 95.2571 74.5804C95.2571 74.5647 95.257 74.549 95.2413 74.5332C95.1309 74.4703 94.6577 75.2094 94.2475 75.8226C92.1181 78.9361 87.6068 81.7508 83.7265 80.9645C82.6066 80.7444 81.3289 80.1626 80.5718 79.4393C82.5119 78.7788 84.1366 78.3543 85.4301 78.0712Z" fill="url(#paint13_linear)"/>
<path d="M80.8401 80.4929C80.8401 80.4929 79.2469 80.3357 78.3005 79.9269C77.3541 79.518 76.7389 80.0998 76.8336 80.5087C76.9282 80.9175 78.474 81.4679 79.105 81.4836C79.7201 81.4993 80.8401 80.4929 80.8401 80.4929Z" fill="url(#paint14_linear)"/>
<path d="M115.053 88.8584C116.757 89.0157 120.605 89.0786 123.319 86.5784C127.846 82.4114 125.59 74.4705 124.028 71.0583C122.23 67.143 119.359 64.9573 117.608 63.6207C115.447 61.9696 114.123 60.9632 112.529 61.1834C108.412 61.7652 105.573 70.162 107.829 72.5679C108.57 73.3541 109.296 72.9138 111.441 73.59C112.135 73.8101 117.34 75.4612 118.239 79.2822C118.87 81.9554 117.261 85.0846 114.391 87.1759C114.611 87.742 114.832 88.3081 115.053 88.8584Z" fill="url(#paint15_linear)"/>
<path opacity="0.3" d="M95.9354 87.4747C97.8598 86.2639 98.1595 85.0217 100.32 84.1883C103.128 83.1033 104.485 84.487 105.873 83.3706C107.529 82.0497 106.062 79.754 107.308 75.76C107.513 75.0838 109.122 69.9262 112.782 69.2815C114.485 68.9827 116.757 69.6274 117.624 71.0741C118.302 72.2062 117.672 73.0554 118.492 74.2976C119.312 75.5398 120.306 75.2411 121.363 76.2789C123.035 77.9299 123.303 81.4208 121.788 83.3863C121.079 84.2983 120.164 84.6757 118.444 85.3519C117.388 85.7764 116.41 86.028 115.574 86.201C117.687 84.1725 118.776 81.578 118.239 79.298C117.672 76.9236 115.447 75.3826 113.665 74.502C111.898 77.8199 110.447 81.6723 109.958 85.3047C109.643 87.7263 109.737 90.1164 107.923 92.1134C107.576 92.4908 106.472 93.7015 105.4 93.4814C104.106 93.2141 104.232 91.2014 102.513 90.368C101.945 90.0849 101.756 90.2264 99.2952 90.2579C97.7494 90.2736 96.2036 90.3051 94.5315 90.1164C93.1277 89.9591 91.1718 89.739 90.5881 88.9842C93.1119 88.8899 94.8155 88.198 95.9354 87.4747Z" fill="url(#paint16_linear)"/>
<path d="M113.933 90.1949L114.138 89.6131C114.454 88.6853 113.933 87.6947 112.971 87.3959L75.3822 75.98L74.2307 79.8482L111.63 91.327C112.592 91.6415 113.618 91.1226 113.933 90.1949Z" fill="url(#paint17_linear)"/>
<path d="M38.0298 65.5076C40.9006 54.186 52.163 47.3616 63.2992 50.5694C74.6404 53.8244 81.1392 66.0737 77.6847 77.6312C74.325 88.9056 62.7786 94.991 52.0052 91.5159C41.4369 88.0879 35.222 76.5619 38.0298 65.5076ZM74.4196 76.6248C77.2746 66.9543 71.8327 56.7177 62.3685 53.9816C53.0463 51.277 43.5663 56.9535 41.1214 66.4511C38.7238 75.7757 43.9606 85.4934 52.9043 88.3553C61.9584 91.2486 71.6277 86.0909 74.4196 76.6248Z" fill="url(#paint18_linear)"/>
<path opacity="0.3" d="M75.3823 75.9961L80.1775 77.4585C80.5087 78.9837 81.1397 79.8486 81.7864 80.3832C84.1998 82.3802 87.4334 80.1945 91.9446 82.5532C94.2003 83.7325 93.7744 84.4873 95.9038 85.305C99.4056 86.6573 101.014 84.7861 104.122 86.0126C107.261 87.2705 107.576 89.9594 109.359 89.8651C110.116 89.8179 111.094 89.2675 112.198 87.1762L112.987 87.412C113.949 87.7108 114.469 88.7014 114.154 89.6292L113.949 90.211C113.633 91.1387 112.608 91.6419 111.646 91.3589L74.2466 79.88L75.3823 75.9961Z" fill="#D8DEE8"/>
<path d="M37.3047 66.4827C40.1755 55.1611 51.4379 48.3367 62.5741 51.5445C73.9153 54.7995 80.4141 67.0488 76.9596 78.6063C73.5998 89.8807 62.0535 95.9661 51.2801 92.491C40.7118 89.0473 34.4969 77.537 37.3047 66.4827ZM73.6945 77.5842C76.5495 67.9137 71.1076 57.677 61.6434 54.941C52.3212 52.2364 42.8412 57.9129 40.3963 67.4105C37.9829 76.7351 43.2198 86.4528 52.1634 89.3146C61.2333 92.2237 70.9026 87.066 73.6945 77.5842Z" fill="url(#paint19_linear)"/>
<path d="M38.3922 66.8129C41.121 56.136 51.7525 49.7204 62.242 52.7395C72.9207 55.8215 79.0409 67.3475 75.8073 78.2288C72.6526 88.8743 61.7687 94.6294 51.5947 91.3587C41.5942 88.1352 35.7264 77.2539 38.3922 66.8129ZM73.6936 77.5841C76.5487 67.9136 71.1068 57.677 61.6426 54.9409C52.3203 52.2363 42.8404 57.9128 40.3954 67.4104C37.9821 76.735 43.2189 86.4527 52.1626 89.3146C61.2324 92.2236 70.9017 87.066 73.6936 77.5841Z" fill="url(#paint20_linear)"/>
<path d="M114.911 88.5125L114.532 87.569C114.532 87.569 113.917 87.6004 113.397 87.2388C113.113 87.0344 112.624 86.9872 112.482 87.0187C112.34 87.0658 111.804 87.0344 112.419 87.3331C113.034 87.6319 113.034 87.8363 112.766 88.0879C112.513 88.3238 111.535 88.8427 111.188 88.8741C110.841 88.9056 111.472 89.4402 111.819 89.5031C112.166 89.566 112.75 89.6603 113.476 89.2358C113.744 89.0785 114.911 88.5125 114.911 88.5125Z" fill="white"/>
<defs>
<linearGradient id="paint0_linear" x1="70.6594" y1="101.095" x2="70.6594" y2="113.433" gradientUnits="userSpaceOnUse">
<stop stop-color="#444B8C"/>
<stop offset="0.9964" stop-color="#26264F"/>
</linearGradient>
<linearGradient id="paint1_linear" x1="69.909" y1="67.4311" x2="32.0633" y2="65.3349" gradientUnits="userSpaceOnUse">
<stop stop-color="#444B8C"/>
<stop offset="0.3946" stop-color="#383C74"/>
<stop offset="0.9964" stop-color="#26264F"/>
</linearGradient>
<linearGradient id="paint2_linear" x1="5.02553" y1="64.0309" x2="123.92" y2="64.0309" gradientUnits="userSpaceOnUse">
<stop stop-color="#444B8C"/>
<stop offset="0.9964" stop-color="#26264F"/>
</linearGradient>
<linearGradient id="paint3_linear" x1="98.445" y1="19.8761" x2="20.9429" y2="110.617" gradientUnits="userSpaceOnUse">
<stop stop-color="#AA80F9"/>
<stop offset="0.9964" stop-color="#6165D7"/>
</linearGradient>
<linearGradient id="paint4_linear" x1="92.3182" y1="116.903" x2="93.3371" y2="129.524" gradientUnits="userSpaceOnUse">
<stop stop-color="#311944"/>
<stop offset="1" stop-color="#A03976"/>
</linearGradient>
<linearGradient id="paint5_linear" x1="94.9035" y1="123.925" x2="94.6925" y2="110.852" gradientUnits="userSpaceOnUse">
<stop stop-color="#FFC444"/>
<stop offset="0.9964" stop-color="#F36F56"/>
</linearGradient>
<linearGradient id="paint6_linear" x1="111.115" y1="115.386" x2="112.134" y2="128.006" gradientUnits="userSpaceOnUse">
<stop stop-color="#311944"/>
<stop offset="1" stop-color="#A03976"/>
</linearGradient>
<linearGradient id="paint7_linear" x1="112.133" y1="123.646" x2="111.922" y2="110.573" gradientUnits="userSpaceOnUse">
<stop stop-color="#FFC444"/>
<stop offset="0.9964" stop-color="#F36F56"/>
</linearGradient>
<linearGradient id="paint8_linear" x1="91.7229" y1="102.754" x2="101.419" y2="102.731" gradientUnits="userSpaceOnUse">
<stop stop-color="#444B8C"/>
<stop offset="0.9964" stop-color="#3E4177"/>
</linearGradient>
<linearGradient id="paint9_linear" x1="91.7228" y1="102.755" x2="101.419" y2="102.731" gradientUnits="userSpaceOnUse">
<stop stop-color="#444B8C"/>
<stop offset="0.9964" stop-color="#3E4177"/>
</linearGradient>
<linearGradient id="paint10_linear" x1="94.4124" y1="101.795" x2="113.931" y2="101.748" gradientUnits="userSpaceOnUse">
<stop stop-color="#444B8C"/>
<stop offset="0.9964" stop-color="#3E4177"/>
</linearGradient>
<linearGradient id="paint11_linear" x1="110.653" y1="57.7922" x2="88.7608" y2="93.8473" gradientUnits="userSpaceOnUse">
<stop stop-color="#FFC444"/>
<stop offset="0.9964" stop-color="#F36F56"/>
</linearGradient>
<linearGradient id="paint12_linear" x1="104.142" y1="46.9039" x2="104.612" y2="63.2574" gradientUnits="userSpaceOnUse">
<stop stop-color="#444B8C"/>
<stop offset="0.9964" stop-color="#26264F"/>
</linearGradient>
<linearGradient id="paint13_linear" x1="80.5896" y1="76.3851" x2="96.2925" y2="76.3851" gradientUnits="userSpaceOnUse">
<stop stop-color="#FFC444"/>
<stop offset="0.9964" stop-color="#F36F56"/>
</linearGradient>
<linearGradient id="paint14_linear" x1="77.2483" y1="79.6026" x2="80.2639" y2="81.4354" gradientUnits="userSpaceOnUse">
<stop stop-color="#FFC444"/>
<stop offset="0.9964" stop-color="#F36F56"/>
</linearGradient>
<linearGradient id="paint15_linear" x1="122.552" y1="65.0171" x2="100.66" y2="101.072" gradientUnits="userSpaceOnUse">
<stop stop-color="#FFC444"/>
<stop offset="0.9964" stop-color="#F36F56"/>
</linearGradient>
<linearGradient id="paint16_linear" x1="90.5741" y1="81.3504" x2="122.791" y2="81.3504" gradientUnits="userSpaceOnUse">
<stop stop-color="#FFC444"/>
<stop offset="0.9964" stop-color="#F36F56"/>
</linearGradient>
<linearGradient id="paint17_linear" x1="74.2389" y1="83.709" x2="114.231" y2="83.709" gradientUnits="userSpaceOnUse">
<stop stop-color="#444B8C"/>
<stop offset="0.9964" stop-color="#26264F"/>
</linearGradient>
<linearGradient id="paint18_linear" x1="37.3547" y1="71.1247" x2="78.6193" y2="71.1247" gradientUnits="userSpaceOnUse">
<stop stop-color="#444B8C"/>
<stop offset="0.9964" stop-color="#26264F"/>
</linearGradient>
<linearGradient id="paint19_linear" x1="52.4174" y1="94.2446" x2="59.0143" y2="63.8535" gradientUnits="userSpaceOnUse">
<stop stop-color="#444B8C"/>
<stop offset="0.9964" stop-color="#26264F"/>
</linearGradient>
<linearGradient id="paint20_linear" x1="62.2859" y1="49.7829" x2="53.0793" y2="90.5413" gradientUnits="userSpaceOnUse">
<stop stop-color="#444B8C"/>
<stop offset="0.9964" stop-color="#26264F"/>
</linearGradient>
</defs>
</svg>
