<svg width="100" height="115" viewBox="0 0 100 115" fill="none" xmlns="http://www.w3.org/2000/svg">
<path d="M50 100.575C77.6142 100.575 100 78.0604 100 50.2875C100 22.5145 77.6142 0 50 0C22.3858 0 0 22.5145 0 50.2875C0 78.0604 22.3858 100.575 50 100.575Z" fill="#6666B3"/>
<path d="M47.2111 92.3606C72.2949 92.3606 92.6294 71.9093 92.6294 46.6812C92.6294 21.4531 72.2949 1.00177 47.2111 1.00177C22.1272 1.00177 1.79272 21.4531 1.79272 46.6812C1.79272 71.9093 22.1272 92.3606 47.2111 92.3606Z" fill="#8686DD"/>
<path d="M50 84.1464C37.251 84.1464 25.8964 77.635 21.1155 67.5174C20.7171 66.6159 21.0159 65.6141 21.9123 65.2134C22.8088 64.8127 23.8048 65.1133 24.2032 66.0148C28.486 74.9303 38.6454 80.6403 50 80.6403C61.5538 80.6403 71.7131 74.8302 75.996 65.7143C76.3944 64.8127 77.3904 64.5122 78.2868 64.9129C79.1833 65.3136 79.4821 66.3153 79.0837 67.2169C74.3028 77.5349 62.8486 84.1464 50 84.1464Z" fill="#4B4B93"/>
<path d="M43.6255 6.61153C34.6613 6.51135 26.1952 10.0174 19.6215 16.0279C14.4422 20.6359 6.47409 30.6533 8.96413 38.0662C9.36254 39.2683 10.9562 39.8694 11.9522 38.8676C13.9442 36.5636 14.3426 34.0593 15.4382 31.3546C17.0319 27.2474 19.5219 23.4408 22.6096 20.2352C28.3864 14.2248 36.1554 11.3197 44.2231 9.91727C46.0159 9.61675 45.5179 6.61153 43.6255 6.61153Z" fill="#EFF2FE"/>
<path d="M7.07162 51.189C7.07162 51.2892 7.07162 51.2892 7.17122 51.3894C7.56963 52.4913 8.46604 53.3928 9.76087 53.3928C11.0557 53.2927 11.8525 52.5915 12.3505 51.3894C12.3505 51.2892 12.3505 51.2892 12.4501 51.189C13.0477 49.4861 11.4541 47.6829 9.86047 47.6829C8.06764 47.6829 6.37441 49.4861 7.07162 51.189Z" fill="#EFF2FE"/>
<path d="M32.7688 46.0802C35.9593 46.0802 38.5457 43.4789 38.5457 40.2701C38.5457 37.0612 35.9593 34.46 32.7688 34.46C29.5783 34.46 26.9919 37.0612 26.9919 40.2701C26.9919 43.4789 29.5783 46.0802 32.7688 46.0802Z" fill="#4B4B93"/>
<path d="M67.231 46.0802C70.4215 46.0802 73.0079 43.4789 73.0079 40.2701C73.0079 37.0612 70.4215 34.46 67.231 34.46C64.0405 34.46 61.4541 37.0612 61.4541 40.2701C61.4541 43.4789 64.0405 46.0802 67.231 46.0802Z" fill="#4B4B93"/>
<path d="M52.3905 115C75.8241 115 94.8208 113.475 94.8208 111.594C94.8208 109.713 75.8241 108.188 52.3905 108.188C28.9569 108.188 9.96021 109.713 9.96021 111.594C9.96021 113.475 28.9569 115 52.3905 115Z" fill="#DAE0EC"/>
</svg>
