<svg width="1039" height="699" viewBox="0 0 1039 699" fill="none" xmlns="http://www.w3.org/2000/svg">
<path d="M1029.5 593.5C1104.84 630.468 660.477 699 467.727 699C274.977 699 -17.2944 684.5 1.49978 616.5C19.4648 551.5 122.312 664.734 264 580C337.813 535.858 949 554 1029.5 593.5Z" fill="#F7F8FF"/>
<path d="M660.476 261.125C626.063 351.442 472.489 547.564 363.305 327.679C335.452 271.586 426.865 271.637 423.121 170.689C418.612 49.1165 478.365 4.46556 565.327 37.5995C652.288 70.7334 694.888 170.809 660.476 261.125Z" fill="#F9EEEB"/>
<path d="M1034 588.888C1084.5 641.775 686.337 674 493.587 674C300.837 674 -15.1402 674 4.75131 603.562C15.4999 565.5 166.651 647.479 288 562C447.889 449.372 983.499 536 1034 588.888Z" fill="#EFF2FE"/>
<g clip-path="url(#clip0)">
<g opacity="0.963">
<g opacity="0.963">
<g opacity="0.963">
<path opacity="0.963" d="M717.478 538.963C721.763 538.223 730.436 532.818 732.118 530.481C743.314 514.892 766.165 487.069 764.13 466.86C763.782 463.408 748.235 460.844 745.942 457.761C736.425 453.713 732.874 452.9 725.71 444.592C704.563 420.064 748.384 370.503 694.384 355.993C654.828 345.368 622.416 360.247 624.076 299.266C625.736 238.285 573.041 129.497 510.816 174.603C475.102 200.49 514.548 250.63 497.241 289.564C480.796 326.562 497.359 355.756 536.647 375.894C575.934 396.033 556.128 413.621 546.412 448.527C534.741 490.462 598.487 495.127 628.1 494.762C651.946 494.467 712.865 509.859 717.478 538.963Z" fill="url(#paint0_linear)"/>
<g opacity="0.963">
<path opacity="0.39" d="M747.719 500.298L747.968 499.727C714.639 485.17 683.787 465.485 656.527 441.386C630.104 417.903 607.255 390.673 588.708 360.561C552.009 301.273 530.662 230.344 526.976 155.427L526.356 155.458C530.047 230.476 551.425 301.51 588.178 360.887C606.757 391.051 629.646 418.328 656.115 441.852C683.423 465.994 714.331 485.714 747.719 500.298Z" fill="#FCFDFE"/>
<path opacity="0.963" d="M539.515 465.249C576.013 451.519 637.895 448.588 677.462 458.715L677.615 458.112C659.164 453.386 633.892 451.315 608.278 452.427C581.715 453.579 557.216 457.923 539.298 464.671L539.515 465.249Z" fill="#FCFDFE"/>
<path opacity="0.963" d="M722.26 488.805L722.655 488.327C706.294 474.707 697.425 453.331 696.284 424.777C695.451 403.862 698.714 379.638 705.981 352.806L705.382 352.643C698.099 379.541 694.83 403.819 695.665 424.801C696.809 453.54 705.757 475.075 722.26 488.805Z" fill="#FCFDFE"/>
<path opacity="0.39" d="M583.263 352.221L583.683 351.763C554.255 324.601 512.601 318.752 482.836 318.634V319.257C536.558 319.475 567.1 337.304 583.263 352.221Z" fill="#FCFDFE"/>
<path opacity="0.39" d="M546.018 268.329L546.635 268.258C544.425 248.941 545.901 209.455 580.607 162.046L580.107 161.677C568.715 177.075 559.646 194.068 553.191 212.109C546.401 231.668 543.989 250.583 546.018 268.329Z" fill="#FCFDFE"/>
</g>
</g>
<g opacity="0.963">
<path opacity="0.963" d="M674.191 547.575C694.021 547.962 713.901 547.898 733.83 547.384C734.097 547.722 747.465 506.578 731.165 481.094C698.784 431.595 731.807 397.569 743.199 376.037C760.576 345.92 760.04 310.066 727.527 304.09C691.584 296.754 695.02 235.619 710.663 182.103C720.156 156.318 700.484 119.805 676.72 108.234C652.559 95.7767 624.305 108.26 607.665 160.042C585.62 219.533 624.167 264.092 635.597 297.684C646.854 330.667 604.879 348.797 630.925 380.712C652.62 408.828 682.111 431.368 665.302 459.306C648.223 486.851 647.107 511.521 674.191 547.575Z" fill="url(#paint1_linear)"/>
<g opacity="0.963">
<path opacity="0.39" d="M699.747 554.424L700.359 554.519C700.428 554.146 696.714 462.314 679.199 370.526C677.122 355.791 674.686 340.877 672.33 326.451C666.02 287.83 659.496 247.89 659.674 209.236C659.876 166.024 668.606 128.538 686.367 94.6317L685.818 94.3422C668.007 128.338 659.253 165.919 659.05 209.234C658.873 247.94 665.401 287.905 671.715 326.556C674.075 340.972 676.506 355.887 678.584 370.631C696.115 462.48 699.79 553.919 699.747 554.424Z" fill="#FCFDFE"/>
<path opacity="0.39" d="M661.104 251.892L661.628 251.558C644.055 223.887 623.703 185.341 612.771 164.634C604.499 148.964 603.952 148.026 603.513 148.026V148.336L603.351 148.596C603.835 149.036 607.536 156.048 612.224 164.923C623.159 185.64 643.514 224.198 661.104 251.892Z" fill="#FCFDFE"/>
<path opacity="0.39" d="M659.917 217.828C668.991 190.939 683.371 174.675 693.837 165.766C705.339 155.982 715.095 152.457 715.943 152.53C715.899 152.521 715.857 152.499 715.825 152.466L716.25 152.012C716.105 151.875 715.881 151.872 715.359 152.002C712.803 152.642 702.963 156.74 691.667 166.839C677.429 179.558 666.248 197.124 659.327 217.628L659.917 217.828Z" fill="#FCFDFE"/>
<path opacity="0.963" d="M688.133 430.092L688.806 430.124C690.03 403.955 700.584 377.356 720.169 351.06C730.878 336.824 743.126 323.818 756.689 312.279C757.658 311.452 758.056 311.105 758.176 310.959L757.657 310.529C757.569 310.636 756.988 311.134 756.251 311.766C742.651 323.339 730.371 336.383 719.634 350.659C699.962 377.056 689.365 403.786 688.133 430.092Z" fill="#BEB8F2"/>
<path opacity="0.963" d="M618.718 349.784L618.737 349.48L618.595 349.754L618.434 349.413L618.71 349.163C619.142 349.123 667.57 359.901 684.503 401.358L683.93 401.594C667.018 360.189 619.183 349.838 618.718 349.784Z" fill="#FCFDFE"/>
<path opacity="0.963" d="M698.9 539.4L699.566 539.486C701.016 528.243 708.167 509.862 733.995 486.148C735.378 484.879 735.378 484.879 735.383 484.679L734.709 484.665L735.045 484.672L734.76 484.502C734.684 484.601 734.155 485.093 733.541 485.651C707.563 509.502 700.364 528.044 698.9 539.4Z" fill="#BEB8F2"/>
<path opacity="0.963" d="M697.487 517.529L698.154 517.45C697.116 508.558 690.234 490.322 655.823 468.099C655.343 467.788 655.035 467.589 654.928 467.509L654.525 468.05C654.643 468.134 654.958 468.342 655.457 468.664C689.637 490.739 696.461 508.755 697.487 517.529Z" fill="#BEB8F2"/>
</g>
</g>
</g>
<g opacity="0.963">
<path opacity="0.963" d="M473 595.129L1020.74 590.379V604.433C1020.74 608.248 1018.35 611.491 1015.12 612.069L860.233 639.743C858.4 640.071 856.532 640.159 854.676 640.003L478.952 608.45C475.596 608.168 473 604.913 473 600.995V595.129Z" fill="#BFC8D6"/>
<g opacity="0.963">
<path opacity="0.963" d="M674.57 572.607L1022.7 598.317C1024.18 598.421 1025.66 598.213 1027.05 597.706C1028.45 597.2 1029.72 596.406 1030.78 595.376C1031.85 594.347 1032.68 593.104 1033.24 591.73C1033.79 590.355 1034.05 588.879 1034 587.397V327.317C1034.06 324.259 1032.9 321.304 1030.78 319.1C1028.66 316.896 1025.76 315.624 1022.71 315.563H674.57C669.438 315.563 665.289 320.32 665.289 326.188V561.296C665.289 567.164 669.438 572.227 674.57 572.607Z" fill="#BFC8D6"/>
<path opacity="0.963" d="M669.019 572.607L1017.15 598.317C1018.63 598.421 1020.11 598.213 1021.5 597.706C1022.89 597.2 1024.16 596.406 1025.23 595.376C1026.29 594.347 1027.13 593.104 1027.69 591.73C1028.24 590.355 1028.5 588.879 1028.45 587.397V327.317C1028.5 324.259 1027.35 321.303 1025.23 319.1C1023.11 316.896 1020.21 315.624 1017.15 315.563H669.019C663.887 315.563 659.738 320.32 659.738 326.188V561.296C659.738 567.164 663.887 572.227 669.019 572.607Z" fill="white"/>
<path opacity="0.963" d="M679.865 556.032L1004.12 578.365C1005.32 578.44 1006.53 578.262 1007.66 577.841C1008.8 577.421 1009.83 576.767 1010.69 575.923C1011.56 575.079 1012.24 574.062 1012.69 572.939C1013.14 571.816 1013.35 570.611 1013.31 569.402V341.701C1013.35 339.205 1012.42 336.791 1010.69 334.986C1008.97 333.181 1006.61 332.131 1004.12 332.066L679.865 330.663C675.628 330.645 672.207 334.542 672.207 339.37V546.764C672.207 551.591 675.628 555.74 679.865 556.032Z" fill="#D8DEE8"/>
<path opacity="0.963" d="M830.792 322.676C830.747 323.789 831.142 324.875 831.892 325.697C832.642 326.519 833.686 327.011 834.796 327.065C835.346 327.042 835.887 326.91 836.386 326.678C836.885 326.446 837.334 326.117 837.706 325.711C838.079 325.305 838.368 324.83 838.557 324.312C838.746 323.794 838.831 323.244 838.808 322.693C838.854 321.579 838.458 320.492 837.706 319.67C836.955 318.847 835.908 318.356 834.796 318.304C833.687 318.354 832.643 318.842 831.892 319.661C831.141 320.481 830.746 321.565 830.792 322.676Z" fill="white"/>
<path opacity="0.48" d="M1017.15 598.317L670.782 572.737L669.023 572.607C666.658 572.39 664.464 571.279 662.888 569.499C687.813 568.131 703.295 559.256 713.282 550.088C733.338 531.674 729.859 513.516 751.486 501.404C778.461 486.304 799.673 505.437 820.142 486.559C832.553 475.114 826.46 466.579 841.733 449.474C858.646 430.53 869.657 436.898 886.655 419.848C908.147 398.29 897.398 381.517 915.914 366.038C938.372 347.261 962.593 364.64 983.972 346.632C993.193 338.865 998.247 327.573 1000.89 315.564H1017.16C1020.21 315.625 1023.12 316.897 1025.24 319.101C1027.35 321.304 1028.51 324.26 1028.46 327.318V587.399C1028.51 588.881 1028.25 590.357 1027.69 591.732C1027.14 593.107 1026.3 594.349 1025.23 595.379C1024.17 596.408 1022.9 597.202 1021.51 597.708C1020.11 598.214 1018.63 598.422 1017.15 598.317Z" fill="white"/>
</g>
<path opacity="0.963" d="M652.616 571.182L1020.74 598.241L860.233 626.923C858.4 627.252 856.532 627.339 854.676 627.183L473 595.129L646.761 571.365C648.701 571.099 650.664 571.038 652.616 571.182Z" fill="url(#paint2_linear)"/>
<path opacity="0.963" d="M967.028 598.476L660.555 575.61L565.699 588.478L869.536 612.921L967.028 598.476Z" fill="#D8DEE8"/>
</g>
<g opacity="0.963">
<path opacity="0.963" d="M617.834 276.141C617.725 265.452 625.266 256.686 634.805 256.565L974.487 252.217C974.855 252.217 975.209 252.217 975.574 252.232C978.858 252.364 982.063 253.279 984.924 254.9C987.785 256.521 990.219 258.801 992.024 261.552C994.365 265.125 995.584 269.319 995.524 273.592L995.503 289.107L995.181 530.663C995.218 532.088 995.11 533.514 994.859 534.917C994.788 535.258 994.766 535.593 994.678 535.926C994.346 537.238 993.879 538.512 993.285 539.727C992.034 542.257 990.244 544.481 988.041 546.241C985.837 548.002 983.275 549.257 980.535 549.917C978.483 550.423 976.365 550.607 974.257 550.462L716.211 532.098L637.442 526.441C627.98 525.769 620.311 516.653 620.205 506.126L617.977 290.01L617.834 276.141Z" fill="#B7C0CE"/>
<g opacity="0.963">
<path opacity="0.963" d="M625.075 256.179L966.593 251.859C969.41 251.835 972.204 252.373 974.811 253.442C977.417 254.511 979.786 256.089 981.777 258.085C983.769 260.08 985.344 262.452 986.41 265.064C987.476 267.675 988.013 270.473 987.988 273.294L987.703 530.984C987.743 533.724 987.21 536.442 986.137 538.963C985.064 541.484 983.476 543.751 981.475 545.62C979.473 547.488 977.103 548.916 974.518 549.811C971.932 550.706 969.187 551.048 966.461 550.816L627.802 526.771C618.283 526.096 610.516 516.997 610.404 506.439L607.956 275.807C607.838 265.094 615.485 256.3 625.075 256.179Z" fill="white"/>
<path opacity="0.963" d="M966.461 544.044C968.314 544.196 970.179 543.958 971.935 543.346C973.691 542.734 975.3 541.761 976.659 540.49C978.018 539.219 979.096 537.677 979.826 535.964C980.555 534.251 980.919 532.405 980.894 530.542L981.123 273.34C981.137 271.424 980.771 269.523 980.046 267.749C979.321 265.975 978.251 264.362 976.899 263.005C975.547 261.648 973.94 260.574 972.17 259.844C970.401 259.114 968.504 258.743 966.59 258.753L625.138 262.416C618.615 262.482 613.389 268.476 613.465 275.769L615.877 506.796C615.953 513.989 621.263 520.191 627.74 520.639L966.461 544.044Z" fill="#F4F7FA"/>
<path opacity="0.963" d="M625.075 256.178L966.593 251.859C969.41 251.835 972.204 252.373 974.811 253.442C977.417 254.511 979.786 256.089 981.777 258.085C983.769 260.08 985.344 262.452 986.41 265.064C987.476 267.675 988.013 270.473 987.988 273.294L987.97 288.845L608.105 289.716L607.956 275.807C607.838 265.094 615.485 256.3 625.075 256.178Z" fill="#D8DEE8"/>
<path opacity="0.963" d="M949.983 271.467C949.975 272.382 950.148 273.289 950.492 274.136C950.836 274.983 951.344 275.753 951.986 276.403C952.629 277.052 953.393 277.568 954.236 277.92C955.079 278.272 955.982 278.454 956.895 278.455C958.752 278.429 960.523 277.669 961.823 276.341C963.123 275.013 963.847 273.224 963.836 271.365C963.844 270.448 963.671 269.539 963.325 268.69C962.98 267.841 962.469 267.069 961.824 266.419C961.178 265.769 960.41 265.254 959.565 264.903C958.719 264.553 957.812 264.374 956.897 264.378C955.045 264.411 953.281 265.174 951.987 266.501C950.693 267.828 949.973 269.613 949.983 271.467Z" fill="white"/>
<path opacity="0.963" d="M925.915 271.64C925.905 272.545 926.074 273.444 926.412 274.283C926.75 275.123 927.251 275.888 927.885 276.533C928.519 277.178 929.275 277.691 930.108 278.043C930.941 278.394 931.835 278.577 932.739 278.581C934.576 278.55 936.327 277.793 937.609 276.474C938.89 275.155 939.6 273.382 939.582 271.542C939.592 270.634 939.423 269.733 939.083 268.891C938.744 268.049 938.241 267.283 937.604 266.638C936.967 265.992 936.208 265.479 935.371 265.129C934.535 264.779 933.637 264.599 932.731 264.599C930.898 264.637 929.154 265.398 927.878 266.716C926.602 268.035 925.896 269.804 925.915 271.64Z" fill="white"/>
<path opacity="0.963" d="M902.169 271.811C902.157 272.708 902.322 273.598 902.655 274.43C902.987 275.262 903.481 276.021 904.107 276.661C904.733 277.302 905.48 277.812 906.303 278.163C907.127 278.514 908.012 278.698 908.907 278.705C910.725 278.668 912.454 277.912 913.718 276.602C914.982 275.293 915.677 273.536 915.652 271.715C915.665 270.816 915.499 269.923 915.166 269.088C914.832 268.254 914.336 267.494 913.707 266.852C913.078 266.211 912.328 265.701 911.501 265.352C910.674 265.002 909.786 264.821 908.888 264.817C907.074 264.862 905.351 265.621 904.093 266.931C902.835 268.241 902.144 269.994 902.169 271.811Z" fill="white"/>
<path opacity="0.963" d="M629.978 456.498L962.98 472.896L963.027 330.414L628.688 327.29L629.978 456.498Z" fill="url(#paint3_linear)"/>
<path opacity="0.963" d="M630.199 478.689L962.97 497.359V486.502L630.101 468.839L630.199 478.689Z" fill="#D8DEE8"/>
<path opacity="0.963" d="M630.441 502.829L962.963 523.952V513.113L630.343 492.993L630.441 502.829Z" fill="#D8DEE8"/>
<g opacity="0.963">
<path opacity="0.963" d="M780.604 306.168L963.034 306.658V317.637L780.659 316.586L780.604 306.168Z" fill="#D8DEE8"/>
<path opacity="0.963" d="M647.029 305.809L647.123 315.816L628.571 315.71L628.472 305.759L647.029 305.809Z" fill="#D8DEE8"/>
</g>
<g opacity="0.3">
<path opacity="0.3" d="M756.317 389.07C795.635 331.281 864.977 352.107 909.119 287.337C916.428 276.529 922.214 264.762 926.311 252.37L966.592 251.859C969.409 251.835 972.202 252.373 974.809 253.442C977.416 254.511 979.785 256.089 981.776 258.085C983.768 260.08 985.343 262.452 986.409 265.064C987.475 267.675 988.012 270.473 987.987 273.294L987.702 530.984C987.742 533.724 987.209 536.442 986.136 538.963C985.063 541.484 983.475 543.751 981.473 545.62C979.472 547.488 977.102 548.916 974.516 549.811C971.93 550.706 969.186 551.048 966.46 550.816L707.063 532.398C715.06 520.873 721.86 508.559 727.356 495.648C749.896 442.756 732.789 423.651 756.317 389.07Z" fill="white"/>
</g>
</g>
<g opacity="0.963">
<g opacity="0.963">
<path opacity="0.963" d="M862.961 181.778C872.613 169.651 878.172 155.413 878.172 140.184C878.171 95.8996 831.17 60 773.192 60C715.214 60 668.213 95.8996 668.213 140.184C668.213 184.469 715.214 220.368 773.192 220.368C793.553 220.526 813.66 215.837 831.858 206.688C842.929 208.579 860.114 211.77 869.182 213.461C869.79 213.573 870.417 213.522 870.999 213.312C871.581 213.102 872.097 212.741 872.494 212.266C872.891 211.791 873.155 211.218 873.258 210.607C873.362 209.997 873.302 209.369 873.083 208.789L862.961 181.778Z" fill="url(#paint4_linear)"/>
<g opacity="0.3">
<path opacity="0.3" d="M830.639 157.153C807.1 147.227 781.214 168.179 765.03 153.563C748.717 138.829 766.34 109.699 750.716 88.9398C743.266 79.0411 730.75 74.3583 716.432 72.7217C687.425 86.9901 668.213 111.872 668.213 140.184C668.213 184.469 715.214 220.368 773.192 220.368C793.553 220.526 813.66 215.837 831.858 206.689C840.588 208.183 853.132 210.48 862.489 212.215C855.587 176.311 842.89 162.318 830.639 157.153Z" fill="url(#paint5_linear)"/>
</g>
</g>
<g opacity="0.963">
<path opacity="0.963" d="M642.484 199.534C641.865 199.605 642.334 204.369 641.197 204.571C640.479 204.7 639.535 202.919 639.136 201.988C637.815 198.893 638.881 196.676 637.205 195.143C636.953 194.912 636.487 194.486 636.175 194.625C635.2 195.058 636.491 200.605 637.193 203.222C636.491 201.097 634.961 197.096 633.342 195.788C633.12 195.609 632.469 195.079 632.183 195.271C631.929 195.439 632.071 196.099 632.215 196.613C633.041 199.55 635.735 204.072 635.519 204.255C635.269 204.472 630.804 198.776 629.994 199.276C629.286 199.709 631.448 204.732 634.501 208.836C635.524 210.449 636.858 211.842 638.423 212.935L637.259 216.834H642.484V212.204C642.767 211.919 643.027 211.612 643.261 211.285C646.46 206.887 643.272 199.443 642.484 199.534Z" fill="url(#paint6_linear)"/>
<path opacity="0.963" d="M635.114 215.036L645.194 212.965C646.179 224.876 650.699 236.22 658.172 245.537C668.663 258.39 685.377 267.351 702.139 267.062C715.799 266.826 720.625 260.598 725.001 263.886C734.497 271.021 727.798 312.374 704.248 322.108C681.813 331.382 655.193 307.379 643.748 290.704C621.733 258.638 633.256 220.806 635.114 215.036Z" fill="url(#paint7_linear)"/>
<path opacity="0.3" d="M673.997 302.349C667.364 296.717 670.723 288.616 660.982 275.178C651.184 261.661 642.364 262.382 635.306 251.537C633.049 248.03 631.454 244.139 630.599 240.056C629.79 254.722 631.963 273.539 643.748 290.704C655.192 307.374 681.813 331.382 704.246 322.108C715.919 317.282 723.448 304.69 726.922 292.345C694.134 309.365 680.354 307.743 673.997 302.349Z" fill="url(#paint8_linear)"/>
<path opacity="0.963" d="M738.424 586.291C738.704 588.267 738.766 590.266 738.609 592.255C738.232 593.751 725.287 594.832 720.897 594.312C716.507 593.792 723.511 589.289 726.31 588.444C729.11 587.599 738.424 586.291 738.424 586.291Z" fill="url(#paint9_linear)"/>
<path opacity="0.963" d="M731.908 578.841L733.273 587.803C733.273 587.803 736.753 589.372 738.426 587.822L738.609 578.441L731.908 578.841Z" fill="url(#paint10_linear)"/>
<path opacity="0.963" d="M804.884 578.438C804.884 578.438 802.136 580.485 802.869 582.928C803.601 585.372 810.01 595.195 814.578 597.98C819.147 600.766 817.714 594.964 816.385 591.349C815.055 587.734 811.66 579.775 810.333 578.438C809.007 577.102 804.884 578.438 804.884 578.438Z" fill="url(#paint11_linear)"/>
<path opacity="0.963" d="M799.943 568.595C801.27 572.308 802.548 575.36 803.547 577.612C805.757 582.594 806.969 584.466 808.334 586.084C809.526 587.495 812.345 590.507 813.109 590.006C813.874 589.505 811.812 585.836 807.832 575.117C807.258 573.558 805.427 568.595 805.427 568.595H799.943Z" fill="url(#paint12_linear)"/>
<path opacity="0.963" d="M704.798 413.448C703.403 427.205 703.237 441.06 704.301 454.846C706.072 477.751 710.638 492.239 716.362 516.666C719.862 531.591 724.576 553.557 728.842 581.03C731.155 582.369 733.847 582.898 736.494 582.535C738.136 582.287 739.705 581.689 741.096 580.783C752.29 546.468 748.984 525.203 743.581 511.954C741.28 506.307 738.487 501.851 736.995 493.166C735.02 481.68 737.467 475.26 740.943 448.656C743.421 429.694 742.995 426.762 741.345 423.919C734.74 412.553 714.551 412.775 704.798 413.448Z" fill="url(#paint13_linear)"/>
<path opacity="0.963" d="M743.329 417.44C750.186 452.967 756.917 471.628 762.01 482.181C765.681 489.632 768.825 497.332 771.419 505.223C773.764 512.417 775.673 519.745 777.136 527.169C779.496 538.059 785.343 553.96 801.066 574.815C801.885 575.292 802.806 575.566 803.752 575.614C804.698 575.663 805.642 575.486 806.506 575.097C807.457 574.578 808.226 573.778 808.706 572.805C806.651 552.866 804.292 536.109 802.243 523.176C801.813 520.458 799.92 508.597 796.953 492.92C795.792 486.785 794.09 477.795 792.051 468.562C789.513 457.063 785.621 441.42 779.622 422.676L743.329 417.44Z" fill="url(#paint14_linear)"/>
<path opacity="0.963" d="M737.488 276.916C733.594 273.31 726.162 269.153 722.426 259.488C721.303 256.579 717.324 246.271 723.195 238.387C726.678 233.703 733.151 230.525 738.855 231.65C743.73 232.611 744.492 236.022 752.777 242.875C756.001 245.543 761.184 249.832 766.952 252.216C776.834 256.302 782.771 252.452 792.692 252.896C804.878 253.432 819.037 260.255 825.858 270.181C837.967 287.787 820.431 305.659 833.689 326.291C838.034 333.05 840.178 331.535 850.468 344.621C860.758 357.707 865.923 364.274 865.01 372.302C863.737 383.444 851.775 394.087 840.51 394.81C829.506 395.519 822.511 386.833 816.914 390.632C812.927 393.336 815.207 398.594 810.972 404.913C805.513 413.067 794.782 414.686 793.051 414.947C776.966 417.381 755.279 398.46 746.068 376.043C729.455 335.619 758.63 296.52 737.488 276.916Z" fill="url(#paint15_linear)"/>
<path opacity="0.3" d="M743.578 511.96C741.276 506.313 738.484 501.857 736.991 493.172C735.016 481.686 737.463 475.266 740.94 448.661C743.417 429.7 742.992 426.768 741.341 423.925C737.754 417.745 730.153 415.003 722.396 413.883C722.5 414.283 722.603 414.682 722.688 415.065C726.759 433.712 711.225 445.09 718.231 465.588C721.685 475.695 727.198 478.01 728.481 489.733C729.685 500.714 725.32 503.002 726.253 512.983C727.646 527.906 738.216 531.517 740.961 542.943C742.747 550.367 741.243 561.223 728.196 576.936C728.413 578.29 728.629 579.654 728.843 581.029C731.156 582.369 733.849 582.898 736.496 582.535C738.137 582.287 739.706 581.689 741.097 580.783C752.286 546.464 748.98 525.203 743.578 511.96Z" fill="url(#paint16_linear)"/>
<path opacity="0.963" d="M690.482 274.228C691.509 272.628 694.772 268.202 708.619 264.931C720.481 261.825 732.898 261.506 744.903 264C761.084 267.566 775.784 276.016 787.022 288.21C776.774 294.895 768.949 304.708 764.707 316.196C762.856 321.318 757.392 338.826 765.208 355.225C769.714 364.678 777.686 371.768 783.741 377.158C792.825 385.239 797.524 386.481 800.568 393.722C803.883 401.607 800.542 405.451 804.66 410.849C809.082 416.646 814.262 413.951 821.756 419.813C829.433 425.817 826.702 430.758 833.689 437.394C843.835 447.036 857.299 443.904 857.925 448.242C858.464 451.974 848.9 457.037 840.773 459.091C824.681 463.157 810.644 456.332 806.469 454.228C794.907 448.404 796.913 444.633 788.098 440.193C773.344 432.758 763.262 441.032 729.657 441.884C711.46 442.346 702.259 442.45 697.213 436.273C692.612 430.631 695.029 424.442 697.792 397.773C698.679 388.865 700.539 370.217 700.551 359.59C700.558 353.31 698.387 343.047 694.044 322.524C693.791 321.305 691.441 310.217 689.543 295.4C687.833 282.067 688.085 277.971 690.482 274.228Z" fill="url(#paint17_linear)"/>
<g opacity="0.15">
<path opacity="0.15" d="M833.688 437.391C826.701 430.755 829.433 425.811 821.755 419.809C814.261 413.947 809.079 416.641 804.659 410.845C800.541 405.447 803.882 401.602 800.567 393.718C797.523 386.477 792.82 385.235 783.739 377.153C777.685 371.763 769.714 364.67 765.207 355.22C757.386 338.822 762.855 321.307 764.706 316.192C768.95 304.705 776.775 294.893 787.023 288.21C786.603 287.761 786.107 287.241 785.579 286.698C756.899 290.652 740.177 307.277 738.108 312.2C733.328 323.581 740.893 327.761 741.091 360.582C741.184 376.267 739.498 382.463 744.571 389.011C750.374 396.499 757.061 394.182 765.454 403.974C771.901 411.496 770.869 416.263 776.888 419.435C783.362 422.843 787.485 418.871 794.786 420.433C806.984 423.042 809.591 437.152 817.655 444.872C823.752 450.709 835.027 454.791 857.262 450.41C857.749 449.796 857.986 449.02 857.925 448.238C857.298 443.901 843.84 447.031 833.688 437.391Z" fill="url(#paint18_linear)"/>
</g>
<path opacity="0.963" d="M746.761 320.868C743.676 327.345 757.602 342.552 773.133 349.818C776.297 351.3 799.023 361.936 809.235 351.887C817.672 343.582 812.352 326.285 810.454 320.11C801.126 289.791 772.058 274.23 759.872 268.608C750.627 291.429 755.941 301.65 758.036 304.846C760.226 308.183 766.349 315.199 772.859 321.389C777.439 325.741 780.292 327.863 779.905 328.535C779.42 329.373 774.033 327.757 753.131 317.404C750.694 317.785 747.815 318.656 746.761 320.868Z" fill="url(#paint19_linear)"/>
<path opacity="0.963" d="M735.593 246.213C735.593 246.213 737.039 257.814 741.307 260.472C745.574 263.131 752.475 266.6 753.234 267.543C753.994 268.486 726.796 271.418 713.317 264.594C717.759 263.664 718.967 263.322 718.967 263.322C720.956 262.805 722.874 262.044 724.676 261.056C727.175 259.606 729.319 257.617 730.953 255.233L730.902 248.813L735.593 246.213Z" fill="url(#paint20_linear)"/>
<path opacity="0.963" d="M736.247 250.322C736.247 250.322 733.463 254.154 729.101 252.556C725.188 251.128 727.516 241.003 730.62 239.848C731.324 239.66 732.058 239.614 732.779 239.713C733.5 239.813 734.195 240.055 734.821 240.427C735.815 241.226 736.534 242.317 736.877 243.546C737.219 244.775 737.169 246.081 736.732 247.28C737.719 246.993 738.587 247.254 738.804 247.745C739.081 248.366 738.245 249.214 738.055 249.406C737.563 249.893 736.93 250.213 736.247 250.322Z" fill="url(#paint21_linear)"/>
<g opacity="0.963">
<g opacity="0.963">
<path opacity="0.963" d="M744.016 301.356C744.016 302.42 739.666 303.279 734.3 303.279C728.934 303.279 724.583 302.417 724.583 301.356C724.583 300.295 728.933 299.434 734.299 299.434C739.665 299.434 744.016 300.294 744.016 301.356Z" fill="url(#paint22_linear)"/>
<path opacity="0.963" d="M724.591 301.356C724.591 301.356 724.14 303.423 724.14 303.442C724.14 303.461 744.403 303.442 744.403 303.442L744.023 301.356H724.591Z" fill="url(#paint23_linear)"/>
</g>
<path opacity="0.963" d="M734.27 305.454C739.864 305.454 744.399 304.557 744.399 303.45C744.399 302.343 739.864 301.446 734.27 301.446C728.677 301.446 724.142 302.343 724.142 303.45C724.142 304.557 728.677 305.454 734.27 305.454Z" fill="url(#paint24_linear)"/>
<path opacity="0.963" d="M734.27 327.46C738.009 327.46 741.04 326.557 741.04 325.443C741.04 324.329 738.009 323.426 734.27 323.426C730.532 323.426 727.501 324.329 727.501 325.443C727.501 326.557 730.532 327.46 734.27 327.46Z" fill="url(#paint25_linear)"/>
<path opacity="0.963" d="M741.041 323.728H727.501V325.375H741.041V323.728Z" fill="url(#paint26_linear)"/>
<g opacity="0.963">
<path opacity="0.963" d="M741.573 323.888C741.573 325.089 738.304 326.063 734.27 326.063C730.237 326.063 726.969 325.089 726.969 323.888C726.969 322.686 730.238 321.711 734.272 321.711C738.305 321.711 741.573 322.686 741.573 323.888Z" fill="url(#paint27_linear)"/>
<path opacity="0.963" d="M743.431 303.288C743.431 304.233 739.33 304.992 734.272 304.992C729.214 304.992 725.113 304.229 725.113 303.288C725.113 302.348 729.214 301.583 734.272 301.583C739.33 301.583 743.431 302.346 743.431 303.288Z" fill="url(#paint28_linear)"/>
<path opacity="0.963" d="M725.107 303.288L726.969 323.888H741.573L743.435 303.288H725.107Z" fill="url(#paint29_linear)"/>
</g>
<g opacity="0.963">
<path opacity="0.963" d="M726.647 319.744C731.724 320.079 736.818 320.079 741.896 319.744C741.941 319.74 741.984 319.72 742.016 319.688C742.049 319.656 742.068 319.613 742.072 319.567L743.112 308.067C743.116 308.016 743.101 307.965 743.068 307.925C743.035 307.886 742.987 307.861 742.936 307.856C737.165 307.501 731.377 307.505 725.606 307.866C725.555 307.871 725.507 307.896 725.474 307.936C725.442 307.975 725.426 308.027 725.43 308.078L726.468 319.568C726.473 319.614 726.493 319.657 726.526 319.689C726.558 319.721 726.601 319.741 726.647 319.744Z" fill="url(#paint30_linear)"/>
<g opacity="0.963">
<path opacity="0.963" d="M742.036 307.961L741.227 319.526C741.223 319.574 741.231 319.622 741.248 319.667C741.265 319.712 741.291 319.753 741.326 319.787C741.36 319.82 741.401 319.846 741.446 319.862C741.492 319.879 741.54 319.885 741.588 319.881H741.6C741.679 319.875 741.753 319.841 741.809 319.785C741.865 319.729 741.9 319.655 741.906 319.576L742.795 308.016C742.801 307.928 742.772 307.841 742.714 307.775C742.657 307.709 742.575 307.668 742.488 307.661L742.397 307.653C742.353 307.649 742.309 307.654 742.267 307.668C742.225 307.681 742.186 307.703 742.152 307.732C742.119 307.761 742.091 307.796 742.071 307.835C742.051 307.874 742.039 307.917 742.036 307.961Z" fill="url(#paint31_linear)"/>
<path opacity="0.963" d="M740.783 307.887L740.096 319.608C740.093 319.655 740.1 319.703 740.117 319.747C740.134 319.791 740.16 319.832 740.193 319.865C740.227 319.899 740.267 319.925 740.311 319.942C740.356 319.958 740.403 319.965 740.45 319.962H740.461C740.542 319.958 740.619 319.925 740.677 319.868C740.735 319.811 740.77 319.735 740.776 319.654L741.543 307.93C741.546 307.885 741.54 307.841 741.526 307.799C741.511 307.757 741.489 307.719 741.459 307.686C741.43 307.653 741.394 307.626 741.354 307.607C741.314 307.588 741.271 307.577 741.227 307.575H741.136C741.048 307.57 740.961 307.6 740.895 307.658C740.829 307.717 740.789 307.799 740.783 307.887Z" fill="url(#paint32_linear)"/>
<path opacity="0.963" d="M739.53 307.836C739.344 311.78 739.157 315.723 738.971 319.666C738.969 319.712 738.977 319.759 738.994 319.802C739.011 319.846 739.037 319.885 739.071 319.918C739.104 319.951 739.144 319.976 739.188 319.992C739.232 320.008 739.278 320.015 739.325 320.012C739.408 320.009 739.486 319.976 739.546 319.918C739.605 319.86 739.641 319.782 739.646 319.699L740.29 307.875C740.293 307.831 740.287 307.786 740.272 307.744C740.257 307.702 740.234 307.663 740.204 307.63C740.174 307.597 740.137 307.57 740.097 307.551C740.056 307.532 740.012 307.522 739.968 307.521H739.878C739.79 307.517 739.705 307.548 739.639 307.607C739.574 307.666 739.535 307.748 739.53 307.836Z" fill="url(#paint33_linear)"/>
<path opacity="0.963" d="M738.277 307.801L737.848 319.709C737.846 319.755 737.854 319.801 737.871 319.843C737.888 319.885 737.914 319.924 737.946 319.956C737.979 319.988 738.017 320.013 738.06 320.03C738.102 320.046 738.148 320.054 738.193 320.052H738.202C738.286 320.05 738.366 320.016 738.426 319.958C738.486 319.899 738.522 319.82 738.526 319.735L739.037 307.829C739.039 307.785 739.032 307.74 739.016 307.699C739.001 307.657 738.977 307.619 738.947 307.586C738.916 307.554 738.88 307.528 738.839 307.51C738.798 307.492 738.755 307.482 738.71 307.482H738.62C738.533 307.479 738.448 307.511 738.383 307.571C738.319 307.63 738.281 307.713 738.277 307.801Z" fill="url(#paint34_linear)"/>
<path opacity="0.963" d="M737.024 307.778L736.728 319.745C736.727 319.79 736.736 319.835 736.753 319.877C736.77 319.919 736.795 319.956 736.827 319.988C736.859 320.02 736.897 320.045 736.939 320.061C736.981 320.078 737.026 320.085 737.071 320.084H737.082C737.167 320.083 737.249 320.049 737.31 319.989C737.371 319.93 737.407 319.849 737.41 319.764C737.533 315.774 737.66 311.785 737.79 307.798C737.791 307.754 737.783 307.709 737.767 307.667C737.751 307.626 737.726 307.588 737.695 307.556C737.664 307.524 737.626 307.498 737.585 307.481C737.544 307.464 737.5 307.455 737.455 307.456H737.365C737.277 307.453 737.192 307.486 737.128 307.547C737.064 307.607 737.027 307.69 737.024 307.778Z" fill="url(#paint35_linear)"/>
<path opacity="0.963" d="M735.771 307.765L735.61 319.763C735.609 319.807 735.618 319.851 735.635 319.892C735.652 319.933 735.677 319.97 735.709 320.001C735.741 320.033 735.778 320.057 735.82 320.074C735.861 320.09 735.905 320.098 735.949 320.097H735.956C736.043 320.097 736.126 320.063 736.188 320.002C736.25 319.942 736.286 319.86 736.288 319.773C736.369 315.774 736.45 311.776 736.531 307.777C736.532 307.733 736.524 307.689 736.507 307.648C736.491 307.607 736.467 307.57 736.436 307.539C736.405 307.507 736.368 307.482 736.328 307.465C736.287 307.448 736.244 307.439 736.2 307.439H736.11C736.022 307.438 735.937 307.471 735.873 307.532C735.81 307.593 735.773 307.677 735.771 307.765Z" fill="url(#paint36_linear)"/>
<path opacity="0.963" d="M734.518 307.761C734.509 311.766 734.5 315.771 734.491 319.776C734.491 319.819 734.5 319.863 734.517 319.903C734.535 319.944 734.559 319.98 734.591 320.011C734.622 320.042 734.659 320.066 734.699 320.082C734.74 320.099 734.784 320.107 734.827 320.106H734.836C734.923 320.107 735.007 320.073 735.07 320.011C735.132 319.95 735.168 319.867 735.169 319.779C735.206 315.774 735.242 311.77 735.278 307.765C735.278 307.721 735.27 307.678 735.253 307.637C735.236 307.596 735.211 307.559 735.18 307.528C735.149 307.497 735.112 307.472 735.071 307.456C735.031 307.439 734.987 307.431 734.943 307.431H734.854C734.811 307.43 734.767 307.439 734.727 307.455C734.686 307.471 734.649 307.495 734.618 307.526C734.587 307.557 734.562 307.593 734.545 307.633C734.528 307.674 734.519 307.717 734.518 307.761Z" fill="url(#paint37_linear)"/>
<path opacity="0.963" d="M733.265 307.765C733.302 311.77 733.338 315.774 733.374 319.778C733.375 319.866 733.411 319.949 733.474 320.01C733.536 320.071 733.62 320.106 733.708 320.105H733.715C733.759 320.106 733.802 320.098 733.843 320.081C733.883 320.065 733.92 320.041 733.952 320.01C733.983 319.979 734.008 319.942 734.025 319.902C734.042 319.862 734.051 319.818 734.051 319.774L734.025 307.761C734.025 307.717 734.016 307.673 733.998 307.633C733.981 307.593 733.956 307.556 733.925 307.526C733.894 307.495 733.856 307.471 733.816 307.455C733.775 307.438 733.732 307.43 733.688 307.431H733.599C733.555 307.431 733.512 307.439 733.471 307.456C733.431 307.473 733.394 307.497 733.363 307.529C733.332 307.56 733.307 307.597 733.29 307.637C733.274 307.678 733.265 307.721 733.265 307.765Z" fill="url(#paint38_linear)"/>
<path opacity="0.963" d="M732.012 307.777C732.091 311.776 732.172 315.774 732.255 319.773C732.258 319.86 732.294 319.942 732.356 320.002C732.418 320.063 732.501 320.097 732.587 320.097H732.594C732.639 320.098 732.683 320.09 732.724 320.073C732.765 320.057 732.803 320.032 732.835 320.001C732.866 319.97 732.892 319.932 732.909 319.891C732.926 319.85 732.934 319.806 732.934 319.761C732.88 315.763 732.826 311.764 732.772 307.765C732.77 307.677 732.734 307.593 732.67 307.532C732.607 307.471 732.522 307.438 732.434 307.439H732.344C732.3 307.439 732.256 307.448 732.216 307.465C732.175 307.482 732.139 307.507 732.108 307.539C732.077 307.57 732.053 307.607 732.036 307.648C732.02 307.689 732.012 307.733 732.012 307.777Z" fill="url(#paint39_linear)"/>
<path opacity="0.963" d="M730.759 307.798C730.885 311.784 731.011 315.771 731.137 319.758C731.14 319.843 731.176 319.924 731.237 319.983C731.298 320.043 731.38 320.077 731.465 320.078H731.467C731.512 320.08 731.557 320.073 731.599 320.057C731.642 320.041 731.68 320.017 731.713 319.986C731.745 319.955 731.771 319.917 731.789 319.876C731.806 319.834 731.815 319.79 731.815 319.745C731.717 315.754 731.618 311.765 731.519 307.778C731.516 307.69 731.479 307.607 731.415 307.547C731.351 307.487 731.266 307.454 731.178 307.456H731.089C731.044 307.456 731.001 307.465 730.96 307.483C730.92 307.5 730.883 307.526 730.852 307.558C730.822 307.59 730.798 307.627 730.782 307.669C730.766 307.71 730.758 307.754 730.759 307.798Z" fill="url(#paint40_linear)"/>
<path opacity="0.963" d="M729.507 307.83L730.016 319.733C730.02 319.817 730.056 319.897 730.116 319.955C730.177 320.014 730.257 320.048 730.341 320.05H730.349C730.395 320.052 730.44 320.044 730.482 320.027C730.525 320.011 730.564 319.986 730.596 319.954C730.629 319.922 730.654 319.883 730.671 319.841C730.688 319.798 730.696 319.753 730.695 319.707C730.552 315.738 730.409 311.77 730.266 307.802C730.262 307.714 730.224 307.631 730.159 307.572C730.095 307.512 730.01 307.48 729.922 307.483H729.833C729.789 307.484 729.745 307.493 729.704 307.511C729.664 307.529 729.627 307.555 729.597 307.588C729.566 307.62 729.543 307.658 729.527 307.7C729.512 307.742 729.505 307.786 729.507 307.83Z" fill="url(#paint41_linear)"/>
<path opacity="0.963" d="M728.252 307.876L728.892 319.693C728.897 319.776 728.932 319.854 728.992 319.912C729.051 319.969 729.13 320.003 729.213 320.006H729.222C729.269 320.009 729.315 320.002 729.359 319.986C729.403 319.97 729.442 319.945 729.476 319.912C729.509 319.88 729.535 319.84 729.553 319.797C729.57 319.754 729.578 319.707 729.576 319.661L729.012 307.837C729.007 307.749 728.968 307.667 728.903 307.608C728.838 307.549 728.752 307.518 728.664 307.522H728.574C728.53 307.523 728.486 307.533 728.445 307.552C728.404 307.57 728.368 307.597 728.338 307.63C728.308 307.663 728.285 307.702 728.27 307.745C728.255 307.787 728.249 307.832 728.252 307.876Z" fill="url(#paint42_linear)"/>
<path opacity="0.963" d="M726.999 307.932L727.766 319.643C727.772 319.724 727.808 319.8 727.866 319.857C727.924 319.914 728 319.948 728.081 319.952H728.091C728.138 319.955 728.185 319.948 728.23 319.931C728.274 319.914 728.314 319.888 728.348 319.855C728.381 319.821 728.407 319.781 728.424 319.737C728.441 319.692 728.448 319.645 728.445 319.597L727.759 307.889C727.753 307.801 727.713 307.719 727.647 307.661C727.581 307.602 727.494 307.572 727.406 307.577H727.317C727.273 307.579 727.229 307.59 727.189 307.609C727.149 307.628 727.113 307.655 727.083 307.688C727.054 307.721 727.031 307.759 727.017 307.801C727.002 307.843 726.996 307.888 726.999 307.932Z" fill="url(#paint43_linear)"/>
<path opacity="0.963" d="M725.748 308.021C726.043 311.871 726.339 315.721 726.635 319.57C726.641 319.649 726.676 319.723 726.732 319.779C726.788 319.835 726.863 319.869 726.942 319.875H726.953C727.001 319.879 727.05 319.873 727.095 319.857C727.14 319.841 727.182 319.815 727.216 319.781C727.251 319.747 727.277 319.707 727.295 319.661C727.312 319.616 727.319 319.568 727.316 319.52L726.507 307.967C726.504 307.923 726.492 307.88 726.472 307.84C726.452 307.801 726.424 307.766 726.391 307.737C726.357 307.708 726.318 307.687 726.276 307.673C726.234 307.66 726.189 307.655 726.145 307.659L726.056 307.667C726.012 307.67 725.97 307.681 725.931 307.701C725.892 307.72 725.857 307.747 725.828 307.78C725.8 307.813 725.778 307.851 725.764 307.893C725.75 307.934 725.745 307.978 725.748 308.021Z" fill="url(#paint44_linear)"/>
</g>
</g>
<path opacity="0.3" d="M733.708 320.107H733.715C733.762 320.107 733.808 320.097 733.851 320.079C733.894 320.06 733.933 320.032 733.965 319.998H734.578C734.61 320.032 734.649 320.06 734.692 320.079C734.735 320.097 734.782 320.107 734.828 320.107H734.836C734.882 320.106 734.929 320.097 734.972 320.077C735.015 320.058 735.053 320.03 735.084 319.996H735.699C735.731 320.03 735.77 320.057 735.813 320.075C735.856 320.093 735.903 320.103 735.949 320.102H735.956C736.005 320.101 736.052 320.09 736.096 320.07C736.909 317.943 736.907 315.59 736.089 313.465C734.977 310.911 732.509 309.424 730.847 307.568C730.83 307.586 730.815 307.607 730.803 307.628L730.213 307.641C730.182 307.592 730.139 307.552 730.088 307.524C730.037 307.497 729.98 307.483 729.922 307.484H729.833C729.775 307.486 729.718 307.502 729.669 307.532C729.619 307.562 729.578 307.604 729.549 307.654L728.959 307.672C728.927 307.624 728.883 307.584 728.831 307.558C728.78 307.531 728.722 307.519 728.664 307.521H728.574C728.516 307.523 728.46 307.54 728.411 307.57C728.361 307.6 728.32 307.643 728.292 307.693L727.704 307.721C727.67 307.674 727.626 307.636 727.574 307.611C727.522 307.586 727.465 307.575 727.407 307.579L727.318 307.583C727.26 307.586 727.204 307.604 727.156 307.635C727.107 307.666 727.067 307.709 727.039 307.76C726.833 307.771 726.635 307.784 726.449 307.797C726.415 307.75 726.369 307.713 726.316 307.689C726.263 307.665 726.204 307.655 726.146 307.66L726.055 307.667C725.998 307.672 725.944 307.691 725.896 307.723C725.849 307.755 725.81 307.798 725.784 307.849L725.606 307.866C725.555 307.871 725.508 307.895 725.475 307.934C725.442 307.974 725.426 308.024 725.43 308.075L726.468 319.565C726.472 319.611 726.492 319.654 726.525 319.686C726.557 319.719 726.6 319.739 726.645 319.743H726.707C726.735 319.778 726.771 319.808 726.812 319.829C726.852 319.851 726.897 319.863 726.943 319.867H726.954C727 319.871 727.046 319.865 727.09 319.851C727.134 319.836 727.174 319.812 727.208 319.782C727.412 319.797 727.623 319.811 727.843 319.824C727.872 319.859 727.908 319.887 727.949 319.907C727.989 319.928 728.034 319.94 728.079 319.942H728.088C728.135 319.945 728.181 319.938 728.225 319.923C728.268 319.907 728.308 319.882 728.342 319.85L728.97 319.892C729 319.927 729.037 319.956 729.079 319.976C729.121 319.996 729.166 320.008 729.213 320.01H729.221C729.267 320.012 729.314 320.004 729.357 319.987C729.401 319.97 729.44 319.945 729.473 319.912L730.094 319.934C730.124 319.97 730.162 319.998 730.204 320.019C730.246 320.039 730.291 320.051 730.338 320.052H730.346C730.393 320.054 730.44 320.046 730.483 320.028C730.527 320.011 730.566 319.984 730.599 319.951L731.217 319.966C731.248 320.002 731.285 320.031 731.328 320.051C731.37 320.072 731.417 320.083 731.464 320.084H731.471C731.518 320.085 731.564 320.077 731.607 320.059C731.651 320.041 731.69 320.014 731.722 319.98L732.338 319.99C732.369 320.026 732.407 320.055 732.449 320.075C732.492 320.096 732.538 320.107 732.586 320.108H732.593C732.64 320.109 732.686 320.099 732.73 320.081C732.773 320.063 732.812 320.036 732.844 320.001H733.459C733.491 320.035 733.529 320.062 733.572 320.08C733.615 320.098 733.661 320.107 733.708 320.107Z" fill="white"/>
</g>
<path opacity="0.963" d="M750.623 320.361C750.623 320.361 746.898 312.887 744.663 311.392C742.429 309.897 732.379 309.246 729.581 309.571C726.782 309.896 726.572 311.99 728.913 313.559C731.254 315.128 737.88 316.921 739.038 318.267C740.197 319.613 748.387 323.349 750.623 320.361Z" fill="url(#paint45_linear)"/>
</g>
<g opacity="0.963">
<path opacity="0.963" d="M969.348 404.529C969.348 404.529 976.323 417.789 969.348 432.172C962.373 446.555 963.922 408.547 963.922 408.547L969.348 404.529Z" fill="url(#paint46_linear)"/>
<path opacity="0.963" d="M961.597 411.052L972.451 408.55C972.451 408.55 1003.44 337.913 961.597 258.7L929.823 295.741C929.823 295.741 957.722 320.736 961.597 411.052Z" fill="url(#paint47_linear)"/>
<path opacity="0.963" d="M841.236 261.484C828.342 275.714 797.476 309.781 808.673 334.414C810.207 337.793 811.859 341.429 815.489 342.771C826.09 346.692 835.581 324.365 859.411 319.98C871.59 317.739 875.762 322.412 879.857 318.461C892.334 306.392 869.428 253.042 851.838 253.886C848.652 254.039 846.255 255.944 841.236 261.484Z" fill="url(#paint48_linear)"/>
<path opacity="0.963" d="M917.444 587.744C918.572 588.785 918.643 591.215 918.689 592.805C918.741 593.241 918.72 593.684 918.626 594.114C917.942 595.897 914.414 595.872 908.867 596.1C900.1 596.458 897.465 596.988 896.865 595.645C896.3 594.387 897.968 592.486 898.155 592.276C899.164 591.151 900.339 590.791 902.606 590.194C906.796 589.088 909.62 588.516 910.474 588.343C915.81 587.258 916.703 587.061 917.444 587.744Z" fill="url(#paint49_linear)"/>
<path opacity="0.963" d="M911.297 578.972L910.954 588.983C911.76 589.553 912.706 589.89 913.691 589.959C914.675 590.027 915.659 589.824 916.536 589.371L918.257 579.459L911.297 578.972Z" fill="url(#paint50_linear)"/>
<path opacity="0.963" d="M843.597 586.346C845.103 587.847 845.582 590.733 844.423 592.231C843.281 593.702 841.395 592.745 836.215 593.176C830.67 593.639 829.285 595.033 825.453 594.19C823.902 593.849 821.153 592.967 821.146 591.87C821.146 591.1 822.492 590.629 826.993 588.845C833.381 586.312 833.347 586.193 834.714 585.891C838.154 585.129 841.606 584.364 843.597 586.346Z" fill="url(#paint51_linear)"/>
<path opacity="0.963" d="M839.555 577.442L837.26 586.895C838.02 587.525 838.938 587.935 839.914 588.079C840.89 588.222 841.887 588.096 842.796 587.712L846.457 578.46L839.555 577.442Z" fill="url(#paint52_linear)"/>
<path opacity="0.963" d="M853.514 372.385C854.923 407.399 854.229 442.466 851.435 477.397C848.671 511.952 843.857 546.311 837.018 580.293L847.84 582.6C856.415 573.677 867.094 559.783 871.59 540.713C874.38 528.877 872.926 522.949 874.328 508.5C876.56 485.493 882.899 473.169 889.131 454.375C896.984 430.329 901.805 405.395 903.485 380.152L853.514 372.385Z" fill="url(#paint53_linear)"/>
<path opacity="0.3" d="M858.47 518.589C862.445 502.807 870.1 498.636 870.375 483.739C870.569 473.201 866.795 472.339 867.048 462.253C867.43 446.954 876.368 438.934 880.851 429.312C885.593 419.15 887.412 402.825 874.643 375.665L903.488 380.151C901.808 405.395 896.985 430.331 889.131 454.377C882.899 473.165 876.56 485.496 874.328 508.503C872.926 522.952 874.38 528.88 871.59 540.715C867.094 559.785 856.415 573.683 847.84 582.602L845.088 582.015C854.358 570.918 857.63 561.007 858.464 552.964C859.82 539.881 854.463 534.501 858.47 518.589Z" fill="url(#paint54_linear)"/>
<path opacity="0.963" d="M889.573 370.436C893.859 410.081 897.782 450.48 901.342 491.633C904.001 522.509 906.375 553.004 908.464 583.117L919.437 583.885C923.935 574.319 927.228 564.229 929.242 553.849C932.294 538.038 930.904 528.818 931.747 512.554C932.69 494.313 935.257 490.213 938.954 467.068C946.46 420.096 950.212 396.61 938.325 382.76C934.466 378.261 922.525 367.106 889.573 370.436Z" fill="url(#paint55_linear)"/>
<path opacity="0.963" d="M965.523 280.994C966.65 278.016 967.122 274.829 966.905 271.651C966.688 268.474 965.788 265.381 964.267 262.584C962.746 259.787 960.639 257.353 958.091 255.447C955.543 253.542 952.613 252.21 949.504 251.544C916.506 244.539 882.323 245.432 849.735 254.15C848.923 254.368 848.189 254.813 847.621 255.433C847.052 256.054 846.672 256.824 846.525 257.653L841.658 284.928C841.117 298.163 841.309 311.417 842.233 324.631C843.354 340.701 844.454 340.938 847.026 363.625C851.218 400.604 849.46 410.264 856.868 414.707C861.685 417.597 863.429 414.11 888.015 411.67C904.502 410.033 912.916 409.274 921.264 412.109C932.633 415.971 936.435 422.451 941.126 420.344C945.624 418.323 946.199 410.537 946.744 396.948C947.586 375.997 947.537 361.758 947.615 356.661C947.969 333.275 953.88 315.421 961.445 292.55C962.794 288.473 964.165 284.614 965.523 280.994Z" fill="url(#paint56_linear)"/>
<g opacity="0.963">
<path opacity="0.963" d="M898.469 223.891C898.661 228.5 899.315 233.078 900.421 237.557C901.323 241.176 901.884 242.094 902.575 242.826C903.617 243.928 905.154 244.817 913.665 246.457C918.293 247.349 918.88 247.284 919.005 247.737C919.615 249.93 907.561 258.156 894.591 257.021C886.655 256.326 879.254 252.201 879.564 249.813C879.874 247.425 887.809 248.261 889.932 243.825C891.405 240.74 889.351 236.581 887.002 233.17C888.882 229.123 896.585 227.938 898.469 223.891Z" fill="url(#paint57_linear)"/>
<g opacity="0.963">
<path opacity="0.963" d="M883.974 226.995C882.948 225.631 882.365 223.983 882.305 222.276C882.244 220.568 882.709 218.884 883.637 217.45C885.355 214.999 888.238 214.509 889.968 214.214C894.969 213.364 901.429 215.131 903.889 219.659C905.344 222.343 902.817 228.216 902.427 229.267C901.987 230.457 901.098 230.905 900.304 231.829C899.202 233.111 897.472 235.147 894.669 238.549C894.326 237.392 893.882 236.266 893.344 235.185C892.646 233.779 891.771 232.469 890.74 231.286C887.938 228.219 885.861 229.251 883.974 226.995Z" fill="url(#paint58_linear)"/>
<path opacity="0.963" d="M898.768 235.595C897.778 237.274 896.371 238.667 894.683 239.638C892.996 240.61 891.086 241.127 889.139 241.138C883.224 241.069 881.655 227.848 885.272 224.832C886.113 224.271 887.059 223.887 888.053 223.704C889.047 223.521 890.068 223.543 891.053 223.768C892.28 224.043 892.715 224.525 894.729 224.936C896.586 225.315 897.089 225.083 897.67 225.52C898.392 226.068 898.975 227.471 898.024 231.412C898.389 230.879 898.905 230.468 899.506 230.233C900.106 229.997 900.764 229.949 901.393 230.093C901.73 230.254 902.015 230.505 902.219 230.819C903.128 232.296 901.85 234.305 898.768 235.595Z" fill="url(#paint59_linear)"/>
<path opacity="0.963" d="M897.892 224.712C897.62 224.94 898.545 225.958 898.69 227.462C898.692 229.08 898.154 230.653 897.16 231.93C896.166 233.206 894.775 234.113 893.207 234.506C891.438 234.776 890.891 233.727 887.932 233.572C886.49 233.499 885.046 233.659 883.655 234.045C882.901 237.301 883.94 240.453 886.156 241.822C888.541 243.297 891.428 242.177 892.636 241.704C894.598 241.045 896.251 239.687 897.28 237.889C898.578 235.289 897.092 233.84 898.647 232.044C899.432 231.139 900.502 230.708 901.479 228.983C901.688 228.612 901.868 228.225 902.017 227.827C900.404 226.291 898.288 224.381 897.892 224.712Z" fill="url(#paint60_linear)"/>
<path opacity="0.963" d="M885.86 235.124C886.98 235.531 888.183 235.653 889.362 235.478C889.469 235.466 889.589 235.491 889.605 235.547C889.293 235.924 888.884 236.209 888.422 236.371C887.96 236.534 887.463 236.569 886.984 236.471C886.052 236.262 885.286 235.423 885.398 235.193C885.447 235.097 885.657 235.098 885.86 235.124Z" fill="url(#paint61_linear)"/>
</g>
</g>
<path opacity="0.3" d="M866.427 402.57C878.521 397.395 878.453 386.683 889.748 382.214C905.867 375.837 923.67 390.659 926.451 386.553C929.345 382.277 908.08 369.153 910.911 356.226C913.161 345.946 928.007 347.773 935.96 333.705C943.51 320.361 936.196 308.02 942.875 303.383C945.272 301.719 949.496 301.063 957.505 304.602C951.917 322.102 947.908 337.536 947.615 356.667C947.537 361.764 947.586 376.003 946.744 396.954C946.198 410.535 945.625 418.324 941.126 420.35C936.435 422.457 932.632 415.978 921.264 412.116C912.916 409.28 904.502 410.039 888.015 411.676C863.428 414.116 861.684 417.603 856.868 414.713C853.73 412.826 852.239 409.997 851.242 404.562C856.39 405.224 861.622 404.537 866.427 402.57Z" fill="url(#paint62_linear)"/>
<g opacity="0.963">
<path opacity="0.963" d="M852.891 294.909C830.802 304.119 821.327 317.116 817.326 324.023C814.773 328.43 810.601 335.82 813.375 340.659C815.98 345.211 823.511 345.386 827.206 344.818C846 341.904 854.097 305.79 854.867 302.187L852.891 294.909Z" fill="url(#paint63_linear)"/>
<g opacity="0.963">
<g opacity="0.963">
<path opacity="0.963" d="M868.383 275.944C874.783 275.944 879.971 274.917 879.971 273.651C879.971 272.385 874.783 271.359 868.383 271.359C861.983 271.359 856.795 272.385 856.795 273.651C856.795 274.917 861.983 275.944 868.383 275.944Z" fill="url(#paint64_linear)"/>
<path opacity="0.963" d="M856.805 273.651C856.805 273.651 856.265 276.117 856.265 276.133C856.265 276.148 880.432 276.133 880.432 276.133L879.979 273.651H856.805Z" fill="url(#paint65_linear)"/>
</g>
<path opacity="0.963" d="M880.429 276.151C880.429 277.471 875.021 278.54 868.349 278.54C861.677 278.54 856.269 277.471 856.269 276.151C856.269 274.831 861.677 273.76 868.349 273.76C875.021 273.76 880.429 274.831 880.429 276.151Z" fill="url(#paint66_linear)"/>
<path opacity="0.963" d="M876.424 302.379C876.424 303.709 872.809 304.785 868.349 304.785C863.889 304.785 860.274 303.709 860.274 302.379C860.274 301.05 863.889 299.974 868.349 299.974C872.809 299.974 876.424 301.051 876.424 302.379Z" fill="url(#paint67_linear)"/>
<path opacity="0.963" d="M876.424 300.334H860.274V302.299H876.424V300.334Z" fill="url(#paint68_linear)"/>
<g opacity="0.963">
<path opacity="0.963" d="M868.349 303.119C873.159 303.119 877.058 301.957 877.058 300.524C877.058 299.091 873.159 297.929 868.349 297.929C863.539 297.929 859.64 299.091 859.64 300.524C859.64 301.957 863.539 303.119 868.349 303.119Z" fill="white"/>
<path opacity="0.963" d="M879.272 275.957C879.272 277.079 874.382 277.989 868.348 277.989C862.315 277.989 857.425 277.079 857.425 275.957C857.425 274.834 862.316 273.923 868.349 273.923C874.383 273.923 879.272 274.833 879.272 275.957Z" fill="white"/>
<path opacity="0.963" d="M857.419 275.957L859.64 300.106H877.059L879.28 275.957H857.419Z" fill="white"/>
</g>
<g opacity="0.963">
<path opacity="0.963" d="M859.254 295.586C865.31 295.984 871.386 295.984 877.442 295.586C877.496 295.58 877.546 295.556 877.585 295.518C877.623 295.48 877.647 295.429 877.653 295.375L878.893 281.663C878.898 281.603 878.879 281.543 878.84 281.496C878.802 281.448 878.747 281.418 878.686 281.411C871.802 280.986 864.897 280.988 858.013 281.418C857.952 281.425 857.896 281.455 857.857 281.502C857.818 281.549 857.799 281.61 857.804 281.671L859.043 295.378C859.049 295.431 859.073 295.481 859.112 295.519C859.15 295.557 859.2 295.58 859.254 295.586Z" fill="url(#paint69_linear)"/>
<g opacity="0.963">
<path opacity="0.963" d="M877.609 281.532L876.644 295.325C876.641 295.382 876.65 295.439 876.67 295.492C876.691 295.546 876.723 295.594 876.763 295.634C876.804 295.674 876.853 295.704 876.907 295.724C876.961 295.743 877.018 295.75 877.075 295.746H877.09C877.184 295.739 877.273 295.699 877.34 295.632C877.408 295.566 877.449 295.477 877.457 295.383L878.514 281.597C878.522 281.492 878.487 281.389 878.419 281.309C878.35 281.23 878.253 281.181 878.148 281.174L878.041 281.164C877.989 281.16 877.936 281.165 877.885 281.182C877.835 281.198 877.789 281.223 877.749 281.258C877.708 281.292 877.675 281.334 877.652 281.381C877.628 281.428 877.613 281.479 877.609 281.532Z" fill="url(#paint70_linear)"/>
<path opacity="0.963" d="M876.115 281.441L875.297 295.42C875.294 295.476 875.303 295.532 875.324 295.584C875.344 295.636 875.376 295.683 875.415 295.723C875.455 295.762 875.503 295.792 875.556 295.812C875.608 295.831 875.664 295.839 875.72 295.836H875.732C875.829 295.831 875.921 295.791 875.99 295.723C876.06 295.655 876.102 295.564 876.108 295.467L877.022 281.495C877.025 281.443 877.017 281.39 877 281.341C876.982 281.291 876.955 281.245 876.92 281.206C876.885 281.167 876.843 281.136 876.795 281.113C876.748 281.091 876.696 281.078 876.644 281.076L876.537 281.07C876.432 281.063 876.329 281.099 876.25 281.168C876.171 281.238 876.122 281.336 876.115 281.441Z" fill="url(#paint71_linear)"/>
<path opacity="0.963" d="M874.621 281.38C874.398 286.083 874.175 290.787 873.953 295.49C873.951 295.546 873.96 295.601 873.981 295.652C874.001 295.703 874.032 295.75 874.071 295.788C874.11 295.827 874.157 295.857 874.208 295.877C874.259 295.897 874.314 295.906 874.369 295.903H874.38C874.479 295.9 874.573 295.859 874.643 295.79C874.714 295.721 874.756 295.628 874.762 295.529L875.527 281.424C875.53 281.371 875.522 281.318 875.504 281.268C875.486 281.218 875.459 281.172 875.423 281.133C875.387 281.094 875.344 281.062 875.296 281.04C875.247 281.018 875.195 281.006 875.142 281.005H875.035C874.93 281 874.828 281.037 874.751 281.107C874.673 281.178 874.626 281.276 874.621 281.38Z" fill="url(#paint72_linear)"/>
<path opacity="0.963" d="M873.127 281.339L872.615 295.542C872.614 295.597 872.624 295.651 872.644 295.701C872.664 295.752 872.695 295.798 872.733 295.836C872.772 295.874 872.818 295.904 872.869 295.923C872.92 295.943 872.974 295.952 873.028 295.95H873.037C873.138 295.948 873.233 295.908 873.305 295.838C873.377 295.768 873.419 295.673 873.424 295.573C873.627 290.839 873.83 286.106 874.031 281.372C874.033 281.319 874.025 281.267 874.006 281.217C873.988 281.168 873.96 281.122 873.924 281.084C873.888 281.045 873.845 281.014 873.797 280.993C873.748 280.971 873.697 280.96 873.644 280.958H873.538C873.433 280.955 873.331 280.993 873.254 281.064C873.177 281.135 873.132 281.234 873.127 281.339Z" fill="url(#paint73_linear)"/>
<path opacity="0.963" d="M871.632 281.313L871.278 295.58C871.278 295.634 871.288 295.687 871.308 295.737C871.328 295.787 871.359 295.832 871.397 295.87C871.435 295.908 871.481 295.937 871.531 295.957C871.581 295.977 871.634 295.986 871.688 295.984H871.696C871.798 295.983 871.895 295.943 871.968 295.872C872.041 295.801 872.083 295.704 872.088 295.603C872.238 290.847 872.388 286.092 872.537 281.337C872.539 281.284 872.53 281.231 872.511 281.182C872.492 281.133 872.463 281.088 872.427 281.05C872.391 281.012 872.347 280.981 872.299 280.961C872.25 280.94 872.198 280.928 872.145 280.928H872.038C871.933 280.926 871.832 280.965 871.756 281.037C871.68 281.109 871.636 281.208 871.632 281.313Z" fill="url(#paint74_linear)"/>
<path opacity="0.963" d="M870.137 281.296C870.073 286.066 870.008 290.836 869.944 295.606C869.944 295.659 869.954 295.712 869.975 295.761C869.995 295.809 870.025 295.854 870.062 295.891C870.1 295.928 870.145 295.958 870.194 295.977C870.243 295.997 870.296 296.006 870.349 296.006H870.357C870.46 296.005 870.559 295.964 870.632 295.892C870.706 295.82 870.749 295.722 870.752 295.619C870.849 290.853 870.946 286.084 871.044 281.311C871.044 281.258 871.035 281.206 871.016 281.158C870.996 281.109 870.968 281.065 870.931 281.028C870.895 280.99 870.851 280.96 870.803 280.94C870.756 280.919 870.704 280.908 870.652 280.908H870.541C870.436 280.906 870.335 280.946 870.259 281.019C870.184 281.092 870.14 281.191 870.137 281.296Z" fill="url(#paint75_linear)"/>
<path opacity="0.963" d="M868.643 281.292C868.632 286.071 868.621 290.847 868.611 295.62C868.611 295.673 868.622 295.724 868.642 295.773C868.662 295.821 868.692 295.865 868.729 295.901C868.767 295.938 868.811 295.967 868.859 295.986C868.908 296.006 868.96 296.016 869.012 296.015H869.021C869.126 296.015 869.226 295.975 869.301 295.901C869.375 295.828 869.418 295.729 869.42 295.624L869.555 281.296C869.555 281.244 869.544 281.191 869.524 281.142C869.503 281.094 869.473 281.049 869.436 281.012C869.398 280.975 869.353 280.946 869.304 280.927C869.255 280.907 869.203 280.897 869.15 280.898H869.044C868.939 280.897 868.837 280.938 868.762 281.012C868.687 281.086 868.644 281.186 868.643 281.292Z" fill="url(#paint76_linear)"/>
<path opacity="0.963" d="M867.149 281.296C867.192 286.073 867.236 290.849 867.279 295.625C867.28 295.73 867.323 295.829 867.397 295.902C867.472 295.976 867.572 296.017 867.676 296.016H867.686C867.738 296.017 867.79 296.007 867.838 295.988C867.887 295.968 867.931 295.939 867.968 295.902C868.006 295.866 868.035 295.822 868.056 295.774C868.076 295.726 868.087 295.674 868.087 295.622C868.077 290.848 868.066 286.071 868.055 281.292C868.054 281.186 868.011 281.086 867.936 281.012C867.861 280.938 867.759 280.897 867.654 280.898H867.548C867.495 280.898 867.444 280.908 867.395 280.928C867.347 280.948 867.303 280.977 867.266 281.014C867.228 281.051 867.199 281.095 867.179 281.144C867.159 281.192 867.149 281.244 867.149 281.296Z" fill="url(#paint77_linear)"/>
<path opacity="0.963" d="M865.654 281.311C865.751 286.084 865.848 290.853 865.945 295.618C865.947 295.721 865.99 295.819 866.064 295.891C866.138 295.964 866.237 296.004 866.34 296.004H866.348C866.401 296.005 866.454 295.996 866.503 295.976C866.552 295.957 866.597 295.928 866.635 295.89C866.673 295.853 866.703 295.809 866.723 295.76C866.744 295.711 866.754 295.658 866.754 295.605C866.689 290.836 866.625 286.066 866.56 281.296C866.558 281.191 866.514 281.091 866.438 281.018C866.362 280.946 866.261 280.906 866.156 280.908H866.051C865.998 280.908 865.946 280.918 865.898 280.938C865.849 280.959 865.805 280.989 865.768 281.026C865.731 281.064 865.702 281.108 865.683 281.157C865.663 281.206 865.654 281.258 865.654 281.311Z" fill="url(#paint78_linear)"/>
<path opacity="0.963" d="M864.159 281.338C864.31 286.092 864.46 290.847 864.61 295.601C864.614 295.703 864.657 295.799 864.73 295.87C864.803 295.941 864.9 295.982 865.002 295.983H865.01C865.064 295.985 865.117 295.976 865.167 295.956C865.218 295.937 865.263 295.907 865.301 295.869C865.34 295.831 865.37 295.786 865.39 295.736C865.411 295.686 865.421 295.633 865.42 295.579C865.302 290.824 865.184 286.069 865.066 281.314C865.062 281.209 865.017 281.11 864.941 281.038C864.865 280.965 864.763 280.926 864.659 280.929H864.552C864.5 280.929 864.447 280.94 864.399 280.961C864.351 280.982 864.307 281.013 864.27 281.051C864.234 281.089 864.205 281.134 864.186 281.183C864.167 281.232 864.158 281.285 864.159 281.338Z" fill="url(#paint79_linear)"/>
<path opacity="0.963" d="M862.665 281.374L863.273 295.571C863.278 295.671 863.321 295.765 863.393 295.835C863.465 295.905 863.56 295.945 863.66 295.948H863.67C863.724 295.95 863.778 295.941 863.829 295.921C863.88 295.901 863.926 295.871 863.964 295.833C864.003 295.795 864.034 295.749 864.054 295.699C864.074 295.648 864.084 295.594 864.083 295.54L863.571 281.341C863.566 281.236 863.52 281.138 863.444 281.066C863.367 280.995 863.265 280.957 863.16 280.961H863.054C863.001 280.962 862.949 280.973 862.901 280.995C862.852 281.016 862.809 281.047 862.772 281.085C862.736 281.124 862.708 281.169 862.689 281.219C862.671 281.269 862.662 281.321 862.665 281.374Z" fill="url(#paint80_linear)"/>
<path opacity="0.963" d="M861.17 281.426L861.933 295.526C861.939 295.624 861.982 295.717 862.052 295.786C862.123 295.855 862.217 295.896 862.315 295.899H862.326C862.381 295.902 862.436 295.893 862.488 295.874C862.539 295.854 862.586 295.824 862.625 295.785C862.665 295.746 862.696 295.7 862.716 295.648C862.736 295.597 862.746 295.542 862.744 295.487L862.076 281.383C862.07 281.278 862.023 281.18 861.946 281.11C861.868 281.039 861.766 281.002 861.662 281.007H861.554C861.501 281.008 861.449 281.021 861.401 281.043C861.353 281.065 861.309 281.096 861.274 281.135C861.238 281.174 861.21 281.22 861.192 281.27C861.174 281.32 861.167 281.373 861.17 281.426Z" fill="url(#paint81_linear)"/>
<path opacity="0.963" d="M859.676 281.499L860.591 295.464C860.597 295.561 860.639 295.652 860.708 295.72C860.777 295.788 860.869 295.828 860.966 295.833H860.974C861.03 295.837 861.086 295.829 861.138 295.809C861.191 295.79 861.239 295.759 861.279 295.72C861.319 295.681 861.35 295.634 861.37 295.581C861.391 295.529 861.4 295.473 861.398 295.417L860.583 281.444C860.576 281.339 860.528 281.241 860.449 281.172C860.37 281.103 860.267 281.067 860.162 281.073H860.055C860.002 281.075 859.95 281.088 859.902 281.111C859.854 281.134 859.811 281.166 859.776 281.206C859.74 281.245 859.713 281.292 859.696 281.342C859.679 281.392 859.672 281.446 859.676 281.499Z" fill="url(#paint82_linear)"/>
<path opacity="0.963" d="M858.183 281.602L859.244 295.377C859.252 295.471 859.293 295.559 859.36 295.626C859.428 295.692 859.516 295.732 859.61 295.739H859.624C859.681 295.744 859.738 295.737 859.792 295.718C859.846 295.699 859.895 295.668 859.936 295.629C859.977 295.589 860.009 295.541 860.03 295.487C860.05 295.434 860.059 295.377 860.056 295.32L859.089 281.537C859.085 281.484 859.07 281.433 859.046 281.386C859.022 281.339 858.989 281.297 858.948 281.262C858.908 281.228 858.861 281.202 858.811 281.187C858.76 281.171 858.707 281.165 858.654 281.17L858.549 281.18C858.445 281.188 858.348 281.236 858.279 281.315C858.21 281.394 858.175 281.498 858.183 281.602Z" fill="url(#paint83_linear)"/>
</g>
</g>
<path opacity="0.3" d="M867.676 296.015H867.686C867.742 296.015 867.797 296.004 867.848 295.982C867.899 295.959 867.945 295.926 867.983 295.885H868.715C868.752 295.926 868.798 295.959 868.85 295.982C868.901 296.004 868.956 296.015 869.012 296.015H869.02C869.076 296.015 869.131 296.003 869.182 295.98C869.233 295.958 869.279 295.924 869.316 295.883H870.049C870.087 295.924 870.133 295.956 870.185 295.978C870.236 296 870.292 296.011 870.348 296.01H870.356C870.413 296.01 870.47 295.997 870.522 295.973C871.493 293.436 871.49 290.629 870.514 288.095C869.191 285.048 866.25 283.275 864.264 281.059C864.245 281.081 864.227 281.104 864.213 281.13L863.512 281.145C863.474 281.087 863.422 281.039 863.361 281.006C863.3 280.974 863.231 280.958 863.161 280.96H863.055C862.986 280.962 862.919 280.981 862.859 281.017C862.8 281.052 862.751 281.103 862.717 281.163L862.015 281.188C861.976 281.13 861.924 281.082 861.861 281.051C861.799 281.019 861.73 281.004 861.661 281.007H861.553C861.485 281.011 861.42 281.032 861.362 281.069C861.305 281.106 861.258 281.156 861.225 281.216L860.517 281.247C860.478 281.191 860.424 281.146 860.362 281.116C860.3 281.087 860.232 281.074 860.164 281.078H860.055C859.986 281.082 859.92 281.103 859.862 281.14C859.804 281.176 859.756 281.228 859.723 281.288C859.476 281.302 859.241 281.317 859.016 281.333C858.975 281.278 858.922 281.234 858.86 281.206C858.798 281.177 858.73 281.165 858.662 281.17L858.55 281.178C858.481 281.184 858.416 281.207 858.359 281.245C858.302 281.283 858.256 281.335 858.225 281.396L858.013 281.416C857.952 281.423 857.896 281.453 857.857 281.5C857.818 281.547 857.799 281.608 857.804 281.669L859.043 295.376C859.048 295.43 859.072 295.481 859.111 295.519C859.149 295.558 859.2 295.582 859.254 295.587L859.327 295.593C859.361 295.636 859.404 295.671 859.452 295.696C859.5 295.721 859.552 295.737 859.607 295.741H859.621C859.675 295.746 859.73 295.739 859.782 295.721C859.834 295.704 859.882 295.676 859.923 295.639C860.166 295.658 860.418 295.674 860.68 295.69C860.715 295.733 860.759 295.767 860.808 295.792C860.857 295.817 860.911 295.831 860.966 295.834H860.978C861.033 295.838 861.088 295.83 861.14 295.811C861.192 295.792 861.24 295.763 861.28 295.724L862.026 295.761C862.062 295.803 862.107 295.837 862.156 295.862C862.206 295.886 862.26 295.899 862.315 295.902H862.326C862.382 295.904 862.437 295.895 862.489 295.874C862.541 295.854 862.588 295.823 862.627 295.784L863.368 295.81C863.404 295.852 863.449 295.886 863.5 295.909C863.55 295.933 863.605 295.946 863.66 295.948H863.67C863.725 295.95 863.781 295.941 863.833 295.92C863.884 295.9 863.931 295.869 863.971 295.83L864.708 295.849C864.745 295.891 864.79 295.925 864.841 295.948C864.891 295.972 864.946 295.984 865.002 295.986H865.01C865.066 295.987 865.121 295.977 865.173 295.955C865.225 295.934 865.271 295.902 865.31 295.862L866.044 295.873C866.081 295.915 866.127 295.949 866.178 295.972C866.228 295.995 866.284 296.007 866.34 296.008H866.348C866.404 296.009 866.459 295.998 866.511 295.976C866.562 295.954 866.608 295.921 866.647 295.88H867.379C867.417 295.922 867.462 295.956 867.514 295.979C867.565 296.003 867.62 296.015 867.676 296.015Z" fill="white"/>
</g>
<path opacity="0.963" d="M851.838 295.668C851.838 295.668 854.867 286.554 860.168 285.033C865.469 283.512 870.777 284.273 871.91 285.793C873.042 287.312 870.479 289.958 865.324 291.674C860.169 293.39 858.654 299.473 854.867 300.228C851.08 300.983 851.838 295.668 851.838 295.668Z" fill="url(#paint84_linear)"/>
</g>
</g>
</g>
</g>
</g>
<path d="M601.456 129.141C596.72 123.457 594.088 116.311 594.004 108.908C594.004 87.3658 617.028 69.9022 645.429 69.9022C673.83 69.9022 696.853 87.3658 696.853 108.908C696.853 130.451 673.829 147.913 645.429 147.913C635.46 147.991 625.614 145.711 616.691 141.258C611.264 142.18 602.85 143.729 598.405 144.553C598.108 144.609 597.802 144.585 597.517 144.484C597.233 144.382 596.98 144.207 596.786 143.976C596.591 143.745 596.462 143.466 596.41 143.168C596.359 142.87 596.388 142.564 596.493 142.28L601.456 129.141Z" fill="url(#paint85_linear)"/>
<path d="M617.287 117.162C628.821 112.334 641.499 122.529 649.426 115.416C657.418 108.249 648.784 94.0787 656.438 83.9839C660.086 79.1627 666.221 76.8869 673.233 76.0905C687.443 83.0314 696.853 95.1351 696.853 108.907C696.853 130.45 673.829 147.913 645.428 147.913C635.459 147.991 625.613 145.711 616.69 141.258C612.412 141.986 606.269 143.103 601.686 143.947C605.067 126.482 611.287 119.674 617.287 117.162Z" fill="url(#paint86_linear)"/>
<path d="M578.13 347.026C577.711 346.965 577.211 350.19 576.427 350.127C575.932 350.088 575.614 348.753 575.512 348.07C575.168 345.803 576.245 344.525 575.404 343.225C575.278 343.03 575.05 342.67 574.814 342.708C574.099 342.826 574.006 346.706 574.024 348.552C573.924 347.031 573.597 344.128 572.754 342.988C572.636 342.832 572.3 342.373 572.08 342.448C571.884 342.515 571.866 342.977 571.873 343.339C571.917 345.418 572.921 348.863 572.749 348.947C572.547 349.045 570.579 344.523 569.961 344.714C569.425 344.88 569.99 348.562 571.301 351.791C571.513 352.313 571.728 352.838 571.962 353.327C572.279 353.978 572.431 354.698 572.402 355.423C572.373 356.147 572.164 356.852 571.795 357.476L571.755 357.542L575.188 358.438L575.974 355.385C576.209 355.245 576.431 355.087 576.641 354.912C579.496 352.557 578.664 347.102 578.13 347.026Z" fill="url(#paint87_linear)"/>
<path d="M570.306 355.739H577.927C575.855 357.723 562.83 370.615 563.6 390.68C564.12 401.674 568.522 412.126 576.02 420.172C570.443 431.293 563.261 435.5 559.893 437.091C558.688 437.659 547.874 442.917 546.713 438.903C546.394 437.803 522.224 389.718 570.306 355.739Z" fill="url(#paint88_linear)"/>
<path d="M683.349 410.265C683.537 410.648 680.648 412.132 680.952 412.865C681.143 413.327 682.503 413.212 683.18 413.101C685.428 412.718 686.3 411.288 687.789 411.683C688.012 411.742 688.426 411.853 688.461 412.085C688.572 412.805 684.938 414.105 683.19 414.664C684.655 414.286 687.498 413.692 688.839 414.142C689.022 414.203 689.561 414.384 689.558 414.615C689.558 414.823 689.125 414.984 688.782 415.087C686.805 415.695 683.237 415.809 683.215 416.001C683.184 416.225 688.068 416.695 688.081 417.345C688.092 417.909 684.439 418.518 680.981 418.273C680.422 418.234 679.859 418.191 679.329 418.121C678.613 418.021 677.884 418.102 677.207 418.358C676.531 418.614 675.93 419.036 675.459 419.586L675.408 419.645L673.492 416.646L676.13 414.937C676.188 414.67 676.267 414.407 676.366 414.153C677.7 410.689 683.111 409.782 683.349 410.265Z" fill="url(#paint89_linear)"/>
<path d="M600.108 646.683C600.108 646.683 614.522 653.274 614.757 654.327C614.991 655.38 605.487 653.973 601.608 654.126C597.729 654.28 594.536 653.123 594.886 651.47C595.237 649.817 596.596 645.656 596.596 645.656L600.108 646.683Z" fill="url(#paint90_linear)"/>
<path d="M600.635 641.332L599.759 647.862C598.516 648.313 597.147 648.26 595.943 647.713L595.29 640.551L600.635 641.332Z" fill="url(#paint91_linear)"/>
<path d="M532.758 641.49L531.08 644.198C530.848 644.572 530.694 644.989 530.628 645.424C530.562 645.86 530.586 646.304 530.697 646.73C531.287 648.982 532.454 653.371 532.964 654.516C533.661 656.075 542.993 656.998 542.993 656.998C542.993 656.998 543.825 655.816 541.888 654.398C539.952 652.98 538.703 652.752 538.023 650.652C537.447 648.005 537.066 645.32 536.884 642.617L532.758 641.49Z" fill="url(#paint92_linear)"/>
<path d="M539.734 634.606C539.122 635.098 536.126 644.247 536.126 644.247C536.126 644.247 535.155 645.495 533.315 643.654C531.474 641.813 532.482 642.827 532.482 642.827L532.827 633.829L539.734 634.606Z" fill="url(#paint93_linear)"/>
<path d="M608.566 510.138C609.326 529.617 609.358 550.781 608.244 573.389C606.99 598.849 604.469 622.38 601.294 643.71C600.114 643.748 598.873 643.755 597.576 643.717C596.702 643.693 595.854 643.651 595.034 643.593C592.938 637.967 591.155 632.229 589.693 626.406C588.038 619.781 586.792 613.061 585.964 606.283C583.188 584.219 586.436 582.295 584.194 565.943C582.199 551.462 579.357 550.896 576.032 530.337C572.412 508.027 575.102 504.681 576.41 503.472C581.979 498.325 595.06 501.83 608.566 510.138Z" fill="url(#paint94_linear)"/>
<path opacity="0.3" d="M576.411 503.472C581.72 498.562 593.872 501.535 606.699 509.026C591.939 525.071 590.33 535.482 592.1 542.23C594.105 549.864 600.179 552.063 600.157 560.41C600.128 570.668 590.928 573.384 591.124 584.239C591.254 591.416 595.296 591.342 596.25 600.206C597.381 610.696 592.099 614.309 593.809 622.067C594.545 625.406 596.641 629.769 602.628 634.263C602.198 637.453 601.755 640.605 601.294 643.699C600.114 643.737 598.873 643.743 597.576 643.706C596.701 643.682 595.853 643.639 595.034 643.588C592.938 637.962 591.155 632.225 589.693 626.401C588.038 619.778 586.793 613.058 585.965 606.281C583.19 584.219 586.437 582.294 584.195 565.942C582.194 551.461 579.357 550.895 576.026 530.336C572.414 508.027 575.104 504.681 576.411 503.472Z" fill="url(#paint95_linear)"/>
<path d="M599.424 509.809C572.75 549.075 552.625 592.42 539.833 638.151C538.507 638.772 537.031 639.002 535.579 638.816C533.711 638.544 532.002 637.613 530.761 636.19C529.12 625.923 528.749 615.493 529.656 605.135C530.238 597.216 531.694 589.387 533.997 581.789C537.504 570.402 539.917 569.761 544.497 557.714C549.248 545.209 548.098 542.088 552.647 526.44C555.383 517.065 558.777 507.896 562.804 499.001L599.424 509.809Z" fill="url(#paint96_linear)"/>
<path d="M675.154 414.282L676.452 422.144C667.482 432.247 656.406 440.253 644.007 445.596C627.482 452.602 596.596 459.658 587.141 446.38C581.386 438.281 577.889 419.62 585.082 415.596C591.997 411.728 606.224 423.359 618.42 426.965C630.372 430.499 648.457 430.444 675.154 414.282Z" fill="url(#paint97_linear)"/>
<path d="M683.349 410.265C683.537 410.648 680.648 412.132 680.952 412.865C681.143 413.327 682.503 413.212 683.18 413.101C685.428 412.718 686.3 411.288 687.789 411.683C688.012 411.742 688.426 411.853 688.461 412.085C688.572 412.805 684.938 414.105 683.19 414.664C684.655 414.286 687.498 413.692 688.839 414.142C689.022 414.203 689.561 414.384 689.558 414.615C689.558 414.823 689.125 414.984 688.782 415.087C686.805 415.695 683.237 415.809 683.215 416.001C683.184 416.225 688.068 416.695 688.081 417.345C688.092 417.909 684.439 418.518 680.981 418.273C680.422 418.234 679.859 418.191 679.329 418.121C678.613 418.021 677.884 418.102 677.207 418.358C676.531 418.614 675.93 419.036 675.459 419.586L675.408 419.645L673.492 416.646L676.13 414.937C676.188 414.67 676.267 414.407 676.366 414.153C677.7 410.689 683.111 409.782 683.349 410.265Z" fill="url(#paint98_linear)"/>
<path d="M675.154 414.282L676.452 422.144C667.482 432.247 656.406 440.253 644.007 445.596C627.482 452.602 596.596 459.658 587.141 446.38C581.386 438.281 577.889 419.62 585.082 415.596C591.997 411.728 606.224 423.359 618.42 426.965C630.372 430.499 648.457 430.444 675.154 414.282Z" fill="url(#paint99_linear)"/>
<path d="M575.777 415.337C588.13 415.111 597.642 415.516 602.902 421.04C608.456 426.875 602.579 433.196 603.492 448.162C604.884 471.073 619.244 476.977 619.832 500.202C619.97 506.292 619.175 512.367 617.472 518.214C612.867 523.783 607.327 528.505 601.102 532.166C589.775 538.761 583.329 537.426 567.188 541.493C540.788 548.144 538.267 556.701 525.305 554.223C512.196 551.716 500.899 540.327 502.425 534.241C503.34 530.597 508.619 531.75 514.844 526.298C522.867 519.275 519.983 512.332 526.131 504.726C534.967 493.802 546.785 500.857 554.315 491.389C561.932 481.808 559.411 462.545 553.395 451.943C549.465 445.018 547.894 436.97 544.578 429.728C544.173 428.853 544.029 427.88 544.163 426.925C544.827 422.269 552.614 419.907 558.511 418.181C564.124 416.508 569.925 415.553 575.777 415.337Z" fill="url(#paint100_linear)"/>
<path d="M587.8 415.086L585.383 414.279C585.383 414.279 584.675 417.582 576.839 417.824C574.249 417.768 571.752 416.852 569.74 415.218L568.051 416.406C569.193 417.801 570.617 418.939 572.229 419.744C573.841 420.549 575.605 421.004 577.405 421.078C579.518 421.118 581.601 420.581 583.432 419.526C585.264 418.47 586.773 416.935 587.8 415.086Z" fill="url(#paint101_linear)"/>
<path d="M585.82 404.425C586.16 401.826 585.521 399.193 584.026 397.041C582.173 394.244 581.73 393.879 580.925 393.438L579.818 392.88C579.818 392.88 579.754 392.864 579.688 392.847C578.537 392.717 577.372 392.752 576.23 392.951C574.771 393.407 573.74 399.654 574.975 408.242C574.916 408.915 574.857 409.589 574.798 410.264C571.477 409.802 570.515 410.121 570.345 410.567C569.976 411.538 572.29 417.201 575.453 418.315C579.42 419.713 584.947 416.07 585.279 414.748C585.414 414.214 585.39 414.672 582.684 413.094C582.435 412.304 581.662 410.167 581.414 409.379C581.986 409.009 585.331 407.086 585.82 404.425Z" fill="url(#paint102_linear)"/>
<path d="M581.293 401.518C580.56 400.678 579.492 401.628 579.591 402.793C579.69 403.959 580.921 405.066 581.989 404.736C583.056 404.406 582.278 402.649 581.293 401.518Z" fill="url(#paint103_linear)"/>
<path d="M484.294 434.476C491.963 426.949 502.345 435.477 514.3 427.324C527.25 418.492 523.195 402.928 534.273 399.627C541.846 397.372 553.29 401.794 559.233 397.695C560.194 397.032 564.095 394.205 569.668 390.853C572.124 389.377 574.527 388.023 577.442 388.483C578.182 388.601 580.646 388.975 581.708 390.998C582.076 391.849 582.233 392.776 582.167 393.7C582.1 394.625 581.812 395.52 581.326 396.309C580.808 397.161 580.49 397.165 580.337 397.784C579.909 399.521 582.749 401.258 582.304 402.06C581.985 402.632 580.456 401.889 579.935 402.568C579.364 403.311 580.89 404.605 580.969 406.966C582.081 408.384 582.215 411.041 581.51 414.317C580.746 418.255 579.213 422.004 576.999 425.348C569.095 436.682 558.541 441.471 553.11 449.711C543.595 464.147 556.873 477.243 549.044 486.924C539.043 499.294 502.365 496.523 487.167 474.758C478.557 462.43 475.925 442.698 484.294 434.476Z" fill="#26264F"/>
<g opacity="0.3">
<path opacity="0.3" d="M534.578 534.556C547.001 526.25 558.245 535.751 567.023 528.434C574.255 522.408 568.321 514.551 576.149 503.946C584.728 492.316 596.634 495.29 599.471 486.599C602.404 477.619 590.639 471.521 590.345 459.049C590.194 452.684 593.039 444.394 604.384 434.452C603.538 438.969 603.238 443.571 603.488 448.159C604.88 471.07 619.242 476.975 619.828 500.2C619.967 506.289 619.171 512.364 617.469 518.212C612.865 523.781 607.326 528.503 601.102 532.166C589.775 538.761 583.329 537.425 567.188 541.493C540.788 548.144 538.267 556.7 525.305 554.221C521.566 553.474 517.978 552.108 514.687 550.179C517.82 549.741 520.81 548.585 523.423 546.8C529.097 542.849 528.1 538.887 534.578 534.556Z" fill="url(#paint104_linear)"/>
</g>
</g>
<defs>
<linearGradient id="paint0_linear" x1="496.667" y1="256.945" x2="678.019" y2="357.822" gradientUnits="userSpaceOnUse">
<stop offset="0.004" stop-color="#E38DDD"/>
<stop offset="1" stop-color="#9571F6"/>
</linearGradient>
<linearGradient id="paint1_linear" x1="675.164" y1="116.647" x2="734.456" y2="535.117" gradientUnits="userSpaceOnUse">
<stop stop-color="#AA80F9"/>
<stop offset="0.996" stop-color="#6165D7"/>
</linearGradient>
<linearGradient id="paint2_linear" x1="1020.74" y1="599.182" x2="473" y2="599.182" gradientUnits="userSpaceOnUse">
<stop offset="0.494" stop-color="#EBEFF2"/>
<stop offset="1" stop-color="white"/>
</linearGradient>
<linearGradient id="paint3_linear" x1="885.794" y1="118.199" x2="868.084" y2="410.559" gradientUnits="userSpaceOnUse">
<stop stop-color="#FF9085"/>
<stop offset="1" stop-color="#FB6FBB"/>
</linearGradient>
<linearGradient id="paint4_linear" x1="668.213" y1="140.186" x2="878.172" y2="140.186" gradientUnits="userSpaceOnUse">
<stop stop-color="#FF9085"/>
<stop offset="1" stop-color="#FB6FBB"/>
</linearGradient>
<linearGradient id="paint5_linear" x1="695.995" y1="84.829" x2="813.464" y2="353.708" gradientUnits="userSpaceOnUse">
<stop stop-color="#FF9085"/>
<stop offset="1" stop-color="#FB6FBB"/>
</linearGradient>
<linearGradient id="paint6_linear" x1="637.806" y1="195.687" x2="629.836" y2="244.875" gradientUnits="userSpaceOnUse">
<stop stop-color="#FFC444"/>
<stop offset="0.297" stop-color="#FBAB49"/>
<stop offset="0.996" stop-color="#F36F56"/>
</linearGradient>
<linearGradient id="paint7_linear" x1="679.014" y1="264.566" x2="664.729" y2="334.472" gradientUnits="userSpaceOnUse">
<stop offset="0.004" stop-color="#E38DDD"/>
<stop offset="1" stop-color="#9571F6"/>
</linearGradient>
<linearGradient id="paint8_linear" x1="679.071" y1="264.534" x2="670.45" y2="335.433" gradientUnits="userSpaceOnUse">
<stop stop-color="#AA80F9"/>
<stop offset="0.996" stop-color="#6165D7"/>
</linearGradient>
<linearGradient id="paint9_linear" x1="727.208" y1="557.56" x2="728.011" y2="638.402" gradientUnits="userSpaceOnUse">
<stop stop-color="#444B8C"/>
<stop offset="0.996" stop-color="#26264F"/>
</linearGradient>
<linearGradient id="paint10_linear" x1="735.667" y1="597.383" x2="730.307" y2="488.423" gradientUnits="userSpaceOnUse">
<stop stop-color="#FFC444"/>
<stop offset="0.996" stop-color="#F36F56"/>
</linearGradient>
<linearGradient id="paint11_linear" x1="808.202" y1="553.032" x2="816.862" y2="633.404" gradientUnits="userSpaceOnUse">
<stop stop-color="#444B8C"/>
<stop offset="0.996" stop-color="#26264F"/>
</linearGradient>
<linearGradient id="paint12_linear" x1="806.965" y1="595.814" x2="800.821" y2="486.937" gradientUnits="userSpaceOnUse">
<stop stop-color="#FFC444"/>
<stop offset="0.996" stop-color="#F36F56"/>
</linearGradient>
<linearGradient id="paint13_linear" x1="701.138" y1="526.386" x2="751.6" y2="521.617" gradientUnits="userSpaceOnUse">
<stop stop-color="#AA80F9"/>
<stop offset="0.996" stop-color="#6165D7"/>
</linearGradient>
<linearGradient id="paint14_linear" x1="734.699" y1="534.02" x2="853.282" y2="515.058" gradientUnits="userSpaceOnUse">
<stop stop-color="#AA80F9"/>
<stop offset="0.996" stop-color="#6165D7"/>
</linearGradient>
<linearGradient id="paint15_linear" x1="791.138" y1="260.453" x2="794.162" y2="324.707" gradientUnits="userSpaceOnUse">
<stop stop-color="#444B8C"/>
<stop offset="0.996" stop-color="#26264F"/>
</linearGradient>
<linearGradient id="paint16_linear" x1="706.899" y1="530.836" x2="754.941" y2="528.481" gradientUnits="userSpaceOnUse">
<stop stop-color="#AA80F9"/>
<stop offset="0.996" stop-color="#6165D7"/>
</linearGradient>
<linearGradient id="paint17_linear" x1="688.44" y1="361.349" x2="857.947" y2="361.349" gradientUnits="userSpaceOnUse">
<stop offset="0.004" stop-color="#E38DDD"/>
<stop offset="1" stop-color="#9571F6"/>
</linearGradient>
<linearGradient id="paint18_linear" x1="774.77" y1="262.527" x2="820.984" y2="414.955" gradientUnits="userSpaceOnUse">
<stop stop-color="#AA80F9"/>
<stop offset="0.996" stop-color="#6165D7"/>
</linearGradient>
<linearGradient id="paint19_linear" x1="746.397" y1="312.208" x2="813.994" y2="312.416" gradientUnits="userSpaceOnUse">
<stop offset="0.004" stop-color="#E38DDD"/>
<stop offset="1" stop-color="#9571F6"/>
</linearGradient>
<linearGradient id="paint20_linear" x1="731.806" y1="268.23" x2="741.675" y2="224.032" gradientUnits="userSpaceOnUse">
<stop stop-color="#FFC444"/>
<stop offset="0.996" stop-color="#F36F56"/>
</linearGradient>
<linearGradient id="paint21_linear" x1="729.312" y1="247.832" x2="775.125" y2="225.957" gradientUnits="userSpaceOnUse">
<stop stop-color="#FFC444"/>
<stop offset="0.996" stop-color="#F36F56"/>
</linearGradient>
<linearGradient id="paint22_linear" x1="734.222" y1="301.968" x2="734.256" y2="295.603" gradientUnits="userSpaceOnUse">
<stop stop-color="#AB316D"/>
<stop offset="1" stop-color="#792D3D"/>
</linearGradient>
<linearGradient id="paint23_linear" x1="734.474" y1="302.003" x2="734.483" y2="295.642" gradientUnits="userSpaceOnUse">
<stop stop-color="#AB316D"/>
<stop offset="1" stop-color="#792D3D"/>
</linearGradient>
<linearGradient id="paint24_linear" x1="734.068" y1="306.689" x2="734.073" y2="304.444" gradientUnits="userSpaceOnUse">
<stop stop-color="#AB316D"/>
<stop offset="1" stop-color="#792D3D"/>
</linearGradient>
<linearGradient id="paint25_linear" x1="735.056" y1="323.797" x2="734.811" y2="329.534" gradientUnits="userSpaceOnUse">
<stop stop-color="#AB316D"/>
<stop offset="1" stop-color="#792D3D"/>
</linearGradient>
<linearGradient id="paint26_linear" x1="734.718" y1="323.629" x2="734.678" y2="329.279" gradientUnits="userSpaceOnUse">
<stop stop-color="#AB316D"/>
<stop offset="1" stop-color="#792D3D"/>
</linearGradient>
<linearGradient id="paint27_linear" x1="752.118" y1="297.858" x2="749.687" y2="337.779" gradientUnits="userSpaceOnUse">
<stop stop-color="#D8DEE8"/>
<stop offset="1" stop-color="white"/>
</linearGradient>
<linearGradient id="paint28_linear" x1="742.533" y1="291.24" x2="741.605" y2="330.306" gradientUnits="userSpaceOnUse">
<stop stop-color="#D8DEE8"/>
<stop offset="1" stop-color="white"/>
</linearGradient>
<linearGradient id="paint29_linear" x1="746.698" y1="294.121" x2="716.357" y2="329.145" gradientUnits="userSpaceOnUse">
<stop stop-color="#D8DEE8"/>
<stop offset="1" stop-color="white"/>
</linearGradient>
<linearGradient id="paint30_linear" x1="745.288" y1="302.458" x2="734.667" y2="323.706" gradientUnits="userSpaceOnUse">
<stop stop-color="#AB316D"/>
<stop offset="1" stop-color="#792D3D"/>
</linearGradient>
<linearGradient id="paint31_linear" x1="745.095" y1="312.067" x2="741.095" y2="312.103" gradientUnits="userSpaceOnUse">
<stop stop-color="#AB316D"/>
<stop offset="1" stop-color="#792D3D"/>
</linearGradient>
<linearGradient id="paint32_linear" x1="743.889" y1="312.084" x2="739.954" y2="312.113" gradientUnits="userSpaceOnUse">
<stop stop-color="#AB316D"/>
<stop offset="1" stop-color="#792D3D"/>
</linearGradient>
<linearGradient id="paint33_linear" x1="742.68" y1="312.093" x2="738.809" y2="312.116" gradientUnits="userSpaceOnUse">
<stop stop-color="#AB316D"/>
<stop offset="1" stop-color="#792D3D"/>
</linearGradient>
<linearGradient id="paint34_linear" x1="741.465" y1="312.108" x2="737.659" y2="312.126" gradientUnits="userSpaceOnUse">
<stop stop-color="#AB316D"/>
<stop offset="1" stop-color="#792D3D"/>
</linearGradient>
<linearGradient id="paint35_linear" x1="740.262" y1="312.128" x2="736.504" y2="312.142" gradientUnits="userSpaceOnUse">
<stop stop-color="#AB316D"/>
<stop offset="1" stop-color="#792D3D"/>
</linearGradient>
<linearGradient id="paint36_linear" x1="739.016" y1="312.148" x2="735.344" y2="312.158" gradientUnits="userSpaceOnUse">
<stop stop-color="#AB316D"/>
<stop offset="1" stop-color="#792D3D"/>
</linearGradient>
<linearGradient id="paint37_linear" x1="737.784" y1="312.172" x2="734.177" y2="312.179" gradientUnits="userSpaceOnUse">
<stop stop-color="#AB316D"/>
<stop offset="1" stop-color="#792D3D"/>
</linearGradient>
<linearGradient id="paint38_linear" x1="736.541" y1="312.196" x2="733.004" y2="312.204" gradientUnits="userSpaceOnUse">
<stop stop-color="#AB316D"/>
<stop offset="1" stop-color="#792D3D"/>
</linearGradient>
<linearGradient id="paint39_linear" x1="735.298" y1="312.236" x2="731.823" y2="312.246" gradientUnits="userSpaceOnUse">
<stop stop-color="#AB316D"/>
<stop offset="1" stop-color="#792D3D"/>
</linearGradient>
<linearGradient id="paint40_linear" x1="734.047" y1="312.265" x2="730.636" y2="312.278" gradientUnits="userSpaceOnUse">
<stop stop-color="#AB316D"/>
<stop offset="1" stop-color="#792D3D"/>
</linearGradient>
<linearGradient id="paint41_linear" x1="732.788" y1="312.309" x2="729.444" y2="312.325" gradientUnits="userSpaceOnUse">
<stop stop-color="#AB316D"/>
<stop offset="1" stop-color="#792D3D"/>
</linearGradient>
<linearGradient id="paint42_linear" x1="731.536" y1="312.353" x2="728.245" y2="312.373" gradientUnits="userSpaceOnUse">
<stop stop-color="#AB316D"/>
<stop offset="1" stop-color="#792D3D"/>
</linearGradient>
<linearGradient id="paint43_linear" x1="730.251" y1="312.391" x2="727.041" y2="312.415" gradientUnits="userSpaceOnUse">
<stop stop-color="#AB316D"/>
<stop offset="1" stop-color="#792D3D"/>
</linearGradient>
<linearGradient id="paint44_linear" x1="728.977" y1="312.447" x2="725.832" y2="312.475" gradientUnits="userSpaceOnUse">
<stop stop-color="#AB316D"/>
<stop offset="1" stop-color="#792D3D"/>
</linearGradient>
<linearGradient id="paint45_linear" x1="727.306" y1="315.49" x2="750.623" y2="315.49" gradientUnits="userSpaceOnUse">
<stop stop-color="#FFC444"/>
<stop offset="0.996" stop-color="#F36F56"/>
</linearGradient>
<linearGradient id="paint46_linear" x1="970.107" y1="441.384" x2="943.274" y2="419.096" gradientUnits="userSpaceOnUse">
<stop stop-color="#FFC444"/>
<stop offset="0.996" stop-color="#F36F56"/>
</linearGradient>
<linearGradient id="paint47_linear" x1="920.215" y1="435.124" x2="1035.03" y2="396.929" gradientUnits="userSpaceOnUse">
<stop stop-color="#FFC444"/>
<stop offset="0.996" stop-color="#F36F56"/>
</linearGradient>
<linearGradient id="paint48_linear" x1="817.69" y1="256.02" x2="839.688" y2="289.796" gradientUnits="userSpaceOnUse">
<stop stop-color="#FFC444"/>
<stop offset="0.996" stop-color="#F36F56"/>
</linearGradient>
<linearGradient id="paint49_linear" x1="897.1" y1="590.966" x2="914.974" y2="600.256" gradientUnits="userSpaceOnUse">
<stop stop-color="#444B8C"/>
<stop offset="0.996" stop-color="#26264F"/>
</linearGradient>
<linearGradient id="paint50_linear" x1="909.537" y1="591.841" x2="925.585" y2="579.45" gradientUnits="userSpaceOnUse">
<stop stop-color="#FFC444"/>
<stop offset="0.996" stop-color="#F36F56"/>
</linearGradient>
<linearGradient id="paint51_linear" x1="822.151" y1="587.232" x2="831.886" y2="601.149" gradientUnits="userSpaceOnUse">
<stop stop-color="#444B8C"/>
<stop offset="0.996" stop-color="#26264F"/>
</linearGradient>
<linearGradient id="paint52_linear" x1="836.11" y1="590.04" x2="851.1" y2="573.682" gradientUnits="userSpaceOnUse">
<stop stop-color="#FFC444"/>
<stop offset="0.996" stop-color="#F36F56"/>
</linearGradient>
<linearGradient id="paint53_linear" x1="827.713" y1="549.176" x2="913.441" y2="526.626" gradientUnits="userSpaceOnUse">
<stop stop-color="#311944"/>
<stop offset="1" stop-color="#893976"/>
</linearGradient>
<linearGradient id="paint54_linear" x1="837.496" y1="552.803" x2="917.925" y2="535.958" gradientUnits="userSpaceOnUse">
<stop stop-color="#311944"/>
<stop offset="1" stop-color="#893976"/>
</linearGradient>
<linearGradient id="paint55_linear" x1="862.396" y1="556.914" x2="949.776" y2="545.424" gradientUnits="userSpaceOnUse">
<stop stop-color="#311944"/>
<stop offset="1" stop-color="#893976"/>
</linearGradient>
<linearGradient id="paint56_linear" x1="866.353" y1="415.018" x2="974.712" y2="263.431" gradientUnits="userSpaceOnUse">
<stop stop-color="#FFC444"/>
<stop offset="0.996" stop-color="#F36F56"/>
</linearGradient>
<linearGradient id="paint57_linear" x1="910.304" y1="269.193" x2="889.252" y2="214.815" gradientUnits="userSpaceOnUse">
<stop stop-color="#FFC444"/>
<stop offset="0.996" stop-color="#F36F56"/>
</linearGradient>
<linearGradient id="paint58_linear" x1="907.355" y1="253.372" x2="887.491" y2="217.862" gradientUnits="userSpaceOnUse">
<stop stop-color="#311944"/>
<stop offset="1" stop-color="#6B3976"/>
</linearGradient>
<linearGradient id="paint59_linear" x1="892.924" y1="226.619" x2="892.956" y2="282.133" gradientUnits="userSpaceOnUse">
<stop stop-color="#FFC444"/>
<stop offset="0.996" stop-color="#F36F56"/>
</linearGradient>
<linearGradient id="paint60_linear" x1="902.873" y1="255.416" x2="887.18" y2="217.693" gradientUnits="userSpaceOnUse">
<stop stop-color="#311944"/>
<stop offset="1" stop-color="#6B3976"/>
</linearGradient>
<linearGradient id="paint61_linear" x1="887.146" y1="233.246" x2="887.273" y2="240.153" gradientUnits="userSpaceOnUse">
<stop stop-color="#FFC444"/>
<stop offset="1" stop-color="#F36F56"/>
</linearGradient>
<linearGradient id="paint62_linear" x1="923.82" y1="400.578" x2="821.934" y2="211.278" gradientUnits="userSpaceOnUse">
<stop stop-color="#FFC444"/>
<stop offset="0.996" stop-color="#F36F56"/>
</linearGradient>
<linearGradient id="paint63_linear" x1="845.156" y1="307.995" x2="810.015" y2="341.689" gradientUnits="userSpaceOnUse">
<stop stop-color="#FFC444"/>
<stop offset="0.996" stop-color="#F36F56"/>
</linearGradient>
<linearGradient id="paint64_linear" x1="868.29" y1="274.38" x2="868.331" y2="266.792" gradientUnits="userSpaceOnUse">
<stop stop-color="#AB316D"/>
<stop offset="1" stop-color="#792D3D"/>
</linearGradient>
<linearGradient id="paint65_linear" x1="868.591" y1="274.42" x2="868.602" y2="266.862" gradientUnits="userSpaceOnUse">
<stop stop-color="#AB316D"/>
<stop offset="1" stop-color="#792D3D"/>
</linearGradient>
<linearGradient id="paint66_linear" x1="868.107" y1="280.012" x2="868.114" y2="277.335" gradientUnits="userSpaceOnUse">
<stop stop-color="#AB316D"/>
<stop offset="1" stop-color="#792D3D"/>
</linearGradient>
<linearGradient id="paint67_linear" x1="869.286" y1="300.416" x2="868.994" y2="307.259" gradientUnits="userSpaceOnUse">
<stop stop-color="#AB316D"/>
<stop offset="1" stop-color="#792D3D"/>
</linearGradient>
<linearGradient id="paint68_linear" x1="868.882" y1="300.216" x2="868.834" y2="306.956" gradientUnits="userSpaceOnUse">
<stop stop-color="#AB316D"/>
<stop offset="1" stop-color="#792D3D"/>
</linearGradient>
<linearGradient id="paint69_linear" x1="881.488" y1="274.97" x2="868.822" y2="300.311" gradientUnits="userSpaceOnUse">
<stop stop-color="#AB316D"/>
<stop offset="1" stop-color="#792D3D"/>
</linearGradient>
<linearGradient id="paint70_linear" x1="881.257" y1="286.428" x2="876.488" y2="286.47" gradientUnits="userSpaceOnUse">
<stop stop-color="#AB316D"/>
<stop offset="1" stop-color="#792D3D"/>
</linearGradient>
<linearGradient id="paint71_linear" x1="879.818" y1="286.444" x2="875.128" y2="286.479" gradientUnits="userSpaceOnUse">
<stop stop-color="#AB316D"/>
<stop offset="1" stop-color="#792D3D"/>
</linearGradient>
<linearGradient id="paint72_linear" x1="878.376" y1="286.457" x2="873.76" y2="286.485" gradientUnits="userSpaceOnUse">
<stop stop-color="#AB316D"/>
<stop offset="1" stop-color="#792D3D"/>
</linearGradient>
<linearGradient id="paint73_linear" x1="876.922" y1="286.475" x2="872.391" y2="286.497" gradientUnits="userSpaceOnUse">
<stop stop-color="#AB316D"/>
<stop offset="1" stop-color="#792D3D"/>
</linearGradient>
<linearGradient id="paint74_linear" x1="875.468" y1="286.499" x2="871.012" y2="286.516" gradientUnits="userSpaceOnUse">
<stop stop-color="#AB316D"/>
<stop offset="1" stop-color="#792D3D"/>
</linearGradient>
<linearGradient id="paint75_linear" x1="874.009" y1="286.524" x2="869.627" y2="286.537" gradientUnits="userSpaceOnUse">
<stop stop-color="#AB316D"/>
<stop offset="1" stop-color="#792D3D"/>
</linearGradient>
<linearGradient id="paint76_linear" x1="872.561" y1="286.552" x2="868.234" y2="286.561" gradientUnits="userSpaceOnUse">
<stop stop-color="#AB316D"/>
<stop offset="1" stop-color="#792D3D"/>
</linearGradient>
<linearGradient id="paint77_linear" x1="871.058" y1="286.583" x2="866.837" y2="286.591" gradientUnits="userSpaceOnUse">
<stop stop-color="#AB316D"/>
<stop offset="1" stop-color="#792D3D"/>
</linearGradient>
<linearGradient id="paint78_linear" x1="869.576" y1="286.629" x2="865.428" y2="286.641" gradientUnits="userSpaceOnUse">
<stop stop-color="#AB316D"/>
<stop offset="1" stop-color="#792D3D"/>
</linearGradient>
<linearGradient id="paint79_linear" x1="868.083" y1="286.665" x2="864.012" y2="286.68" gradientUnits="userSpaceOnUse">
<stop stop-color="#AB316D"/>
<stop offset="1" stop-color="#792D3D"/>
</linearGradient>
<linearGradient id="paint80_linear" x1="866.581" y1="286.716" x2="862.59" y2="286.735" gradientUnits="userSpaceOnUse">
<stop stop-color="#AB316D"/>
<stop offset="1" stop-color="#792D3D"/>
</linearGradient>
<linearGradient id="paint81_linear" x1="865.073" y1="286.77" x2="861.161" y2="286.794" gradientUnits="userSpaceOnUse">
<stop stop-color="#AB316D"/>
<stop offset="1" stop-color="#792D3D"/>
</linearGradient>
<linearGradient id="paint82_linear" x1="863.55" y1="286.815" x2="859.725" y2="286.843" gradientUnits="userSpaceOnUse">
<stop stop-color="#AB316D"/>
<stop offset="1" stop-color="#792D3D"/>
</linearGradient>
<linearGradient id="paint83_linear" x1="862.041" y1="286.881" x2="858.284" y2="286.914" gradientUnits="userSpaceOnUse">
<stop stop-color="#AB316D"/>
<stop offset="1" stop-color="#792D3D"/>
</linearGradient>
<linearGradient id="paint84_linear" x1="864.973" y1="282.16" x2="858.821" y2="312.44" gradientUnits="userSpaceOnUse">
<stop stop-color="#FFC444"/>
<stop offset="0.996" stop-color="#F36F56"/>
</linearGradient>
<linearGradient id="paint85_linear" x1="619.613" y1="47.5905" x2="670.678" y2="296.633" gradientUnits="userSpaceOnUse">
<stop stop-color="#FFC444"/>
<stop offset="0.996" stop-color="#F36F56"/>
</linearGradient>
<linearGradient id="paint86_linear" x1="717.885" y1="-56.7854" x2="651.841" y2="254.756" gradientUnits="userSpaceOnUse">
<stop stop-color="#FFC444"/>
<stop offset="0.996" stop-color="#F36F56"/>
</linearGradient>
<linearGradient id="paint87_linear" x1="575.702" y1="343.688" x2="553.769" y2="363.984" gradientUnits="userSpaceOnUse">
<stop stop-color="#AB316D"/>
<stop offset="1" stop-color="#792D3D"/>
</linearGradient>
<linearGradient id="paint88_linear" x1="562.11" y1="399.002" x2="641.871" y2="464.542" gradientUnits="userSpaceOnUse">
<stop stop-color="#FFC444"/>
<stop offset="0.996" stop-color="#F36F56"/>
</linearGradient>
<linearGradient id="paint89_linear" x1="687.261" y1="411.541" x2="674.656" y2="438.718" gradientUnits="userSpaceOnUse">
<stop stop-color="#AB316D"/>
<stop offset="1" stop-color="#792D3D"/>
</linearGradient>
<linearGradient id="paint90_linear" x1="607.099" y1="623.809" x2="606.355" y2="669.715" gradientUnits="userSpaceOnUse">
<stop offset="0.004" stop-color="#26264F"/>
<stop offset="1" stop-color="#444B8C"/>
</linearGradient>
<linearGradient id="paint91_linear" x1="597.845" y1="649.323" x2="599.168" y2="601.966" gradientUnits="userSpaceOnUse">
<stop stop-color="#AB316D"/>
<stop offset="1" stop-color="#792D3D"/>
</linearGradient>
<linearGradient id="paint92_linear" x1="539.435" y1="618.46" x2="534.011" y2="664.099" gradientUnits="userSpaceOnUse">
<stop offset="0.004" stop-color="#26264F"/>
<stop offset="1" stop-color="#444B8C"/>
</linearGradient>
<linearGradient id="paint93_linear" x1="535.835" y1="648.484" x2="537.175" y2="601.006" gradientUnits="userSpaceOnUse">
<stop stop-color="#AB316D"/>
<stop offset="1" stop-color="#792D3D"/>
</linearGradient>
<linearGradient id="paint94_linear" x1="609.112" y1="572.402" x2="574.216" y2="572.402" gradientUnits="userSpaceOnUse">
<stop stop-color="#311944"/>
<stop offset="1" stop-color="#6B3976"/>
</linearGradient>
<linearGradient id="paint95_linear" x1="606.699" y1="572.398" x2="574.215" y2="572.398" gradientUnits="userSpaceOnUse">
<stop offset="0.004" stop-color="#26264F"/>
<stop offset="1" stop-color="#444B8C"/>
</linearGradient>
<linearGradient id="paint96_linear" x1="599.424" y1="568.94" x2="529.173" y2="568.94" gradientUnits="userSpaceOnUse">
<stop stop-color="#311944"/>
<stop offset="1" stop-color="#6B3976"/>
</linearGradient>
<linearGradient id="paint97_linear" x1="624.167" y1="425.642" x2="605.254" y2="540.466" gradientUnits="userSpaceOnUse">
<stop stop-color="#AA80F9"/>
<stop offset="0.996" stop-color="#6165D7"/>
</linearGradient>
<linearGradient id="paint98_linear" x1="687.261" y1="411.541" x2="674.656" y2="438.718" gradientUnits="userSpaceOnUse">
<stop stop-color="#AB316D"/>
<stop offset="1" stop-color="#792D3D"/>
</linearGradient>
<linearGradient id="paint99_linear" x1="624.167" y1="425.642" x2="605.254" y2="540.466" gradientUnits="userSpaceOnUse">
<stop stop-color="#FFC444"/>
<stop offset="0.996" stop-color="#F36F56"/>
</linearGradient>
<linearGradient id="paint100_linear" x1="592.808" y1="401.075" x2="544.15" y2="533.222" gradientUnits="userSpaceOnUse">
<stop stop-color="#FFC444"/>
<stop offset="0.996" stop-color="#F36F56"/>
</linearGradient>
<linearGradient id="paint101_linear" x1="580.927" y1="407.845" x2="578.702" y2="457.314" gradientUnits="userSpaceOnUse">
<stop stop-color="#FFC444"/>
<stop offset="0.996" stop-color="#F36F56"/>
</linearGradient>
<linearGradient id="paint102_linear" x1="576.236" y1="398.873" x2="588.811" y2="417.551" gradientUnits="userSpaceOnUse">
<stop stop-color="#AB316D"/>
<stop offset="1" stop-color="#792D3D"/>
</linearGradient>
<linearGradient id="paint103_linear" x1="581.02" y1="397.35" x2="581.149" y2="419.16" gradientUnits="userSpaceOnUse">
<stop stop-color="#AB316D"/>
<stop offset="1" stop-color="#792D3D"/>
</linearGradient>
<linearGradient id="paint104_linear" x1="600.495" y1="403.198" x2="554.794" y2="536.5" gradientUnits="userSpaceOnUse">
<stop stop-color="#FFC444"/>
<stop offset="0.996" stop-color="#F36F56"/>
</linearGradient>
<clipPath id="clip0">
<rect width="561" height="597" fill="white" transform="translate(473 60)"/>
</clipPath>
</defs>
</svg>
