<svg width="362" height="1080" viewBox="0 0 362 1080" fill="none" xmlns="http://www.w3.org/2000/svg">
<path d="M474.5 112C474.5 322.707 480.752 1155.24 283.801 1096.55C279.174 1095.17 275.011 1091.74 272.217 1087.8C183 962.132 87.8175 1044.11 13.9999 926C-69.4737 749.346 262.63 762.779 230.982 185.181C219 -33.5001 360.501 -196.181 474.5 112Z" fill="#FCF7F5"/>
<path d="M408 -199.524C329 946.63 436.945 1207.98 314.713 1030.92C224.268 899.902 133.1 1049.92 73.4059 926.906C-10.0677 754.886 250.678 739.884 279.982 177.321C288.891 6.30161 314.713 -434.524 408 -199.524Z" fill="#F9EEEB"/>
</svg>
