<svg width="157" height="51" viewBox="0 0 157 51" fill="none" xmlns="http://www.w3.org/2000/svg">
<path opacity="0.5" fill-rule="evenodd" clip-rule="evenodd" d="M28.109 40.1306C42.2564 40.1306 53.7251 28.6632 53.7251 14.5173C53.7251 12.5067 53.4934 10.5502 53.0553 8.67301C51.2985 8.29231 49.4746 8.0918 47.6039 8.0918C33.4565 8.0918 21.9878 19.5593 21.9878 33.7051C21.9878 35.7157 22.2195 37.6722 22.6576 39.5494C24.4144 39.9301 26.2383 40.1306 28.109 40.1306Z" fill="#7272E2"/>
<path opacity="0.5" fill-rule="evenodd" clip-rule="evenodd" d="M28.1088 40.1306C13.9614 40.1306 2.49264 28.6632 2.49264 14.5173C2.49264 12.5188 2.72156 10.5737 3.15462 8.70686C4.95864 8.3042 6.83445 8.0918 8.75987 8.0918C22.9073 8.0918 34.376 19.5593 34.376 33.7051C34.376 35.7036 34.1471 37.6487 33.714 39.5156C31.91 39.9182 30.0342 40.1306 28.1088 40.1306Z" fill="#7272E2"/>
<path opacity="0.5" fill-rule="evenodd" clip-rule="evenodd" d="M44.8709 33.7076C40.3735 37.7034 34.4507 40.1305 27.9611 40.1305C21.4714 40.1305 15.5487 37.7034 11.0513 33.7076C15.5487 29.7117 21.4714 27.2847 27.9611 27.2847C34.4507 27.2847 40.3735 29.7117 44.8709 33.7076Z" fill="#7272E2"/>
<path d="M75.3982 37.2963C76.5104 37.2963 77.5782 37.0293 78.5125 36.4955C79.0019 36.273 79.1353 35.9616 79.0019 35.5612L78.6015 34.8048C78.468 34.4934 78.2455 34.4489 77.9341 34.6269C77.0888 35.0273 76.3325 35.2497 75.5761 35.2497C74.2859 35.2497 72.7288 34.182 71.8835 33.3367C71.4831 32.9363 70.9937 32.3579 70.3708 31.6016L64.8541 25.017L74.3749 15.5852C74.7753 15.1848 74.5974 14.6954 73.93 14.6954H72.8178C72.4619 14.6954 72.1504 14.8288 71.928 15.0958L62.4516 24.4832V5.39696C62.4516 4.90757 62.1847 4.64062 61.6953 4.64062H60.9389C60.4496 4.64062 60.1826 4.90757 60.1826 5.39696V36.0506C60.1826 36.5399 60.4496 36.8069 60.9389 36.8069H61.6953C62.1847 36.8069 62.4516 36.5399 62.4516 36.0506V25.373L68.5022 32.7583L69.1251 33.5146L69.8814 34.4044C70.1929 34.6269 71.1716 35.6946 71.7055 36.0506C72.5508 36.5844 74.0635 37.4297 75.3982 37.2963Z" fill="#5A5A5A"/>
<path d="M90.9492 37.2963C95.1757 37.2963 98.6459 35.2052 100.426 31.4236V36.0506C100.426 36.5399 100.648 36.8069 101.137 36.8069H101.938C102.428 36.8069 102.695 36.5399 102.695 36.0506V15.4517C102.695 14.9623 102.428 14.6954 101.938 14.6954H101.137C100.648 14.6954 100.426 14.9623 100.426 15.4517V20.0786C98.6459 16.3415 95.2647 14.206 90.8602 14.206C87.479 14.206 84.7651 15.3182 82.763 17.5427C80.761 19.7227 79.7377 22.4811 79.7377 25.7289C79.7377 29.0211 80.761 31.7795 82.8075 34.004C84.8985 36.184 87.6124 37.2963 90.9492 37.2963ZM91.1271 35.2942C88.3688 35.2942 86.1443 34.4044 84.4981 32.5803C82.852 30.7562 82.0067 28.4428 82.0067 25.7289C82.0067 23.015 82.8075 20.7905 84.4536 18.9664C86.0998 17.1423 88.2798 16.2525 91.0826 16.2525C93.8855 16.2525 96.11 17.1423 97.8451 18.9664C99.5802 20.7905 100.47 23.015 100.47 25.7289C100.47 28.5317 99.5802 30.8452 97.8006 32.6248C96.0655 34.4044 93.841 35.2942 91.1271 35.2942Z" fill="#5A5A5A"/>
<path d="M114.861 46.7726C115.261 46.7726 115.528 46.5947 115.706 46.1943L128.653 15.5852C128.875 15.0068 128.697 14.6954 128.074 14.6954H127.051C126.562 14.6954 126.295 14.9178 126.161 15.3182L118.42 34.4044L110.367 15.2737C110.234 14.8733 109.922 14.6954 109.522 14.6954H108.499C107.876 14.6954 107.698 15.0068 107.92 15.5852L117.174 36.9848L113.615 45.9273C113.393 46.5057 113.571 46.7726 114.193 46.7726H114.861Z" fill="#5A5A5A"/>
<path d="M142.695 37.2963C146.921 37.2963 150.392 35.2052 152.171 31.4236V36.0506C152.171 36.5399 152.394 36.8069 152.883 36.8069H153.684C154.173 36.8069 154.44 36.5399 154.44 36.0506V15.4517C154.44 14.9623 154.173 14.6954 153.684 14.6954H152.883C152.394 14.6954 152.171 14.9623 152.171 15.4517V20.0786C150.392 16.3415 147.01 14.206 142.606 14.206C139.225 14.206 136.511 15.3182 134.509 17.5427C132.507 19.7227 131.483 22.4811 131.483 25.7289C131.483 29.0211 132.507 31.7795 134.553 34.004C136.644 36.184 139.358 37.2963 142.695 37.2963ZM142.873 35.2942C140.114 35.2942 137.89 34.4044 136.244 32.5803C134.598 30.7562 133.752 28.4428 133.752 25.7289C133.752 23.015 134.553 20.7905 136.199 18.9664C137.845 17.1423 140.025 16.2525 142.828 16.2525C145.631 16.2525 147.856 17.1423 149.591 18.9664C151.326 20.7905 152.216 23.015 152.216 25.7289C152.216 28.5317 151.326 30.8452 149.546 32.6248C147.811 34.4044 145.587 35.2942 142.873 35.2942Z" fill="#5A5A5A"/>
</svg>
