<svg width="119" height="119" viewBox="0 0 119 119" fill="none" xmlns="http://www.w3.org/2000/svg">
<path d="M91.109 11.4168L28.9639 7.82633C27.5385 7.75305 26.2454 9.32116 26.2454 10.6255V90.4229C26.2454 92.2401 28.0969 92.6065 29.537 92.46L91.109 86.1875C92.2405 86.0703 93.1369 85.0444 93.1369 83.9013V13.6005C93.1369 12.4427 92.2405 11.4608 91.109 11.4168Z" fill="url(#paint0_linear)"/>
<path d="M92.1373 10.7719L29.8747 7.72359C28.4493 7.65032 27.2737 8.66152 27.2737 9.98049V90.4081C27.2737 91.727 28.4346 92.6796 29.8747 92.5331L92.1373 86.1288C93.2689 86.0115 94.1653 84.9857 94.1653 83.8132V12.9848C94.1653 11.8124 93.2542 10.8305 92.1373 10.7719Z" fill="#D8DEE8"/>
<path opacity="0.3" d="M29.8745 91.4341C29.0957 91.5074 28.4785 90.9944 28.4785 90.291V10.0392C28.4785 9.3358 29.1104 8.7789 29.8745 8.82287L92.1372 11.7539C92.7397 11.7832 93.2393 12.3108 93.2393 12.941V83.916C93.2393 84.5461 92.7397 85.103 92.1372 85.1617L29.8745 91.4341Z" fill="url(#paint1_linear)"/>
<path d="M88.126 83.2564L34.8713 88.3711V14.3331L88.126 16.3409V83.2564Z" fill="white"/>
<path opacity="0.3" d="M66.8181 16.7074L45.5398 16.9712L46.01 12.1789C46.0394 11.5634 46.495 11.0505 47.0975 10.9625L50.6977 10.4056C51.1239 10.347 51.4913 10.0539 51.6676 9.65823L52.0644 8.80823L61.4985 9.39443L66.8181 16.7074Z" fill="#97A6B7"/>
<path d="M78.1776 13.6005C78.0747 13.0582 77.6486 12.6772 77.0902 12.6479L73.6956 12.5013C72.1527 12.428 71.0211 11.1824 71.0799 9.5996L71.2122 5.9358C71.2416 5.26166 70.7566 4.71942 70.0807 4.67546L68.9638 4.60218C68.1115 4.55822 67.5384 3.79615 67.6707 2.93149C67.8764 1.42201 66.8331 0.117698 65.3342 0.0151122C63.8206 -0.087474 62.3952 1.07028 62.1748 2.60908C62.1454 2.84356 62.0572 3.06339 61.9396 3.26856C61.587 3.82546 60.9698 4.13322 60.3673 4.10391L59.2211 4.03063C58.5157 3.98666 57.8544 4.48494 57.6781 5.15908L56.7229 8.88149C56.3115 10.4936 54.7391 11.6513 53.0786 11.578L49.346 11.4168C48.7288 11.3875 48.1411 11.7393 47.8472 12.2961L45.5988 16.7513C45.4078 17.1177 45.6429 17.5134 46.0397 17.528L78.398 18.5979C78.7507 18.6125 79.0593 18.2608 78.9858 17.9091L78.1776 13.6005ZM64.8639 3.18063C64.4231 3.15132 64.1145 2.77028 64.1733 2.31597C64.2321 1.86166 64.6582 1.5246 65.0991 1.55391C65.5399 1.58322 65.8485 1.96425 65.7897 2.41856C65.731 2.87287 65.3195 3.20994 64.8639 3.18063Z" fill="url(#paint2_linear)"/>
<path d="M78.3832 13.7032C78.2803 13.161 77.8542 12.78 77.2957 12.7507L73.9012 12.6041C72.3582 12.5308 71.2267 11.2851 71.2855 9.70238L71.4178 6.03859C71.4471 5.36445 70.9622 4.82221 70.2862 4.77824L69.1694 4.70496C68.3171 4.661 67.744 3.89893 67.8763 3.03428C68.082 1.52479 67.0386 0.220482 65.5398 0.117895C64.0262 0.0153091 62.6008 1.17307 62.3803 2.71186C62.3509 2.94634 62.2628 3.16617 62.1452 3.37134C61.7925 3.92824 61.1753 4.236 60.5729 4.20669L59.4266 4.13341C58.7213 4.08945 58.06 4.58772 57.8837 5.26186L56.9285 8.98428C56.517 10.5963 54.9447 11.7541 53.2841 11.6808L49.5516 11.5196C48.9344 11.4903 48.3466 11.842 48.0527 12.3989L45.8044 16.8541C45.6133 17.2205 45.8485 17.6162 46.2452 17.6308L78.6036 18.7007C78.9563 18.7153 79.2649 18.3636 79.1914 18.0119L78.3832 13.7032ZM65.0548 3.28341C64.614 3.2541 64.3054 2.87307 64.3642 2.41876C64.4229 1.96445 64.8491 1.62738 65.2899 1.65669C65.7308 1.686 66.0394 2.06703 65.9806 2.52134C65.9218 2.97565 65.5104 3.31272 65.0548 3.28341Z" fill="#97A6B7"/>
<path opacity="0.5" d="M72.8432 15.7401C69.9629 13.9669 67.744 15.2272 65.9512 13.2194C64.0262 11.0798 65.3193 8.25134 63.3355 6.91772C62.057 6.06772 60.9255 6.81514 59.4413 6.58065C58.8976 6.49272 58.3245 6.28755 57.722 5.86255L56.9285 8.96945C56.517 10.5815 54.9447 11.7393 53.2841 11.666L49.5516 11.5048C48.9344 11.4755 48.3466 11.8272 48.0527 12.3841L45.8044 16.8393C45.6133 17.2057 45.8485 17.6013 46.2452 17.616L75.6499 18.5832C74.9005 17.4108 73.9747 16.4436 72.8432 15.7401Z" fill="white"/>
<path d="M82.9236 25.8959L41.6748 25.6467V23.214L82.9236 23.5511V25.8959Z" fill="#D8DEE8"/>
<path d="M82.9236 30.0136L41.6748 29.9257V27.4783L82.9236 27.6688V30.0136Z" fill="#D8DEE8"/>
<path d="M82.9236 34.1317L41.6748 34.205V31.7576L82.9236 31.7869V34.1317Z" fill="#D8DEE8"/>
<path d="M82.9236 38.2645L41.6748 38.4843V36.0369L82.9236 35.905V38.2645Z" fill="#D8DEE8"/>
<path d="M75.944 45.0358L41.0581 45.8858V43.3358L75.944 42.6616V45.0358Z" fill="#D8DEE8"/>
<path d="M75.9437 49.2128L41.0579 50.3266V47.7912L75.9437 46.8386V49.2128Z" fill="#D8DEE8"/>
<path d="M75.9437 53.3894L41.0579 54.7816V52.2463L75.9437 51.0006V53.3894Z" fill="#D8DEE8"/>
<path d="M75.9437 57.5663L41.0579 59.237V56.7016L75.9437 55.1775V57.5663Z" fill="#D8DEE8"/>
<path d="M82.923 44.8745L78.3391 44.9917V42.6176L82.923 42.515V44.8745Z" fill="#D8DEE8"/>
<path d="M82.923 48.993L78.3391 49.1396V46.7654L82.923 46.6482V48.993Z" fill="#D8DEE8"/>
<path d="M82.923 53.1109L78.3391 53.3015V50.9273L82.923 50.7661V53.1109Z" fill="#D8DEE8"/>
<path d="M82.923 57.2291L78.3391 57.4489V55.0748L82.923 54.8843V57.2291Z" fill="#D8DEE8"/>
<path d="M75.944 64.3364L41.0581 66.4614V63.9261L75.944 61.9623V64.3364Z" fill="#D8DEE8"/>
<path d="M75.9437 68.5129L41.0579 70.9164V68.381L75.9437 66.1241V68.5129Z" fill="#D8DEE8"/>
<path d="M75.9437 72.6897L41.0579 75.3716V72.8216L75.9437 70.3009V72.6897Z" fill="#D8DEE8"/>
<path d="M75.9437 76.8662L41.0579 79.8266V77.2766L75.9437 74.4774V76.8662Z" fill="#D8DEE8"/>
<path d="M82.923 63.9114L78.3391 64.1898V61.8157L82.923 61.5665V63.9114Z" fill="#D8DEE8"/>
<path d="M82.923 68.0296L78.3391 68.3521V65.9779L82.923 65.6848V68.0296Z" fill="#D8DEE8"/>
<path d="M82.923 72.1476L78.3391 72.4993V70.1398L82.923 69.8027V72.1476Z" fill="#D8DEE8"/>
<path d="M82.923 76.2657L78.3391 76.6614V74.2873L82.923 73.9209V76.2657Z" fill="#D8DEE8"/>
<path d="M81.3074 79.4311C71.021 77.7751 68.7579 76.632 67.6999 74.5216C66.1716 71.4734 67.2884 66.5199 69.8894 63.4863C72.1819 60.8191 75.0327 60.2915 74.9445 58.4303C74.871 56.9061 72.9166 56.7156 71.4765 53.8432C71.0503 53.0078 70.2421 51.3811 70.5948 49.432C71.1091 46.5742 73.7542 45.0647 73.9747 44.9475C76.752 43.4234 78.3244 45.1673 80.4111 43.819C83.0268 42.119 81.8365 38.5285 84.2905 37.488C86.0833 36.7259 88.361 37.9277 88.9635 38.2354C90.9621 39.2759 90.7416 40.3311 92.4316 40.9759C94.4007 41.738 95.3559 40.5216 97.6483 41.0053C99.5439 41.4009 100.925 42.7053 102.042 44.0242C104.57 46.9846 103.306 48.7432 105.172 52.407C107.803 57.5509 111.77 56.9647 112.476 61.0975C112.843 63.2518 111.902 64.2337 112.622 67.5458C113.107 69.788 113.739 70.1837 113.842 71.5027C114.151 75.2837 109.61 78.5958 108.758 79.182C103.409 82.8897 95.973 81.7906 81.3074 79.4311Z" fill="url(#paint3_linear)"/>
<path opacity="0.7" d="M98.0156 69.5391C91.0795 69.0408 86.4065 75.2693 84.555 73.7158C82.8063 72.2503 87.7585 67.2969 86.0685 61.5081C84.408 55.8219 77.8981 54.6495 78.4124 51.4546C79.0002 47.8348 87.7291 46.8969 87.5233 44.215C87.4058 42.6322 84.3051 42.3098 83.6879 39.8038C83.5263 39.1296 83.5704 38.4555 83.7467 37.8253C82.0421 39.1589 82.8209 42.2658 80.4404 43.8193C78.3537 45.1822 76.7666 43.4383 74.004 44.9477C73.7835 45.065 71.1384 46.5745 70.6241 49.4322C70.2714 51.3814 71.0796 53.0081 71.5058 53.8434C72.9459 56.7012 74.9003 56.9064 74.9738 58.4305C75.062 60.277 72.1965 60.8046 69.9187 63.4865C67.3177 66.5348 66.2009 71.4736 67.7292 74.5219C68.7725 76.6176 71.0503 77.7753 81.3368 79.4314C96.0023 81.7908 103.453 82.9046 108.846 79.2115C110.932 77.7753 113.401 75.3279 113.945 73.1296C112.887 74.0676 111.844 74.5219 110.888 74.6831C106.333 75.4745 104.261 69.9788 98.0156 69.5391Z" fill="url(#paint4_linear)"/>
<path d="M69.8448 92.5917C68.3018 88.8106 69.2423 82.9046 69.448 81.6589C70.2269 76.808 72.0491 73.8037 72.7103 72.7339C77.2805 65.3916 84.2459 65.4649 89.5361 65.5089C92.1518 65.5382 94.8704 65.4796 98.2061 66.6666C98.2061 66.6666 100.851 67.6046 103.085 69.158C109.8 73.8184 115.12 89.0744 109.683 94.7753C106.23 98.3951 102.688 93.7054 87.4788 95.7718C81.4245 96.5925 75.0909 98.0141 71.329 94.7753C70.6971 94.2184 70.2122 93.5149 69.8448 92.5917Z" fill="url(#paint5_linear)"/>
<path d="M86.7444 56.5985C86.7444 56.5985 87.8612 64.5709 82.2184 66.139C81.5718 66.3149 81.3661 67.1502 81.8657 67.6045L88.8164 74.1261C89.2426 74.5218 89.9039 74.4925 90.2859 74.0675L96.6048 67.1063C97.0162 66.652 96.8399 65.9192 96.2521 65.714C94.2242 64.9666 90.5945 62.8123 91.3587 56.9795L86.7444 56.5985Z" fill="url(#paint6_linear)"/>
<path d="M83.2912 52.1727C83.2912 52.2606 84.8195 60.0279 88.7137 60.0279C92.4168 60.0279 93.8128 54.2977 94.2684 51.6304C94.3125 51.1761 94.3712 50.7218 94.4153 50.2675C94.1655 50.3554 93.5336 50.5167 92.7989 50.3115C92.6225 50.2675 91.5498 49.9744 91.153 49.0951C90.7122 48.1132 91.5204 47.3365 91.0649 46.4718C90.8004 45.9736 90.2566 45.7391 89.8452 45.6218C90.1244 46.0322 90.6534 46.9261 90.3595 47.7468C90.1538 48.3037 89.5807 48.8167 88.3169 49.1391C84.6726 50.0623 83.2618 50.4141 83.2912 52.1727Z" fill="url(#paint7_linear)"/>
<path d="M84.2459 53.1107C84.2459 53.1107 82.2331 51.4107 82.0568 52.4512C81.6895 54.6201 83.4084 55.8072 84.3487 55.1624C85.2743 54.5176 84.2459 53.1107 84.2459 53.1107Z" fill="url(#paint8_linear)"/>
<path d="M93.1073 53.1107C93.1073 53.1107 95.1201 51.4107 95.2964 52.4512C95.6637 54.6201 93.9448 55.8072 93.0045 55.1624C92.0789 54.5176 93.1073 53.1107 93.1073 53.1107Z" fill="url(#paint9_linear)"/>
<path d="M3.62913 97.1051C1.6747 92.0198 4.43735 83.6957 6.17136 79.9293C11.2411 68.9232 20.5578 68.5569 28.1991 68.2491C35.6936 67.956 42.9382 67.6629 48.2431 76.1043C51.7111 81.6146 54.8852 91.7267 52.7692 97.1198C50.5355 102.777 44.3342 98.3948 29.5952 98.3215C13.3572 98.2189 6.0685 103.451 3.62913 97.1051Z" fill="url(#paint10_linear)"/>
<path d="M35.2679 69.4067C35.2679 70.7989 31.8734 72.4549 27.7 72.4549C23.5266 72.4549 20.1321 70.7842 20.1321 69.4067C20.1321 68.0144 23.5266 68.6446 27.7 68.6446C31.8734 68.6446 35.2679 68.0144 35.2679 69.4067Z" fill="url(#paint11_linear)"/>
<path d="M24.9227 59.749C23.7765 59.749 26.4363 67.824 22.2482 68.9232C21.8368 69.0257 21.778 69.568 22.1454 69.7732C23.2622 70.374 25.3783 71.1507 28.8316 71.1507C31.0799 71.1507 32.7111 70.3007 33.5634 69.7292C33.8573 69.5387 33.8279 69.099 33.5193 68.9378C32.2261 68.2783 30.4334 66.168 30.9771 59.9395L24.9227 59.749Z" fill="url(#paint12_linear)"/>
<path d="M21.4253 50.062C21.44 50.1646 21.7927 57.5215 23.4826 61.1999C23.9675 62.2551 26.3775 62.1232 27.9205 62.006C29.2724 61.8887 31.3885 62.387 31.991 61.4637C34.3863 57.7267 33.9895 48.4646 33.9895 48.4646C33.9895 48.4646 32.7551 45.387 27.7294 45.4603C22.6744 45.5482 21.4253 50.062 21.4253 50.062Z" fill="url(#paint13_linear)"/>
<path d="M22.6004 54.0186C22.6004 54.0186 21.5425 52.8022 20.5582 52.641C19.5591 52.4798 18.9127 55.0445 20.279 56.7152C21.6307 58.3859 23.2027 56.9936 23.2027 56.9936L22.6004 54.0186Z" fill="url(#paint14_linear)"/>
<path d="M32.8726 54.0186C32.8726 54.0186 33.9305 52.8022 34.9148 52.641C35.9139 52.4798 36.5603 55.0445 35.194 56.7152C33.8423 58.3859 32.2703 56.9936 32.2703 56.9936L32.8726 54.0186Z" fill="url(#paint15_linear)"/>
<path d="M21.7781 53.9309C21.9103 54.18 22.0573 54.3998 22.1601 54.3705C22.5863 54.2533 20.9405 50.1205 22.454 48.6697C23.2329 47.9222 24.1146 48.5964 27.3181 48.4645C30.551 48.3179 31.3739 47.5559 32.3438 48.1421C33.2255 48.6843 34.0337 50.2085 33.3724 54.7516C33.5488 54.7076 33.7398 54.6636 33.9161 54.6197C33.6663 53.1248 33.9455 52.1869 34.2541 51.6007C34.4746 51.1757 34.886 50.6188 34.8566 49.8128C34.8419 49.3145 34.6656 49.2852 34.6509 48.8895C34.5774 47.6878 35.944 47.3654 36.0028 46.1929C36.0469 45.2843 35.2681 45.0791 35.415 44.1266C35.5326 43.3205 36.1498 43.1593 36.0616 42.5878C35.9587 41.9576 35.1358 41.4886 34.548 41.3274C33.9602 41.1662 33.7398 41.3421 33.4018 41.1076C32.8434 40.7266 33.1079 40.0378 32.7112 39.7886C31.9911 39.3343 30.5657 41.1369 29.6399 40.6973C29.0815 40.4188 29.3019 39.6128 28.8023 39.4222C27.8471 39.0412 26.1572 41.7085 25.4812 41.3567C25.1579 41.1809 25.4665 40.536 25.011 40.0524C24.482 39.4955 23.1888 39.4955 22.601 40.0817C22.0573 40.6386 22.5128 41.2981 21.9397 42.0016C21.4254 42.6317 20.8229 42.3679 20.2351 42.8809C19.2358 43.7455 19.5885 45.6947 19.7061 46.3835C20.1322 48.7722 21.4548 49.2559 21.1609 50.8826C21.0874 51.2929 20.9111 51.7619 21.0286 52.4507C21.1462 53.0955 21.4842 53.6085 21.7781 53.9309Z" fill="url(#paint16_linear)"/>
<g opacity="0.3">
<path opacity="0.3" d="M34.0336 48.7723C33.916 47.5999 34.8271 47.043 34.6802 46.2076C34.5626 45.5335 33.7985 44.9326 33.0784 44.8007C31.5501 44.5223 30.5509 46.7792 29.0373 46.5301C27.8617 46.3395 27.9939 44.918 26.6567 44.3464C24.5553 43.4378 22.3364 46.193 20.9403 45.4309C20.5142 45.1964 20.088 44.6102 20.0586 43.0128C19.2504 43.9361 19.5737 45.7094 19.6913 46.3542C20.1174 48.743 21.44 49.2266 21.1461 50.8533C21.0726 51.2637 20.8963 51.7326 21.0138 52.4214C21.1314 53.0956 21.4841 53.5938 21.7633 53.9163C21.8955 54.1654 22.0425 54.3852 22.1453 54.3559C22.5715 54.2387 20.9256 50.1059 22.4392 48.6551C23.2181 47.9076 24.0998 48.5818 27.3033 48.4499C30.5362 48.3033 31.3591 47.5413 32.329 48.1275C33.2107 48.6697 34.0189 50.1939 33.3576 54.737C33.5339 54.693 33.725 54.649 33.9013 54.6051C33.6515 53.1102 33.9307 52.1723 34.2393 51.5861C34.3275 51.4102 34.4597 51.2051 34.5626 50.9852C34.5332 50.5895 34.4744 50.1645 34.3275 49.7102C34.1952 49.1973 34.0777 49.1387 34.0336 48.7723Z" fill="url(#paint17_linear)"/>
</g>
<path d="M59.6174 117.872C35.5177 118.062 27.0827 121.228 23.2474 116.011C19.7206 111.218 22.6449 94.0131 26.8476 89.1769C33.4898 81.5415 44.1583 81.1605 58.7504 80.7648C72.4756 80.3838 80.9252 80.1493 87.5967 86.0407C93.8421 91.551 97.8244 110.573 93.9302 115.879C90.3447 120.803 82.6298 117.696 59.6174 117.872Z" fill="url(#paint18_linear)"/>
<path d="M50.6975 80.75L47.8761 81.4681C47.1854 81.644 46.8621 82.45 47.2589 83.0362C49.1839 86.0259 54.2684 93.5147 57.4572 94.4087C60.7489 95.3173 66.9061 85.8207 68.9487 82.4793C69.3014 81.9078 69.0222 81.1457 68.3756 80.9406L66.3036 80.2811C64.6137 79.7388 62.8356 79.5337 61.0575 79.6802L53.3426 80.3104C52.4462 80.369 51.5645 80.5156 50.6975 80.75Z" fill="url(#paint19_linear)"/>
<path d="M52.799 69.8173C52.799 69.8173 54.3567 80.9405 52.2112 82.0104L58.3096 88.6492L64.4962 80.794C64.4962 80.794 62.1597 79.0354 62.7769 69.8319H52.799V69.8173Z" fill="url(#paint20_linear)"/>
<path d="M49.1987 53.9018C48.9783 54.1949 46.1127 68.2199 56.0318 69.6854C65.951 71.1509 66.3771 60.7897 66.2595 56.3932C66.1273 51.9966 61.6012 50.3992 59.0002 50.0914C56.3992 49.7837 49.9775 52.8466 49.1987 53.9018Z" fill="url(#paint21_linear)"/>
<path d="M48.6251 62.0793C48.6251 62.0793 48.1255 59.7931 46.4359 61.2146C44.7317 62.6362 47.435 66.4319 49.6682 66.2707L48.6251 62.0793Z" fill="url(#paint22_linear)"/>
<path d="M65.9361 60.4821C65.657 60.6727 64.8342 66.0511 64.8342 66.0511C64.8342 66.0511 66.2594 66.2123 67.3025 64.2925C68.3309 62.358 68.8305 58.533 65.9361 60.4821Z" fill="url(#paint23_linear)"/>
<path d="M69.8304 50.2087C68.7871 48.4794 66.142 49.3001 65.3778 47.6294C64.7312 46.2225 66.2448 44.9182 65.4366 43.7018C64.7606 42.6906 63.0854 42.7199 62.7915 42.7199C60.5432 42.7492 60.0288 44.5372 58.4124 44.4932C56.4433 44.4492 56.3698 41.7673 53.7835 40.6389C51.2706 39.5397 47.5822 40.4337 46.098 42.4854C44.9371 44.0828 45.9217 45.2553 44.4081 47.2923C43.3647 48.6992 42.4389 48.7578 41.9246 50.1354C41.4397 51.4251 41.763 52.6561 42.0275 53.5794C42.6447 55.7777 43.7909 56.7449 45.5249 59.0751C46.3037 60.1156 47.3765 61.6691 48.4786 63.7061C48.9341 64.9372 49.5954 66.8423 50.2126 69.2458C50.771 71.4294 50.7416 71.869 51.2559 72.5872C53.0487 75.0346 57.1339 74.7854 58.8532 74.6975C60.8224 74.5803 63.2764 74.4484 64.5108 72.7337C65.1721 71.8104 65.0986 70.9751 65.2456 68.7475C65.3631 67.1501 65.5836 64.9225 66.0979 62.2113C66.1126 62.2113 66.333 60.9656 66.9061 59.4415C67.6262 57.5363 68.3756 57.2285 69.1838 55.2501C69.8451 53.6673 70.6827 51.6156 69.8304 50.2087ZM61.6306 65.1277C60.4109 65.4501 59.588 65.157 57.9422 65.0691C54.6358 64.8785 53.5924 66.4173 52.0348 65.7432C51.3882 65.4647 49.8746 64.6734 49.566 63.1492C49.375 62.1673 49.2574 60.8191 49.4632 59.2656C49.7277 57.3604 50.0216 55.1768 51.5498 54.2096C53.7688 52.8027 56.5902 55.2208 58.6328 53.6527C59.4117 53.0518 59.7203 52.1432 59.8672 51.4397C60.3227 51.6009 63.9083 52.8906 65.2309 56.7156C66.0391 59.0751 65.5836 61.1708 65.1868 62.3139C64.408 63.4423 63.2764 64.688 61.6306 65.1277Z" fill="url(#paint24_linear)"/>
<path d="M54.768 67.4432C56.0465 67.8389 57.9568 68.1027 60.1023 67.2967C60.3227 67.2088 60.5138 67.4579 60.3227 67.5898C59.5586 68.132 58.4271 68.7183 57.2074 68.6157C56.1934 68.5424 55.2677 68.1467 54.5623 67.751C54.386 67.6338 54.5476 67.37 54.768 67.4432Z" fill="url(#paint25_linear)"/>
<defs>
<linearGradient id="paint0_linear" x1="26.251" y1="50.1538" x2="93.1422" y2="50.1538" gradientUnits="userSpaceOnUse">
<stop stop-color="#444B8C"/>
<stop offset="0.9964" stop-color="#26264F"/>
</linearGradient>
<linearGradient id="paint1_linear" x1="28.4677" y1="50.127" x2="93.2325" y2="50.127" gradientUnits="userSpaceOnUse">
<stop offset="0.00359712" stop-color="#E38DDD"/>
<stop offset="1" stop-color="#9571F6"/>
</linearGradient>
<linearGradient id="paint2_linear" x1="45.5366" y1="9.29324" x2="78.9947" y2="9.29324" gradientUnits="userSpaceOnUse">
<stop stop-color="#444B8C"/>
<stop offset="0.9964" stop-color="#26264F"/>
</linearGradient>
<linearGradient id="paint3_linear" x1="105.926" y1="34.3459" x2="93.6588" y2="58.4349" gradientUnits="userSpaceOnUse">
<stop stop-color="#AB316D"/>
<stop offset="1" stop-color="#792D3D"/>
</linearGradient>
<linearGradient id="paint4_linear" x1="105.906" y1="34.5123" x2="93.6741" y2="58.5312" gradientUnits="userSpaceOnUse">
<stop stop-color="#AB316D"/>
<stop offset="1" stop-color="#792D3D"/>
</linearGradient>
<linearGradient id="paint5_linear" x1="93.7993" y1="111.853" x2="87.8671" y2="68.7277" gradientUnits="userSpaceOnUse">
<stop offset="0.00359712" stop-color="#E38DDD"/>
<stop offset="1" stop-color="#9571F6"/>
</linearGradient>
<linearGradient id="paint6_linear" x1="89.6023" y1="75.2317" x2="88.7508" y2="56.7042" gradientUnits="userSpaceOnUse">
<stop stop-color="#FFC444"/>
<stop offset="0.9964" stop-color="#F36F56"/>
</linearGradient>
<linearGradient id="paint7_linear" x1="88.6523" y1="58.9373" x2="88.9788" y2="46.4029" gradientUnits="userSpaceOnUse">
<stop stop-color="#FFC444"/>
<stop offset="0.9964" stop-color="#F36F56"/>
</linearGradient>
<linearGradient id="paint8_linear" x1="83.2697" y1="57.6335" x2="83.5678" y2="46.1926" gradientUnits="userSpaceOnUse">
<stop stop-color="#FFC444"/>
<stop offset="0.9964" stop-color="#F36F56"/>
</linearGradient>
<linearGradient id="paint9_linear" x1="93.8753" y1="57.9098" x2="94.1734" y2="46.4689" gradientUnits="userSpaceOnUse">
<stop stop-color="#FFC444"/>
<stop offset="0.9964" stop-color="#F36F56"/>
</linearGradient>
<linearGradient id="paint10_linear" x1="19.2458" y1="94.0071" x2="43.0107" y2="78.1208" gradientUnits="userSpaceOnUse">
<stop stop-color="#FFC444"/>
<stop offset="0.9964" stop-color="#F36F56"/>
</linearGradient>
<linearGradient id="paint11_linear" x1="27.7617" y1="73.0464" x2="27.5701" y2="61.328" gradientUnits="userSpaceOnUse">
<stop stop-color="#AA80F9"/>
<stop offset="0.9964" stop-color="#6165D7"/>
</linearGradient>
<linearGradient id="paint12_linear" x1="27.853" y1="74.2593" x2="27.7891" y2="64.0091" gradientUnits="userSpaceOnUse">
<stop stop-color="#AB316D"/>
<stop offset="1" stop-color="#792D3D"/>
</linearGradient>
<linearGradient id="paint13_linear" x1="27.0008" y1="59.5919" x2="28.6613" y2="39.5483" gradientUnits="userSpaceOnUse">
<stop stop-color="#AB316D"/>
<stop offset="1" stop-color="#792D3D"/>
</linearGradient>
<linearGradient id="paint14_linear" x1="21.0536" y1="59.099" x2="22.7144" y2="39.0554" gradientUnits="userSpaceOnUse">
<stop stop-color="#AB316D"/>
<stop offset="1" stop-color="#792D3D"/>
</linearGradient>
<linearGradient id="paint15_linear" x1="33.7624" y1="60.1518" x2="35.4232" y2="40.1082" gradientUnits="userSpaceOnUse">
<stop stop-color="#AB316D"/>
<stop offset="1" stop-color="#792D3D"/>
</linearGradient>
<linearGradient id="paint16_linear" x1="26.5596" y1="49.9281" x2="30.9683" y2="36.2177" gradientUnits="userSpaceOnUse">
<stop stop-color="#311944"/>
<stop offset="1" stop-color="#6B3976"/>
</linearGradient>
<linearGradient id="paint17_linear" x1="26.5598" y1="49.9283" x2="30.9685" y2="36.2179" gradientUnits="userSpaceOnUse">
<stop stop-color="#311944"/>
<stop offset="1" stop-color="#6B3976"/>
</linearGradient>
<linearGradient id="paint18_linear" x1="87.2806" y1="49.5284" x2="46.8111" y2="129.406" gradientUnits="userSpaceOnUse">
<stop stop-color="#FF9085"/>
<stop offset="1" stop-color="#FB6FBB"/>
</linearGradient>
<linearGradient id="paint19_linear" x1="57.6063" y1="108.808" x2="58.2949" y2="71.1093" gradientUnits="userSpaceOnUse">
<stop stop-color="#311944"/>
<stop offset="0.5554" stop-color="#6F2B60"/>
<stop offset="1" stop-color="#A03976"/>
</linearGradient>
<linearGradient id="paint20_linear" x1="58.6822" y1="83.5899" x2="61.3132" y2="100.738" gradientUnits="userSpaceOnUse">
<stop stop-color="#FFC444"/>
<stop offset="0.9964" stop-color="#F36F56"/>
</linearGradient>
<linearGradient id="paint21_linear" x1="57.4628" y1="57.3844" x2="56.8051" y2="100.908" gradientUnits="userSpaceOnUse">
<stop stop-color="#FFC444"/>
<stop offset="0.9964" stop-color="#F36F56"/>
</linearGradient>
<linearGradient id="paint22_linear" x1="46.8378" y1="54.9705" x2="51.1031" y2="98.2913" gradientUnits="userSpaceOnUse">
<stop stop-color="#FFC444"/>
<stop offset="0.9964" stop-color="#F36F56"/>
</linearGradient>
<linearGradient id="paint23_linear" x1="66.5686" y1="57.5222" x2="65.9108" y2="101.046" gradientUnits="userSpaceOnUse">
<stop stop-color="#FFC444"/>
<stop offset="0.9964" stop-color="#F36F56"/>
</linearGradient>
<linearGradient id="paint24_linear" x1="41.6821" y1="57.4703" x2="70.1949" y2="57.4703" gradientUnits="userSpaceOnUse">
<stop stop-color="#444B8C"/>
<stop offset="0.9964" stop-color="#3E4177"/>
</linearGradient>
<linearGradient id="paint25_linear" x1="59.5542" y1="49.4451" x2="57.7178" y2="65.3428" gradientUnits="userSpaceOnUse">
<stop stop-color="#FFC444"/>
<stop offset="0.9964" stop-color="#F36F56"/>
</linearGradient>
</defs>
</svg>
