<svg width="115" height="115" viewBox="0 0 115 115" fill="none" xmlns="http://www.w3.org/2000/svg">
<path d="M47.6346 30.1486C47.2853 30.1486 46.9919 29.8868 46.9639 29.5423C46.8801 28.7844 46.8382 28.0266 46.8242 27.2688C46.8102 26.8967 47.1176 26.5936 47.4949 26.5798H47.5089C47.8722 26.5798 48.1796 26.8692 48.1936 27.2412C48.2075 27.9577 48.2495 28.688 48.3333 29.4045C48.3752 29.7765 48.0958 30.1072 47.7325 30.1348C47.6905 30.1486 47.6626 30.1486 47.6346 30.1486ZM47.6766 24.32C47.6486 24.32 47.6207 24.32 47.5927 24.32C47.2154 24.2787 46.9499 23.948 46.9919 23.576C47.0757 22.8181 47.2015 22.0603 47.3552 21.33C47.425 20.9717 47.7883 20.7375 48.1516 20.8064C48.515 20.8753 48.7525 21.2335 48.6826 21.5918C48.5429 22.2945 48.4171 23.011 48.3333 23.7275C48.3193 24.072 48.0259 24.32 47.6766 24.32ZM49.032 18.6431C48.9621 18.6431 48.8783 18.6293 48.8084 18.6017C48.4591 18.4777 48.2774 18.0919 48.4032 17.7474C48.6547 17.0309 48.9481 16.3282 49.2695 15.6255C49.4232 15.2948 49.8284 15.1432 50.1638 15.2948C50.4992 15.4463 50.6529 15.8459 50.4992 16.1766C50.1917 16.838 49.9123 17.5132 49.6747 18.1884C49.5629 18.4639 49.3114 18.6431 49.032 18.6431ZM51.631 13.407C51.5052 13.407 51.3795 13.3795 51.2677 13.2968C50.9463 13.1039 50.8625 12.6905 51.0581 12.3736C51.4773 11.7398 51.9244 11.1059 52.3855 10.4996C52.6091 10.2103 53.0423 10.1552 53.3357 10.3756C53.6292 10.5961 53.6851 11.0232 53.4615 11.3126C53.0143 11.8775 52.5951 12.4838 52.2039 13.0901C52.0642 13.2968 51.8546 13.407 51.631 13.407ZM55.3479 8.85993C55.1662 8.85993 54.9986 8.79104 54.8588 8.66703C54.5933 8.40522 54.5933 7.97807 54.8588 7.71627C55.4038 7.17889 55.9767 6.66906 56.5775 6.1868C56.871 5.95255 57.2902 5.99389 57.5277 6.26947C57.7653 6.55883 57.7233 6.9722 57.4439 7.20645C56.8849 7.67493 56.34 8.1572 55.809 8.66703C55.6972 8.80482 55.5156 8.85993 55.3479 8.85993ZM59.987 5.24982C59.7634 5.24982 59.5399 5.13959 59.4141 4.9329C59.2185 4.61598 59.3163 4.20261 59.6377 4.00971C60.2944 3.61011 60.9651 3.23808 61.6498 2.8936C61.9852 2.72825 62.3904 2.85226 62.5581 3.18296C62.7258 3.51366 62.6 3.91325 62.2647 4.0786C61.6079 4.4093 60.9651 4.76755 60.3503 5.13959C60.2385 5.22226 60.1128 5.24982 59.987 5.24982ZM84.8594 3.66523C84.7616 3.66523 84.6638 3.65145 84.58 3.61011C83.9092 3.30697 83.2246 3.04517 82.5399 2.79715C82.1905 2.67314 81.9949 2.28732 82.1207 1.94285C82.2464 1.59837 82.6377 1.40546 82.987 1.52948C83.7136 1.7775 84.4402 2.06686 85.1389 2.38378C85.4743 2.53535 85.628 2.93494 85.4743 3.26564C85.3764 3.51366 85.1249 3.66523 84.8594 3.66523ZM65.3248 2.74203C65.0453 2.74203 64.7798 2.5629 64.682 2.28732C64.5563 1.94285 64.7519 1.55703 65.1012 1.43302C65.8278 1.185 66.5684 0.964534 67.323 0.785406C67.6863 0.702732 68.0496 0.909418 68.1474 1.26767C68.2452 1.62593 68.0216 1.98418 67.6583 2.08064C66.9457 2.25977 66.247 2.46645 65.5484 2.7007C65.4785 2.74203 65.3947 2.74203 65.3248 2.74203ZM79.2422 1.86017C79.2003 1.86017 79.1583 1.86017 79.1024 1.84639C78.3898 1.7086 77.6632 1.58459 76.9366 1.50192C76.5593 1.46058 76.2938 1.12988 76.3357 0.757848C76.3777 0.385814 76.713 0.124012 77.0903 0.165349C77.8588 0.248023 78.6273 0.372034 79.3819 0.523604C79.7452 0.592499 79.9828 0.950755 79.9129 1.30901C79.843 1.63971 79.5496 1.86017 79.2422 1.86017ZM71.0958 1.47436C70.7464 1.47436 70.453 1.21256 70.425 0.88186C70.3831 0.509825 70.6486 0.179128 71.0259 0.15157C71.7944 0.0688953 72.563 0.0275581 73.3315 0H73.3455C73.7088 0 74.0162 0.28936 74.0301 0.661395C74.0441 1.03343 73.7367 1.33657 73.3594 1.35035C72.6328 1.36413 71.8922 1.40546 71.1656 1.48814C71.1377 1.47436 71.1237 1.47436 71.0958 1.47436Z" fill="url(#paint0_linear)"/>
<path d="M89.0093 5.98017C88.8696 5.98017 88.7438 5.93883 88.6181 5.85616C88.3246 5.66325 88.0312 5.47035 87.7378 5.27744C87.4164 5.08453 87.3325 4.67116 87.5282 4.35424C87.7238 4.03732 88.143 3.95465 88.4644 4.14756C88.7718 4.34046 89.0932 4.54715 89.3866 4.75383C89.694 4.96052 89.7639 5.38767 89.5543 5.69081C89.4285 5.88372 89.2189 5.98017 89.0093 5.98017Z" fill="url(#paint1_linear)"/>
<path d="M100.034 23.259C99.7129 23.259 99.4195 23.0247 99.3636 22.694C99.3077 22.3496 99.2378 22.0051 99.168 21.6744C99.0981 21.3161 99.3356 20.9579 99.6989 20.889C100.062 20.8201 100.426 21.0543 100.495 21.4126C100.565 21.7708 100.635 22.1291 100.691 22.4873C100.747 22.8456 100.495 23.1901 100.132 23.259C100.104 23.2452 100.076 23.259 100.034 23.259Z" fill="url(#paint2_linear)"/>
<path d="M73.9603 53.4767C73.6529 53.4767 73.3315 53.4767 73.0241 53.4629C72.6468 53.4491 72.3534 53.146 72.3673 52.7739C72.3813 52.4019 72.7027 52.1125 73.066 52.1263C73.7926 52.1539 74.5192 52.1401 75.2319 52.1125C75.6091 52.0988 75.9305 52.3743 75.9445 52.7464C75.9585 53.1184 75.679 53.4353 75.3017 53.4491C74.8546 53.4629 74.4074 53.4767 73.9603 53.4767ZM69.4609 53.0908C69.419 53.0908 69.391 53.0908 69.3491 53.0771C68.6085 52.9531 67.854 52.7877 67.1274 52.6086C66.764 52.5121 66.5405 52.1539 66.6383 51.7956C66.7361 51.4374 67.0994 51.2169 67.4627 51.3133C68.1614 51.4925 68.874 51.644 69.5727 51.7543C69.936 51.8232 70.1875 52.1676 70.1316 52.5259C70.0617 52.8704 69.7823 53.0908 69.4609 53.0908ZM78.8509 53.0219C78.5295 53.0219 78.2501 52.8015 78.1802 52.4708C78.1103 52.1125 78.3479 51.7543 78.7252 51.6854C79.4238 51.5614 80.1365 51.396 80.8351 51.2031C81.1984 51.1067 81.5757 51.3133 81.6735 51.6716C81.7713 52.0299 81.5617 52.4019 81.1984 52.4983C80.4718 52.6912 79.7173 52.8704 78.9767 53.0082C78.9348 53.0219 78.8789 53.0219 78.8509 53.0219ZM63.8576 51.5062C63.7738 51.5062 63.6899 51.4925 63.6061 51.4511C62.9074 51.1618 62.2088 50.8449 61.538 50.5142C61.2027 50.3488 61.0769 49.9354 61.2446 49.6185C61.4123 49.2878 61.8315 49.1638 62.1529 49.3292C62.7956 49.6599 63.4524 49.9492 64.1231 50.2248C64.4724 50.3626 64.6401 50.7622 64.4864 51.0929C64.3746 51.3547 64.1231 51.5062 63.8576 51.5062ZM84.4123 51.3409C84.1468 51.3409 83.8953 51.1893 83.7835 50.9413C83.6298 50.5968 83.7975 50.211 84.1328 50.0594C84.7896 49.7839 85.4463 49.4669 86.0751 49.1363C86.4105 48.9571 86.8157 49.0811 86.9973 49.4118C87.179 49.7425 87.0532 50.1421 86.7179 50.3213C86.0472 50.6795 85.3625 50.9964 84.6638 51.2996C84.5939 51.3271 84.4961 51.3409 84.4123 51.3409ZM89.4566 48.5024C89.247 48.5024 89.0374 48.406 88.9117 48.2268C88.6881 47.9237 88.758 47.5103 89.0654 47.2899C89.6523 46.8765 90.2112 46.4218 90.7562 45.9671C91.0356 45.719 91.4688 45.7604 91.7203 46.036C91.9718 46.3115 91.9299 46.7387 91.6504 46.9867C91.0775 47.469 90.4767 47.9375 89.8619 48.3784C89.7361 48.4611 89.5964 48.5024 89.4566 48.5024ZM93.7604 44.6443C93.6067 44.6443 93.439 44.5892 93.3133 44.4789C93.0338 44.2309 93.0058 43.8175 93.2574 43.5282C93.7325 42.9908 94.1936 42.4396 94.6267 41.8747C94.8503 41.5715 95.2695 41.5164 95.5769 41.7369C95.8843 41.9574 95.9402 42.3707 95.7167 42.6739C95.2695 43.2664 94.7805 43.8589 94.2774 44.4238C94.1377 44.5616 93.956 44.6443 93.7604 44.6443ZM97.114 39.9456C97.0022 39.9456 96.8904 39.9181 96.7926 39.8629C96.4572 39.6838 96.3455 39.2842 96.5271 38.9535C96.8764 38.3335 97.1978 37.6859 97.4913 37.0382C97.645 36.6938 98.0502 36.5422 98.3856 36.6938C98.7349 36.8453 98.8886 37.2449 98.7349 37.5756C98.4275 38.2508 98.0921 38.9397 97.7288 39.5874C97.5891 39.8216 97.3515 39.9456 97.114 39.9456ZM99.3357 34.6407C99.2799 34.6407 99.21 34.6269 99.1541 34.6131C98.7908 34.5167 98.5812 34.1446 98.693 33.7864C98.8886 33.1112 99.0563 32.4085 99.21 31.7195C99.2798 31.3613 99.6432 31.127 100.006 31.1959C100.37 31.2648 100.607 31.6231 100.537 31.9813C100.384 32.7116 100.216 33.4419 100.006 34.1584C99.9086 34.4478 99.6292 34.6407 99.3357 34.6407ZM100.328 28.9913C100.314 28.9913 100.3 28.9913 100.286 28.9913C99.9086 28.9637 99.6292 28.6468 99.6431 28.2885C99.6711 27.7649 99.6851 27.2413 99.6851 26.7177C99.6851 26.5248 99.6851 26.3457 99.6851 26.1528C99.6711 25.7807 99.9785 25.4776 100.356 25.4638C100.733 25.4501 101.04 25.7532 101.054 26.1252C101.054 26.3181 101.054 26.5248 101.054 26.7177C101.054 27.2689 101.04 27.82 100.999 28.3712C100.971 28.7157 100.677 28.9913 100.328 28.9913Z" fill="url(#paint3_linear)"/>
<path d="M58.7433 48.7367C58.6036 48.7367 58.4778 48.6954 58.3521 48.6127C58.0447 48.406 57.7512 48.1855 57.4578 47.9651C57.1643 47.7446 57.1084 47.3175 57.332 47.0281C57.5556 46.7387 57.9888 46.6836 58.2822 46.9041C58.5617 47.1108 58.8551 47.3175 59.1346 47.5242C59.442 47.7308 59.5119 48.158 59.3023 48.4611C59.1625 48.6403 58.9529 48.7367 58.7433 48.7367Z" fill="url(#paint4_linear)"/>
<path d="M59.6516 40.9786C59.7354 41.0888 59.8752 41.1164 60.0009 41.0751L63.62 39.7661C65.0453 40.8546 66.6662 41.7227 68.4128 42.3152L69.2931 46.0217C69.3211 46.1458 69.4329 46.2422 69.5726 46.256L74.1838 46.7107C74.3235 46.7245 74.4493 46.6556 74.5052 46.5316L76.1261 43.073C77.9705 42.8388 79.7312 42.3014 81.3521 41.5298L84.6358 43.5277C84.7476 43.5966 84.9013 43.5829 84.9991 43.5002L88.5902 40.6066C88.702 40.5239 88.73 40.3861 88.688 40.2621L87.3606 36.6933C88.4645 35.2879 89.3448 33.6895 89.9456 31.9671L93.7044 31.099C93.8302 31.0715 93.928 30.9612 93.942 30.8234L94.4031 26.2764C94.4171 26.1386 94.3472 26.0146 94.2214 25.9594L90.7142 24.3611C90.4766 22.5422 89.9317 20.8061 89.1492 19.2077L91.1753 15.9696C91.2451 15.8594 91.2312 15.7078 91.1473 15.6114L88.2129 12.0701C88.1291 11.9599 87.9894 11.9324 87.8636 11.9737L84.2585 13.2965C82.8332 12.2079 81.2123 11.3399 79.4657 10.7474L78.5854 7.04079C78.5574 6.91678 78.4456 6.82032 78.3059 6.80655L73.6947 6.35184C73.555 6.33806 73.4292 6.40695 73.3733 6.53096L71.7524 9.98951C69.908 10.2238 68.1473 10.7611 66.5264 11.5328L63.2427 9.5348C63.1309 9.4659 62.9772 9.47968 62.8794 9.56236L59.2883 12.456C59.1765 12.5386 59.1485 12.6764 59.1905 12.8004L60.5179 16.3692C59.414 17.7747 58.5337 19.373 57.9329 21.0954L54.1741 21.9635C54.0483 21.9911 53.9505 22.1013 53.9365 22.2391L53.4754 26.7862C53.4614 26.924 53.5313 27.048 53.657 27.1031L57.1643 28.7015C57.4019 30.5203 57.9468 32.2565 58.7293 33.8548L56.7032 37.0929C56.6334 37.2031 56.6473 37.3547 56.7312 37.4512L59.6516 40.9786Z" fill="url(#paint5_linear)"/>
<path opacity="0.56" d="M73.9462 31.113C71.6825 31.113 69.6844 29.4733 69.349 27.186C68.9717 24.6782 70.7324 22.3495 73.2755 21.9775C74.5051 21.7984 75.7348 22.1015 76.7269 22.8318C77.719 23.5621 78.3757 24.6369 78.5574 25.8494C78.9347 28.3572 77.174 30.6859 74.6309 31.0579C74.4073 31.0992 74.1698 31.113 73.9462 31.113ZM73.9602 23.0109C73.7785 23.0109 73.6109 23.0247 73.4292 23.0523C71.4869 23.3416 70.1315 25.1329 70.411 27.0482C70.7044 28.9635 72.5209 30.3001 74.4632 30.0245C76.4055 29.7351 77.7609 27.9438 77.4814 26.0285C77.3417 25.0916 76.8387 24.2786 76.0841 23.7137C75.4553 23.2452 74.7147 23.0109 73.9602 23.0109Z" fill="white"/>
<path opacity="0.56" d="M74.044 37.7545C73.6528 37.7545 73.2615 37.7407 72.8703 37.6994C72.7445 37.6856 72.6187 37.6718 72.493 37.658C71.8782 37.5753 71.2913 37.4513 70.7044 37.2722C70.6904 37.2722 70.6904 37.2722 70.6765 37.2584C70.6485 37.2584 70.6345 37.2447 70.6066 37.2309C70.5647 37.2171 70.5228 37.2033 70.4808 37.1895C70.3691 37.1482 70.2992 37.0517 70.2992 36.9415C70.2992 36.914 70.2992 36.8864 70.3132 36.8588C70.3551 36.7211 70.5088 36.6384 70.6485 36.6935C71.3891 36.9277 72.1437 37.0793 72.9262 37.162C76.7688 37.5478 80.3599 35.9081 82.5957 33.1109C83.8393 31.5539 84.6637 29.6524 84.8733 27.5442C84.9152 27.1722 84.9292 26.8001 84.9292 26.4419C84.9292 23.9754 84.0768 21.6054 82.4699 19.6626C80.6254 17.4304 78.0124 16.0525 75.12 15.7631C69.1394 15.1706 63.7737 19.4835 63.1728 25.3809C63.1309 25.7391 63.1169 26.1112 63.1169 26.4694C63.1169 28.0402 63.4663 29.5973 64.1509 31.0303C64.1649 31.0716 64.1789 31.0992 64.1789 31.1405C64.1789 31.237 64.123 31.3334 64.0252 31.3886C63.8855 31.4575 63.7317 31.3886 63.6619 31.2645C62.9492 29.7626 62.5859 28.1367 62.5859 26.4832C62.5859 26.0974 62.5999 25.7254 62.6418 25.3396C63.2846 19.139 68.9019 14.6194 75.1898 15.2395C78.236 15.5426 80.9748 17.0032 82.9031 19.3319C84.5799 21.3712 85.4881 23.8514 85.4881 26.4419C85.4881 26.8277 85.4742 27.2135 85.4322 27.5993C85.1248 30.6032 83.6437 33.3038 81.2822 35.2054C79.2002 36.8726 76.671 37.7545 74.044 37.7545Z" fill="white"/>
<path d="M110.668 62.2671C110.738 62.3911 110.71 62.5427 110.612 62.6392C110.417 62.8183 110.221 62.9974 110.011 63.1765C109.886 63.2868 109.676 63.273 109.564 63.149C109.453 63.025 109.467 62.8183 109.592 62.708C109.788 62.5427 109.984 62.3773 110.165 62.1982C110.291 62.0742 110.487 62.088 110.612 62.212C110.64 62.212 110.668 62.2396 110.668 62.2671Z" fill="url(#paint6_linear)"/>
<path d="M108.782 63.7696C108.852 63.9073 108.81 64.0865 108.67 64.1691C108.279 64.4172 107.888 64.6514 107.482 64.8581C107.398 64.8994 107.315 64.9408 107.217 64.9821C107.063 65.0648 106.867 64.9821 106.798 64.8443C106.714 64.6928 106.784 64.4998 106.937 64.4309C107.021 64.3896 107.105 64.3483 107.189 64.3069C107.58 64.1003 107.957 63.8798 108.335 63.6455C108.474 63.5491 108.67 63.5904 108.768 63.7282C108.768 63.742 108.782 63.7558 108.782 63.7696ZM105.847 65.2026C105.847 65.2164 105.861 65.2301 105.861 65.2439C105.917 65.4093 105.833 65.5884 105.666 65.6435C105.135 65.8226 104.59 65.9742 104.059 66.0982C103.891 66.1396 103.723 66.0293 103.682 65.864C103.64 65.6986 103.751 65.5333 103.919 65.4919C104.436 65.3817 104.953 65.2301 105.456 65.0648C105.624 64.9959 105.778 65.0648 105.847 65.2026ZM102.662 65.8915C102.676 65.9329 102.689 65.9604 102.689 66.0018C102.703 66.1671 102.578 66.3187 102.41 66.3462C101.851 66.4014 101.292 66.4151 100.733 66.4014C100.566 66.4014 100.426 66.2498 100.426 66.0844C100.426 65.9191 100.58 65.7813 100.747 65.7813C101.278 65.7951 101.823 65.7813 102.34 65.74C102.48 65.7124 102.606 65.7813 102.662 65.8915ZM99.3918 65.7813C99.4197 65.8364 99.4337 65.9053 99.4197 65.9742C99.3918 66.1396 99.2381 66.2636 99.0564 66.236C98.5115 66.1533 97.9525 66.0293 97.4216 65.8778C97.2539 65.8364 97.1561 65.6573 97.212 65.4919C97.2539 65.3266 97.4355 65.2301 97.6032 65.2852C98.1202 65.423 98.6372 65.5471 99.1682 65.6297C99.2521 65.6435 99.3359 65.6986 99.3918 65.7813ZM96.2478 64.8994C96.2897 64.9821 96.3037 65.0786 96.2618 65.1612C96.1919 65.3128 96.0103 65.3955 95.8426 65.3266C95.3256 65.1061 94.8225 64.8581 94.3474 64.5825C94.1937 64.4998 94.1518 64.3069 94.2357 64.1554C94.3195 64.0038 94.5151 63.9625 94.6688 64.0451C95.1299 64.3069 95.605 64.5412 96.0941 64.7479C96.15 64.7892 96.2059 64.8305 96.2478 64.8994ZM93.4112 63.2735C93.4671 63.37 93.4531 63.5078 93.3833 63.6042C93.2715 63.742 93.0759 63.7696 92.9361 63.6593C92.489 63.3286 92.0698 62.9704 91.6646 62.5846C91.5388 62.4605 91.5388 62.2676 91.6646 62.1436C91.7903 62.0196 91.986 62.0196 92.1117 62.1436C92.489 62.5157 92.8942 62.8601 93.3274 63.1771C93.3553 63.2046 93.3833 63.246 93.4112 63.2735ZM91.0637 61.0275C91.1336 61.1515 91.1056 61.3169 90.9799 61.4133C90.8401 61.5236 90.6445 61.496 90.5327 61.3582C90.1834 60.9311 89.862 60.4764 89.5686 60.0079C89.4847 59.8563 89.5267 59.6634 89.6664 59.5807C89.8201 59.4843 90.0017 59.5394 90.0996 59.6772C90.379 60.1319 90.6864 60.559 91.0218 60.9724C91.0497 61 91.0637 61.0137 91.0637 61.0275ZM88.7581 56.7698C88.7721 56.7836 88.7721 56.7973 88.7861 56.8249C88.9258 57.2521 89.0935 57.693 89.2751 58.1064C89.3031 58.1753 89.331 58.2304 89.359 58.2993C89.4288 58.4508 89.359 58.6437 89.2053 58.7126C89.0516 58.7815 88.8559 58.7126 88.7861 58.5611C88.7581 58.4922 88.7302 58.4233 88.7022 58.3682C88.5066 57.9272 88.3389 57.4725 88.1852 57.0178C88.1293 56.8525 88.2271 56.6733 88.3948 56.632C88.5346 56.5769 88.6883 56.6458 88.7581 56.7698Z" fill="url(#paint7_linear)"/>
<path d="M113.141 46.587C113.225 46.7386 113.169 46.9177 113.016 47.0004C112.862 47.083 112.666 47.0279 112.583 46.8763C112.331 46.4216 112.052 45.9807 111.758 45.5536C111.66 45.4158 111.688 45.2229 111.828 45.1264C111.968 45.0299 112.163 45.0575 112.261 45.1953C112.583 45.65 112.876 46.1047 113.141 46.587ZM113.812 48.0338C113.812 48.0476 113.826 48.0476 113.826 48.0613C114.022 48.5712 114.203 49.081 114.343 49.6046C114.385 49.7699 114.287 49.9353 114.12 49.9904C113.952 50.0317 113.784 49.9353 113.728 49.7699C113.603 49.2739 113.435 48.7779 113.239 48.2956C113.169 48.1302 113.253 47.9511 113.421 47.896C113.575 47.8271 113.742 47.896 113.812 48.0338ZM111.283 43.9965C111.353 44.1205 111.325 44.2721 111.213 44.3686C111.087 44.4788 110.892 44.4788 110.766 44.3548C110.417 43.969 110.039 43.6107 109.634 43.2662C109.508 43.156 109.48 42.9631 109.606 42.8253C109.718 42.7013 109.914 42.6737 110.053 42.7977C110.473 43.156 110.864 43.528 111.241 43.9276C111.255 43.9552 111.269 43.9827 111.283 43.9965ZM114.623 51.1065C114.637 51.1341 114.651 51.1754 114.651 51.203C114.72 51.7403 114.762 52.2915 114.762 52.8289C114.762 52.9942 114.623 53.1458 114.455 53.1458C114.287 53.1458 114.134 53.008 114.134 52.8427C114.134 52.3328 114.092 51.8092 114.022 51.2994C113.994 51.1341 114.12 50.9687 114.287 50.9549C114.441 50.9274 114.567 50.9963 114.623 51.1065ZM108.838 41.9297C108.894 42.0261 108.894 42.1501 108.824 42.2466C108.726 42.3844 108.53 42.4257 108.391 42.3293C107.957 42.0399 107.496 41.7781 107.035 41.5438C106.881 41.4612 106.812 41.282 106.895 41.1305C106.979 40.9789 107.161 40.91 107.315 40.9927C107.804 41.2407 108.279 41.5163 108.74 41.8194C108.782 41.847 108.81 41.8883 108.838 41.9297ZM105.959 40.4966C106.001 40.5655 106.001 40.662 105.973 40.7447C105.917 40.91 105.736 40.9927 105.568 40.9376C105.079 40.7584 104.562 40.6206 104.059 40.4966C103.891 40.4553 103.779 40.29 103.821 40.1246C103.863 39.9593 104.031 39.849 104.199 39.8904C104.73 40.0144 105.261 40.1659 105.778 40.3451C105.875 40.3864 105.931 40.4415 105.959 40.4966ZM102.829 39.7939C102.857 39.849 102.871 39.9041 102.857 39.973C102.843 40.1384 102.689 40.2624 102.508 40.2486C101.991 40.1935 101.46 40.1659 100.929 40.1797C100.761 40.1797 100.607 40.0419 100.607 39.8766C100.607 39.7112 100.747 39.5597 100.915 39.5597C101.46 39.5459 102.019 39.5734 102.564 39.6286C102.689 39.6423 102.787 39.6975 102.829 39.7939Z" fill="url(#paint8_linear)"/>
<path d="M114.65 54.2894C114.678 54.3446 114.692 54.3997 114.678 54.4686C114.65 54.7304 114.609 54.9922 114.567 55.254C114.539 55.4193 114.371 55.5296 114.203 55.502C114.036 55.4744 113.924 55.3091 113.952 55.1437C113.994 54.8957 114.036 54.6477 114.064 54.3997C114.078 54.2343 114.245 54.1103 114.413 54.1241C114.525 54.1379 114.609 54.2068 114.65 54.2894Z" fill="url(#paint9_linear)"/>
<path d="M110.934 55.9294C110.962 55.8743 110.948 55.7916 110.892 55.7503L109.453 54.4688C109.606 53.5869 109.62 52.6775 109.48 51.7681L110.948 50.5142C111.004 50.4729 111.018 50.404 110.99 50.3351L110.123 48.1993C110.095 48.1304 110.039 48.1029 109.97 48.1029L108.027 48.1993C107.496 47.4415 106.84 46.7939 106.113 46.2703L106.253 44.355C106.253 44.2861 106.225 44.231 106.155 44.2034L104.017 43.294C103.961 43.2664 103.877 43.2802 103.835 43.3353L102.536 44.7546C101.641 44.603 100.719 44.5892 99.797 44.727L98.5254 43.2802C98.4835 43.2251 98.4136 43.2113 98.3438 43.2389L96.1779 44.0932C96.108 44.1207 96.0801 44.1759 96.0801 44.2447L96.1779 46.16C95.4094 46.6836 94.7526 47.3313 94.2216 48.0478L92.2794 47.91C92.2095 47.91 92.1536 47.9375 92.1256 48.0064L91.2034 50.1146C91.1755 50.1697 91.1894 50.2524 91.2453 50.2938L92.6846 51.5752C92.5309 52.4571 92.5169 53.3665 92.6566 54.2759L91.1894 55.5298C91.1335 55.5711 91.1196 55.64 91.1475 55.7089L92.0139 57.8447C92.0418 57.9136 92.0977 57.9411 92.1676 57.9411L94.1099 57.8447C94.6408 58.6025 95.2976 59.2501 96.0242 59.7737L95.8845 61.689C95.8845 61.7579 95.9124 61.813 95.9823 61.8406L98.1202 62.75C98.1761 62.7776 98.2599 62.7638 98.3018 62.7087L99.6013 61.2894C100.496 61.441 101.418 61.4548 102.34 61.317L103.612 62.7638C103.654 62.8189 103.723 62.8327 103.793 62.8051L105.959 61.9508C106.029 61.9233 106.057 61.8682 106.057 61.7993L105.959 59.884C106.728 59.3604 107.384 58.7128 107.915 57.9962L109.858 58.134C109.928 58.134 109.983 58.1065 110.011 58.0376L110.934 55.9294Z" fill="url(#paint10_linear)"/>
<path opacity="0.56" d="M103.178 51.9335C103.416 52.3745 103.5 52.8843 103.416 53.3803C103.318 54.0004 102.983 54.5515 102.466 54.9098C101.404 55.6676 99.9087 55.4334 99.1402 54.3862C98.3717 53.339 98.6092 51.8646 99.6712 51.1068C100.188 50.7347 100.817 50.5832 101.446 50.6934C102.075 50.7899 102.634 51.1206 102.997 51.6304C103.067 51.7268 103.123 51.8233 103.178 51.9335ZM99.5175 53.8213C99.5594 53.8902 99.6013 53.9728 99.6572 54.0417C100.23 54.8133 101.32 54.9787 102.103 54.4275C102.48 54.152 102.731 53.7524 102.801 53.2976C102.871 52.8429 102.759 52.3882 102.494 52.0162C102.214 51.6442 101.809 51.3961 101.348 51.3272C100.887 51.2584 100.426 51.3686 100.048 51.6304C99.3218 52.1264 99.1123 53.0634 99.5175 53.8213Z" fill="white"/>
<path opacity="0.56" d="M106.281 50.2801C106.378 50.4592 106.462 50.6383 106.532 50.8174C106.686 51.1895 106.798 51.5753 106.867 51.9611C106.867 51.9749 106.867 52.0024 106.881 52.0162C106.909 52.154 106.839 52.278 106.714 52.3469C106.686 52.3607 106.658 52.3745 106.616 52.3745C106.448 52.402 106.281 52.2918 106.253 52.1264C106.183 51.7544 106.085 51.3962 105.945 51.0517C105.931 51.0379 105.931 51.0103 105.917 50.9966C105.582 50.1836 105.037 49.4809 104.366 48.9435C104.003 48.6541 103.584 48.4061 103.15 48.2132H103.137C103.123 48.2132 103.109 48.1994 103.109 48.1994C101.809 47.6483 100.37 47.6345 99.0423 48.1581C98.8747 48.227 98.707 48.2959 98.5533 48.3785C97.4773 48.9297 96.625 49.8391 96.1499 50.9552C95.5909 52.2367 95.577 53.6559 96.108 54.9649C96.6389 56.2602 97.645 57.2798 98.9445 57.831C100.244 58.3821 101.683 58.3959 103.011 57.8723C103.178 57.8034 103.346 57.7345 103.5 57.6519C104.185 57.2936 104.785 56.7975 105.26 56.1913C105.288 56.1499 105.33 56.1224 105.358 56.1086C105.456 56.0535 105.596 56.0673 105.694 56.1362C105.833 56.2464 105.861 56.4393 105.75 56.5771C105.219 57.266 104.548 57.8172 103.779 58.2168C103.598 58.3132 103.416 58.3959 103.234 58.4648C101.767 59.0435 100.146 59.0298 98.693 58.4097C97.2398 57.7896 96.108 56.6598 95.5211 55.1992C94.9342 53.7524 94.9482 52.154 95.577 50.721C96.1219 49.4671 97.0581 48.4612 98.2738 47.8412C98.4555 47.7447 98.6371 47.662 98.8327 47.5931C101.655 46.4357 104.883 47.662 106.281 50.2801Z" fill="white"/>
<path d="M39.0691 103.274C39.0691 103.274 41.6402 69.46 56.4798 64.9956C56.4798 64.9956 79.5916 62.2949 92.8801 67.2691L90.0855 110.094C90.0855 110.094 52.5254 118.5 39.0691 103.274Z" fill="url(#paint11_linear)"/>
<path d="M64.9478 56.3558C64.9478 56.3558 67.3232 62.0466 67.9241 66.511C68.1057 67.82 69.1258 68.8534 70.4532 69.0739C73.2898 69.5424 77.9988 69.8042 80.8493 67.2275C81.4781 66.6626 81.7017 65.7532 81.4083 64.954C80.2345 61.7021 74.1002 48.1573 70.7606 46.0767L64.9478 56.3558Z" fill="url(#paint12_linear)"/>
<path d="M89.1074 98.1616C89.1074 98.1892 89.1074 98.2167 89.1074 98.2305C89.1633 105.299 79.4519 105.988 79.4519 105.988C79.4519 105.988 76.6712 101.441 73.122 101.289C69.5588 101.138 64.6262 106.856 64.6262 106.856L72.5211 108.11C72.5211 108.11 87.5843 117.025 97.9106 106.429C96.094 99.8427 91.7483 98.3959 89.1074 98.1616Z" fill="url(#paint13_linear)"/>
<path d="M92.8802 67.269C83.0989 70.6862 84.5102 78.2647 84.5102 78.2647C84.5102 78.2647 89.0236 91.0655 89.1074 98.1617C91.7344 98.3959 96.0941 99.8427 97.9106 106.429C98.1621 106.181 98.3997 105.919 98.6372 105.644C110.99 91.5477 92.8802 67.269 92.8802 67.269Z" fill="url(#paint14_linear)"/>
<path d="M89.1073 98.5339C88.8977 98.5339 88.73 98.3685 88.73 98.1618C88.6741 92.6502 85.8795 83.5974 84.6778 79.9597C84.6079 79.7668 84.7197 79.5463 84.9293 79.4912C85.1249 79.4223 85.3485 79.5325 85.4044 79.7392C86.6061 83.4045 89.4287 92.5538 89.4846 98.1618C89.4985 98.3685 89.3309 98.5339 89.1073 98.5339Z" fill="url(#paint15_linear)"/>
<path d="M54.2441 42.0259C54.2441 42.3152 60.6579 59.9249 60.6579 59.9249L70.7745 56.1081L67.2113 38.5122C67.2113 38.5122 54.2441 37.2859 54.2441 42.0259Z" fill="url(#paint16_linear)"/>
<path d="M65.4366 42.7975L68.0496 51.9054C68.0776 52.0156 68.1055 52.1397 68.1055 52.2637C68.1055 53.0077 67.9239 55.5706 65.2829 55.2124C62.8795 54.8955 60.6997 54.6474 59.3024 55.2951C58.6736 55.5844 58.3801 56.3009 58.6177 56.9348C59.2046 58.5331 60.5879 62.1157 62.2647 65.0506C62.6001 65.6431 63.3546 65.8774 63.9834 65.588C65.8838 64.7337 69.8382 62.8322 72.6608 60.5587C73.0381 60.2555 73.2198 59.7733 73.1359 59.291C72.6888 56.9623 71.3753 49.8661 71.3194 47.8406C71.2635 45.9391 73.4294 44.4785 74.3935 43.9273C74.7009 43.7482 74.9245 43.4589 75.0083 43.1006C75.3018 41.8743 75.5673 39.0909 71.9761 38.4846C71.2216 38.3606 70.7325 37.6441 70.8862 36.9138C71.1936 35.4394 71.0958 33.2899 68.2592 32.4907C65.3808 31.6778 63.5782 33.3864 62.656 34.6954C62.2787 35.219 61.594 35.3981 60.9931 35.1363C60.6578 34.9847 60.2386 34.9847 59.8054 35.343C59.2185 35.839 58.3103 35.6875 57.8771 35.0536C57.0387 33.8411 55.5156 32.6285 52.9445 33.4415C48.3753 34.9021 48.5849 40.0968 50.2617 42.9215C51.9385 45.7462 56.8012 43.886 59.1068 42.0121C60.8534 40.5928 63.5223 41.4333 64.6961 41.9294C65.0454 42.0947 65.3249 42.4116 65.4366 42.7975Z" fill="url(#paint17_linear)"/>
<path d="M71.6968 51.2302C71.6968 51.2302 69.503 46.1182 71.2915 44.5336C73.0801 42.949 75.5813 43.4864 75.4975 47.441C75.3997 52.3463 71.6968 51.2302 71.6968 51.2302Z" fill="url(#paint18_linear)"/>
<path d="M75.7489 110.288C75.7209 110.288 75.693 110.288 75.665 110.288L49.8704 110.246C48.9202 110.246 48.1377 109.419 48.1377 108.4C48.1377 107.38 48.9202 106.54 49.8704 106.553L75.665 106.595C76.6152 106.595 77.3977 107.421 77.3977 108.441C77.3977 109.433 76.6711 110.246 75.7489 110.288Z" fill="url(#paint19_linear)"/>
<path d="M15.1049 72.8496H47.3133C49.6887 72.8496 51.8546 74.3102 52.8607 76.5975L67.7562 110.26H27.7228C26.1857 110.26 24.8163 109.268 24.2574 107.738L12.7155 76.5975C12.0448 74.8062 13.2884 72.8496 15.1049 72.8496Z" fill="url(#paint20_linear)"/>
<path d="M37.7976 90.1146C38.4963 92.4295 37.9792 94.6755 36.6518 95.1302C35.3243 95.5849 33.6755 94.083 32.9768 91.7681C32.2781 89.4532 32.7952 87.2072 34.1226 86.7525C35.4501 86.2978 37.0989 87.7997 37.7976 90.1146Z" fill="url(#paint21_linear)"/>
<path d="M113.323 114.586H9.92069C8.99845 114.586 8.2439 113.842 8.2439 112.933V111.872C8.2439 110.962 8.99845 110.218 9.92069 110.218H113.323C114.245 110.218 115 110.962 115 111.872V112.933C115 113.842 114.245 114.586 113.323 114.586Z" fill="url(#paint22_linear)"/>
<path d="M46.7823 3.51368V16.1766C46.7823 17.6785 45.5806 18.9187 44.0575 18.9876L28.0022 19.7316C26.3674 19.8005 25.012 18.5191 25.012 16.9207V3.51368C25.012 1.95664 26.2975 0.702748 27.8625 0.702748H43.9178C45.5107 0.688969 46.7823 1.95664 46.7823 3.51368Z" fill="url(#paint23_linear)"/>
<path opacity="0.73" d="M27.7366 10.2794C27.1917 7.13775 28.3515 5.40159 29.3995 4.49217C31.3976 2.78357 34.9608 2.38398 38.4681 3.4863C41.9055 4.56107 44.3369 7.68891 43.8758 10.4447C43.6941 11.5333 42.7579 13.9308 38.0349 14.3029C39.027 14.7713 40.3685 15.3501 41.5981 15.6945C41.8217 15.7634 41.9754 15.9701 41.9475 16.2044C41.9195 16.4386 41.7239 16.604 41.4863 16.6177C41.3466 16.6177 41.1789 16.6177 40.9693 16.6177C38.0349 16.6177 28.7567 16.1493 27.7366 10.2794ZM36.3721 13.5037C40.2707 13.5863 42.702 12.4013 43.0513 10.2932C43.4426 7.97827 41.2348 5.22246 38.2306 4.28549C35.5756 3.45874 31.9985 3.38985 29.9863 5.12601C28.6868 6.24211 28.2117 7.92316 28.603 10.1416C29.3575 14.4958 35.5197 15.5016 39.1668 15.7221C37.5598 15.0607 36.2464 14.3442 36.1765 14.3029L34.6814 13.4761L36.3721 13.5037Z" fill="white"/>
<path d="M31.0345 42.4393H16.5582C15.4543 42.4393 14.5601 41.5574 14.5601 40.4689V26.1524C14.5601 25.119 15.3565 24.2647 16.4045 24.182L31.831 22.9557C33.0467 22.8593 34.0667 23.8513 33.9969 25.0501L33.0467 40.5929C32.9768 41.6263 32.0965 42.4393 31.0345 42.4393Z" fill="url(#paint24_linear)"/>
<path d="M18.6122 39.6557C18.2209 39.6557 17.8437 39.5041 17.5642 39.2423C17.2568 38.953 17.0891 38.5534 17.0891 38.14V28.9632C17.0891 28.7014 17.2987 28.4947 17.5642 28.4947C17.8297 28.4947 18.0393 28.7014 18.0393 28.9632V38.14C18.0393 38.3054 18.1092 38.4432 18.2209 38.5534C18.3327 38.6636 18.5004 38.7187 18.6541 38.705L29.679 38.0573C29.9864 38.0436 30.224 37.7818 30.224 37.4786V28.4671C30.224 28.3018 30.1541 28.1502 30.0284 28.04C29.9026 27.9297 29.7489 27.8746 29.5812 27.8884L20.4008 28.784C20.0934 28.8116 19.9676 29.0321 19.9257 29.1147C19.8838 29.2112 19.7999 29.4454 19.9816 29.6935L23.4749 34.461C23.5867 34.6126 23.7544 34.6953 23.936 34.6953C24.1177 34.6953 24.2853 34.6126 24.3971 34.461L28.2538 29.3903C28.4075 29.1836 28.7149 29.1423 28.9245 29.2939C29.1341 29.4454 29.176 29.7486 29.0223 29.9553L25.1657 35.026C24.8722 35.4118 24.4251 35.646 23.922 35.6322C23.433 35.6322 22.9858 35.398 22.6924 35.0122L19.1991 30.2446C18.8777 29.8037 18.8078 29.2388 19.0454 28.7427C19.2689 28.2467 19.744 27.916 20.289 27.8608L29.4694 26.9652C29.9026 26.9239 30.3358 27.0617 30.6572 27.351C30.9785 27.6404 31.1602 28.04 31.1602 28.4671V37.4786C31.1602 38.2778 30.5314 38.9392 29.7209 38.9943L18.696 39.6419C18.6821 39.6557 18.6541 39.6557 18.6122 39.6557Z" fill="white"/>
<path d="M1.42524 50.9826L4.06619 66.0707C4.23387 67.0076 5.07226 67.6828 6.05039 67.6552L29.3019 66.8147C30.2661 66.7734 31.0625 66.0431 31.1604 65.0923C31.5097 61.6614 32.1385 53.6557 31.0486 48.5437C30.8669 47.6894 30.1124 47.0556 29.232 47.0142C19.87 46.656 11.0388 47.1107 2.94833 48.7917C1.9143 48.9984 1.25756 49.9629 1.42524 50.9826Z" fill="url(#paint25_linear)"/>
<path opacity="0.5" d="M2.94833 51.6576L5.37968 65.5606C5.53338 66.4287 6.31589 67.0488 7.21017 67.0212L28.6312 66.2358C29.5255 66.2083 30.2521 65.5331 30.3359 64.6512C30.6573 61.4821 31.2302 54.1103 30.2381 49.4116C30.0704 48.6124 29.3857 48.0337 28.5613 48.0061C19.9398 47.6754 11.7934 48.1026 4.34566 49.6458C3.40945 49.8387 2.79462 50.7344 2.94833 51.6576Z" fill="white"/>
<path d="M10.4519 53.6006C10.5497 54.3722 9.99082 55.0749 9.20831 55.1714C8.42581 55.2678 7.71317 54.7167 7.61536 53.9451C7.51755 53.1734 8.07648 52.4707 8.85898 52.3742C9.64148 52.2778 10.3541 52.8289 10.4519 53.6006Z" fill="white"/>
<path d="M27.7089 53.1597C27.653 53.1597 27.5971 53.1597 27.5551 53.1597C23.3911 52.6499 18.724 52.8979 13.3164 53.9038C12.9671 53.9727 12.6177 53.7384 12.5479 53.3939C12.478 53.0495 12.7155 52.705 13.0649 52.6361C18.6123 51.6027 23.4051 51.3546 27.7089 51.8782C28.0722 51.9196 28.3237 52.2503 28.2818 52.5948C28.2398 52.8979 28.0023 53.1184 27.7089 53.1597Z" fill="white"/>
<path d="M27.5412 56.4942C27.4714 56.508 27.4015 56.4942 27.3316 56.4804C21.6725 55.3092 13.8614 57.252 13.7776 57.2796C13.4282 57.3623 13.0649 57.1556 12.9811 56.8111C12.8972 56.4666 13.1068 56.1084 13.4562 56.0257C13.7915 55.943 21.6445 53.9864 27.5971 55.2265C27.9465 55.2954 28.184 55.6399 28.1002 55.9844C28.0443 56.2599 27.8067 56.4666 27.5412 56.4942Z" fill="white"/>
<path d="M27.9184 59.5391C27.8486 59.5529 27.7787 59.5391 27.7088 59.5253C22.0497 58.3541 14.2386 60.2969 14.1548 60.3245C13.8054 60.4072 13.4421 60.2005 13.3583 59.856C13.2744 59.5115 13.484 59.1533 13.8334 59.0706C14.1687 58.9879 22.0217 57.0313 27.9743 58.2714C28.3237 58.3403 28.5612 58.6848 28.4774 59.0293C28.4215 59.3049 28.1979 59.5115 27.9184 59.5391Z" fill="white"/>
<defs>
<linearGradient id="paint0_linear" x1="89.226" y1="-70.9872" x2="50.4622" y2="74.6755" gradientUnits="userSpaceOnUse">
<stop stop-color="#B37CFF"/>
<stop offset="1" stop-color="#F895E7"/>
</linearGradient>
<linearGradient id="paint1_linear" x1="107.992" y1="-65.9932" x2="69.2277" y2="79.6695" gradientUnits="userSpaceOnUse">
<stop stop-color="#B37CFF"/>
<stop offset="1" stop-color="#F895E7"/>
</linearGradient>
<linearGradient id="paint2_linear" x1="122.95" y1="-62.0124" x2="84.1861" y2="83.6497" gradientUnits="userSpaceOnUse">
<stop stop-color="#B37CFF"/>
<stop offset="1" stop-color="#F895E7"/>
</linearGradient>
<linearGradient id="paint3_linear" x1="109.987" y1="-65.4623" x2="71.2228" y2="80.2006" gradientUnits="userSpaceOnUse">
<stop stop-color="#B37CFF"/>
<stop offset="1" stop-color="#F895E7"/>
</linearGradient>
<linearGradient id="paint4_linear" x1="90.6947" y1="-70.596" x2="51.9308" y2="75.0666" gradientUnits="userSpaceOnUse">
<stop stop-color="#B37CFF"/>
<stop offset="1" stop-color="#F895E7"/>
</linearGradient>
<linearGradient id="paint5_linear" x1="82.1377" y1="8.47633" x2="58.443" y2="62.2033" gradientUnits="userSpaceOnUse">
<stop stop-color="#A737D5"/>
<stop offset="1" stop-color="#EF497A"/>
</linearGradient>
<linearGradient id="paint6_linear" x1="26.8264" y1="53.0251" x2="139.03" y2="66.393" gradientUnits="userSpaceOnUse">
<stop stop-color="#B37CFF"/>
<stop offset="1" stop-color="#F895E7"/>
</linearGradient>
<linearGradient id="paint7_linear" x1="26.7538" y1="53.6573" x2="138.954" y2="67.0248" gradientUnits="userSpaceOnUse">
<stop stop-color="#B37CFF"/>
<stop offset="1" stop-color="#F895E7"/>
</linearGradient>
<linearGradient id="paint8_linear" x1="28.7232" y1="37.1422" x2="140.921" y2="50.5095" gradientUnits="userSpaceOnUse">
<stop stop-color="#B37CFF"/>
<stop offset="1" stop-color="#F895E7"/>
</linearGradient>
<linearGradient id="paint9_linear" x1="27.8051" y1="44.7998" x2="140.01" y2="58.1679" gradientUnits="userSpaceOnUse">
<stop stop-color="#B37CFF"/>
<stop offset="1" stop-color="#F895E7"/>
</linearGradient>
<linearGradient id="paint10_linear" x1="123.354" y1="-8.389" x2="87.6424" y2="92.7908" gradientUnits="userSpaceOnUse">
<stop stop-color="#A737D5"/>
<stop offset="1" stop-color="#EF497A"/>
</linearGradient>
<linearGradient id="paint11_linear" x1="88.3883" y1="53.3419" x2="62.425" y2="105.169" gradientUnits="userSpaceOnUse">
<stop stop-color="#CB236D"/>
<stop offset="1" stop-color="#4C246D"/>
</linearGradient>
<linearGradient id="paint12_linear" x1="64.9473" y1="57.726" x2="81.545" y2="57.726" gradientUnits="userSpaceOnUse">
<stop stop-color="#F9B776"/>
<stop offset="1" stop-color="#F47960"/>
</linearGradient>
<linearGradient id="paint13_linear" x1="64.6233" y1="104.89" x2="97.9183" y2="104.89" gradientUnits="userSpaceOnUse">
<stop stop-color="#F9B776"/>
<stop offset="1" stop-color="#F47960"/>
</linearGradient>
<linearGradient id="paint14_linear" x1="106.277" y1="62.3033" x2="80.3136" y2="114.131" gradientUnits="userSpaceOnUse">
<stop stop-color="#CB236D"/>
<stop offset="1" stop-color="#4C246D"/>
</linearGradient>
<linearGradient id="paint15_linear" x1="95.7008" y1="66.8527" x2="65.9746" y2="145.396" gradientUnits="userSpaceOnUse">
<stop stop-color="#A737D5"/>
<stop offset="1" stop-color="#EF497A"/>
</linearGradient>
<linearGradient id="paint16_linear" x1="58.5158" y1="42.1476" x2="79.9001" y2="70.836" gradientUnits="userSpaceOnUse">
<stop stop-color="#F9B776"/>
<stop offset="1" stop-color="#F47960"/>
</linearGradient>
<linearGradient id="paint17_linear" x1="65.5986" y1="27.3056" x2="53.8269" y2="85.8747" gradientUnits="userSpaceOnUse">
<stop stop-color="#2B3582"/>
<stop offset="1" stop-color="#150E42"/>
</linearGradient>
<linearGradient id="paint18_linear" x1="89.5223" y1="64.3237" x2="72.8297" y2="46.9562" gradientUnits="userSpaceOnUse">
<stop stop-color="#F9B776"/>
<stop offset="1" stop-color="#F47960"/>
</linearGradient>
<linearGradient id="paint19_linear" x1="58.9426" y1="120.978" x2="76.3745" y2="62.1447" gradientUnits="userSpaceOnUse">
<stop stop-color="#2B3582"/>
<stop offset="1" stop-color="#150E42"/>
</linearGradient>
<linearGradient id="paint20_linear" x1="14.474" y1="69.9764" x2="58.8821" y2="111.934" gradientUnits="userSpaceOnUse">
<stop stop-color="#2B3582"/>
<stop offset="1" stop-color="#150E42"/>
</linearGradient>
<linearGradient id="paint21_linear" x1="39.9759" y1="84.1136" x2="29.3979" y2="100.267" gradientUnits="userSpaceOnUse">
<stop stop-color="#53D8FF"/>
<stop offset="1" stop-color="#3840F7"/>
</linearGradient>
<linearGradient id="paint22_linear" x1="8.24485" y1="112.405" x2="115.001" y2="112.405" gradientUnits="userSpaceOnUse">
<stop stop-color="#18459F"/>
<stop offset="1" stop-color="#2874B5"/>
</linearGradient>
<linearGradient id="paint23_linear" x1="43.2571" y1="-16.5779" x2="22.5032" y2="60.1166" gradientUnits="userSpaceOnUse">
<stop stop-color="#53D8FF"/>
<stop offset="1" stop-color="#3840F7"/>
</linearGradient>
<linearGradient id="paint24_linear" x1="36.3159" y1="18.9048" x2="1.41035" y2="60.2019" gradientUnits="userSpaceOnUse">
<stop stop-color="#FDF53F"/>
<stop offset="0.294" stop-color="#F2BF4A"/>
<stop offset="1" stop-color="#D93C65"/>
</linearGradient>
<linearGradient id="paint25_linear" x1="6.1957" y1="68.7911" x2="36.0118" y2="35.3145" gradientUnits="userSpaceOnUse">
<stop stop-color="#53D8FF"/>
<stop offset="1" stop-color="#3840F7"/>
</linearGradient>
</defs>
</svg>
