<svg width="48" height="55" viewBox="0 0 48 55" fill="none" xmlns="http://www.w3.org/2000/svg">
<g clip-path="url(#clip0)">
<path d="M24 47.6857C37.2548 47.6857 48 37.0109 48 23.8428C48 10.6748 37.2548 0 24 0C10.7452 0 0 10.6748 0 23.8428C0 37.0109 10.7452 47.6857 24 47.6857Z" fill="#6666B3"/>
<path d="M22.6135 43.7941C34.6538 43.7941 44.4143 34.0974 44.4143 22.136C44.4143 10.1747 34.6538 0.478027 22.6135 0.478027C10.5733 0.478027 0.812744 10.1747 0.812744 22.136C0.812744 34.0974 10.5733 43.7941 22.6135 43.7941Z" fill="#8686DD"/>
<path d="M24.0479 25.9316C30.1674 25.9316 35.6176 29.0189 37.9124 33.8159C38.1037 34.2434 37.9603 34.7183 37.53 34.9083C37.0997 35.0983 36.6216 34.9558 36.4304 34.5283C34.3746 30.3012 29.4981 27.5465 24.0479 27.5465C18.5021 27.5465 13.6256 30.3012 11.5698 34.6233C11.3786 35.0508 10.9005 35.1933 10.4702 35.0033C10.0399 34.8133 9.89651 34.3384 10.0877 33.9109C12.3826 29.0664 17.8328 25.9316 24.0479 25.9316Z" fill="#4B4B93"/>
<path d="M15.7292 21.6604C17.2606 21.6604 18.5021 20.427 18.5021 18.9056C18.5021 17.3842 17.2606 16.1509 15.7292 16.1509C14.1978 16.1509 12.9563 17.3842 12.9563 18.9056C12.9563 20.427 14.1978 21.6604 15.7292 21.6604Z" fill="#4B4B93"/>
<path d="M32.271 21.6604C33.8024 21.6604 35.0439 20.427 35.0439 18.9056C35.0439 17.3842 33.8024 16.1509 32.271 16.1509C30.7395 16.1509 29.498 17.3842 29.498 18.9056C29.498 20.427 30.7395 21.6604 32.271 21.6604Z" fill="#4B4B93"/>
<path d="M20.6054 4.13136C16.3027 4.08387 12.2389 5.74621 9.08353 8.59595C6.59748 10.8283 2.72497 15.5303 3.92019 19.0925C4.11142 19.6624 4.87636 19.9474 5.35445 19.4725C6.31063 18.3801 6.50186 17.1927 7.02776 15.9103C7.7927 13.963 8.98792 12.1581 10.47 10.6383C13.2429 7.78853 16.972 6.41115 20.8445 5.74621C21.7528 5.60373 21.5138 4.17886 20.6054 4.13136Z" fill="#EFF2FE"/>
<path d="M3.0118 25.2683C3.0118 25.3158 3.0118 25.3158 3.05961 25.3633C3.25084 25.8858 3.68112 26.3132 4.30263 26.3132C4.92415 26.2657 5.30662 25.9332 5.54566 25.3633C5.54566 25.3158 5.54566 25.3158 5.59347 25.2683C5.88032 24.4609 5.11538 23.606 4.35044 23.606C3.48988 23.6535 2.72494 24.5084 3.0118 25.2683Z" fill="#EFF2FE"/>
<path d="M24.0955 55.0016C35.3437 55.0016 44.4621 54.2787 44.4621 53.3868C44.4621 52.495 35.3437 51.772 24.0955 51.772C12.8474 51.772 3.729 52.495 3.729 53.3868C3.729 54.2787 12.8474 55.0016 24.0955 55.0016Z" fill="#DAE0EC"/>
</g>
<defs>
<clipPath id="clip0">
<rect width="48" height="55" fill="white"/>
</clipPath>
</defs>
</svg>
