<svg width="100" height="115" viewBox="0 0 100 115" fill="none" xmlns="http://www.w3.org/2000/svg">
<path d="M50 99.7064C77.6142 99.7064 100 77.3864 100 49.8532C100 22.32 77.6142 0 50 0C22.3858 0 0 22.32 0 49.8532C0 77.3864 22.3858 99.7064 50 99.7064Z" fill="#6666B3"/>
<path d="M47.1114 91.563C72.1953 91.563 92.5298 71.2883 92.5298 46.2781C92.5298 21.2679 72.1953 0.993103 47.1114 0.993103C22.0276 0.993103 1.69312 21.2679 1.69312 46.2781C1.69312 71.2883 22.0276 91.563 47.1114 91.563Z" fill="#8686DD"/>
<path d="M50.0996 54.2228C62.8486 54.2228 74.2032 60.6779 78.9841 70.7081C79.3825 71.6019 79.0836 72.595 78.1872 72.9922C77.2908 73.3895 76.2948 73.0915 75.8964 72.1977C71.6135 63.3592 61.4542 57.5993 50.0996 57.5993C38.5458 57.5993 28.3864 63.3592 24.1036 72.3964C23.7052 73.2901 22.7091 73.5881 21.8127 73.1908C20.9163 72.7936 20.6175 71.8005 21.0159 70.9067C25.7968 60.7772 37.1514 54.2228 50.0996 54.2228Z" fill="#4B4B93"/>
<path d="M32.7688 45.285C35.9593 45.285 38.5457 42.7062 38.5457 39.5251C38.5457 36.3439 35.9593 33.7651 32.7688 33.7651C29.5783 33.7651 26.9919 36.3439 26.9919 39.5251C26.9919 42.7062 29.5783 45.285 32.7688 45.285Z" fill="#4B4B93"/>
<path d="M67.231 45.285C70.4215 45.285 73.0079 42.7062 73.0079 39.5251C73.0079 36.3439 70.4215 33.7651 67.231 33.7651C64.0405 33.7651 61.4541 36.3439 61.4541 39.5251C61.4541 42.7062 64.0405 45.285 67.231 45.285Z" fill="#4B4B93"/>
<path d="M42.9283 8.63989C33.9642 8.54058 25.498 12.0164 18.9243 17.975C13.745 22.6425 5.67731 32.4741 8.16735 39.9223C8.56575 41.114 10.1594 41.7098 11.1554 40.7167C13.1474 38.4326 13.5458 35.9499 14.6415 33.2686C16.2351 29.1969 18.7251 25.4231 21.8128 22.2452C27.5897 16.2867 35.3586 13.4067 43.4263 12.0164C45.3187 11.7185 44.8207 8.7392 42.9283 8.63989Z" fill="#EFF2FE"/>
<path d="M6.2748 52.8324C6.2748 52.9318 6.2748 52.9318 6.3744 53.0311C6.77281 54.1235 7.66922 55.0173 8.96404 55.0173C10.2589 54.9179 11.0557 54.2228 11.5537 53.0311C11.5537 52.9318 11.5537 52.9318 11.6533 52.8324C12.2509 51.1442 10.6573 49.3566 9.06364 49.3566C7.27082 49.4559 5.67719 51.2435 6.2748 52.8324Z" fill="#EFF2FE"/>
<path d="M50.1993 115C73.6329 115 92.6296 113.488 92.6296 111.623C92.6296 109.759 73.6329 108.247 50.1993 108.247C26.7657 108.247 7.76904 109.759 7.76904 111.623C7.76904 113.488 26.7657 115 50.1993 115Z" fill="#DAE0EC"/>
</svg>
