<svg width="395" height="1080" viewBox="0 0 395 1080" fill="none" xmlns="http://www.w3.org/2000/svg">
<path d="M136 473.5C30.2895 658.181 620.694 697.674 296.5 1054.5C-61.6806 1448.73 -21.1873 918.555 -21.1873 721.485C-21.1873 524.415 -645.743 314.972 -438.5 55.5001C-113.428 -164.279 241.711 288.819 136 473.5Z" fill="#F7FAFD"/>
<path d="M123 472C17.2895 656.681 585.5 721.048 261.306 1077.87C-96.8747 1472.11 -50.8129 918.118 -50.8129 721.048C-50.8129 523.978 -649.243 418.472 -442 159C-116.928 -60.7786 228.711 287.32 123 472Z" fill="#EEF5FB"/>
<path d="M114.625 472C8.91498 656.681 577.125 721.048 252.931 1077.87C-105.249 1472.11 -59.1874 918.118 -59.1874 721.048C-59.1874 523.978 -657.617 418.472 -450.374 159C-125.302 -60.7786 220.336 287.32 114.625 472Z" fill="#EEF5FB"/>
</svg>
